<svg xmlns="http://www.w3.org/2000/svg" xmlns:xlink="http://www.w3.org/1999/xlink" id="body_3" preserveAspectRatio="xMinYMin meet" viewBox="0 0 509 717"><defs><clipPath id="1"><path id="" clip-rule="evenodd" d="M0 538L0 -0.8049927L0 -0.8049927L382.804 -0.8049927L382.804 -0.8049927L382.804 538L382.804 538L0 538z" /></clipPath></defs><g transform="matrix(1.333333 0 0 1.333333 0 0)"><g clip-path="url(#1)"><path id="1" transform="matrix(1 0 0 -1 0 538)" d="M328.48 390.473L367.315 390.473L367.315 525.118L328.48 525.118z" stroke="none" fill="#F7931D" fill-rule="nonzero" /><path id="2" transform="matrix(1 0 0 -1 0 538)" d="M328.48 525.118L367.315 525.118L367.315 525.118L367.315 390.473L367.315 390.473L328.48 390.473z" stroke="#F7931D" stroke-width="0.5" fill="none" /><path id="39" transform="matrix(1 0 0 -1 0 538)" d="M56.35501 474.774L281.605 474.774M281.708 499.606L281.708 474.775M281.708 499.606L328.48 499.606M328.48 499.606L328.48 65.90598" stroke="#221E1F" stroke-width="0.5" stroke-linecap="square" fill="none" /><path id="40" transform="matrix(1 0 0 -1 0 538)" d="M287.378 474.775L322.811 474.775L322.811 492.633L287.378 492.633z" stroke="none" fill="#FCC689" fill-rule="nonzero" /><path id="41" transform="matrix(1 0 0 -1 0 538)" d="M318.73 478.833L316.559 478.833L316.559 478.833L316.559 477.42L316.559 477.42L319.209 477.481L319.209 477.481L319.272 477.42L319.272 477.42L319.167 475.215L319.167 475.215L319.074 475.126L319.074 475.126L317.092 475.141C 315.861 475.141 315.182 475.111 314.051 475.038L314.051 475.038L313.996 475.128L313.996 475.128L314.038 479.246L314.038 479.246L313.965 486.05L313.965 486.05L314.029 486.147L314.029 486.147L319.032 486.147L319.032 486.147L319.083 486.082L319.083 486.082L319.011 483.88L319.011 483.88L318.948 483.801L318.948 483.801L316.538 483.801L316.538 483.801L316.538 481.146L316.538 481.146L318.824 481.221L318.824 481.221L318.886 481.097L318.886 481.097L318.803 478.932M311.095 475.038L311.043 475.139L311.043 475.139L311.082 478.749L311.082 478.749L311.071 480.092L311.071 480.092L309.939 480.109C 309.413 480.109 308.995 480.092 308.363 480.059L308.363 480.059L308.363 475.173L308.363 475.173L308.318 475.089L308.318 475.089L305.874 475.038L305.874 475.038L305.822 475.122L305.822 475.122L305.863 481.673L305.863 481.673L305.811 484.963L305.811 484.963L305.853 485.75C 306.162 485.595 306.474 485.595 306.796 485.595C 307.304 485.595 307.765 485.905 308.318 486.216L308.318 486.216L308.363 485.284L308.363 485.284L308.363 482.387L308.363 482.387L311.071 482.387L311.071 482.387L311.017 484.974L311.017 484.974L311.082 485.75L311.082 485.75L313.572 486.216L313.572 486.216L313.624 485.595L313.624 485.595L313.582 480.421L313.582 480.421L313.624 475.14L313.624 475.14L313.572 475.038L313.572 475.038L311.095 475.038zM305.531 475.595L305.48 475.506C 304.189 475.267 303.781 475.059 303.125 475.059C 302.055 475.059 301.293 475.521 300.741 476.116C 299.667 477.278 299.413 479.109 299.413 480.487C 299.413 484.259 301.039 486.195 303.09 486.195C 303.869 486.195 304.322 485.882 305.5 485.644L305.5 485.644L305.542 485.54L305.542 485.54L305.449 483.06L305.449 483.06L304.578 482.999C 304.401 483.259 304.074 483.752 303.445 483.752C 302.745 483.752 301.912 482.999 301.912 480.625C 301.912 478.145 302.808 477.502 303.525 477.502C 304.154 477.502 304.517 477.961 305.522 478.191L305.522 478.191L305.605 478.129L305.605 478.129L305.531 475.595zM298.334 475.109L298.292 475.038L298.292 475.038L295.808 475.038L295.808 475.038L295.762 475.109L295.762 475.109L295.784 478.866L295.784 478.866L295.808 481.289L295.808 481.289L295.74 484.974L295.74 484.974L295.796 485.75C 296.914 485.595 297.155 485.595 298.272 486.216L298.272 486.216L298.314 485.44L298.314 485.44L298.262 481.119L298.262 481.119L298.334 475.109zM294.811 478.833L292.63 478.833L292.63 478.833L292.698 475.121L292.698 475.121L292.618 475.038L292.618 475.038L290.202 475.038L290.202 475.038L290.125 475.12L290.125 475.12L290.156 478.086L290.156 478.086L290.166 480.536L290.166 480.536L290.094 484.974L290.094 484.974L290.156 485.684C 292.88 485.506 293.453 485.684 295.123 486.216L295.123 486.216L295.197 485.329L295.197 485.329L295.113 483.91L295.113 483.91L295.039 483.801L295.039 483.801L292.66 483.801L292.66 483.801L292.671 481.131L292.671 481.131L294.926 481.22L294.926 481.22L294.978 481.147L294.978 481.147L294.884 478.945L294.884 478.945L294.811 478.833z" stroke="none" fill="#F7931D" fill-rule="evenodd" /><path id="830" transform="matrix(1 0 0 -1 0 538)" d="M56.355 128.304L311.473 128.304L311.473 297.304L56.355 297.304z" stroke="none" fill="#FEE6CB" fill-rule="nonzero" /><path id="1752" transform="matrix(1 0 0 -1 0 538)" d="M59.355 395.388L59.355 382.888" stroke="#F7931D" stroke-width="6" fill="none" /><path id="1753" transform="matrix(1 0 0 -1 0 538)" d="M56.355 382.638L165.605 382.638M56.355 395.638L165.605 395.638M165.355 395.388L165.355 382.888" stroke="#F7931D" stroke-width="0.5" fill="none" /></g></g></svg>