<svg xmlns="http://www.w3.org/2000/svg" xmlns:xlink="http://www.w3.org/1999/xlink" id="body_8" preserveAspectRatio="xMinYMin meet" viewBox="0 0 509 717"><defs><clipPath id="1"><path id="" clip-rule="evenodd" d="M0 538L0 -0.8049927L0 -0.8049927L382.804 -0.8049927L382.804 -0.8049927L382.804 538L382.804 538L0 538z" /></clipPath><clipPath id="2"><path id="" clip-rule="evenodd" d="M70.528 325.911L325.646 325.911L325.646 325.911L325.646 328.422L325.646 328.422L70.528 328.422" /></clipPath><clipPath id="3"><path id="" clip-rule="evenodd" d="M323.801 77.61499L71.668 77.61499L71.668 77.61499L71.668 303.583L71.668 303.583L323.801 303.583z" /></clipPath><clipPath id="4"><path id="" clip-rule="evenodd" d="M14.4 538L107.076 538L107.076 538L107.076 522.028L107.076 522.028L14.4 522.028z" /></clipPath></defs><g transform="matrix(1.333333 0 0 1.333333 0 0)"><g clip-path="url(#1)"><path id="33" transform="matrix(1 0 0 -1 0 538)" d="M100.292 499.606L100.292 474.775M53.52 499.606L100.292 499.606M53.52 499.606L53.52 65.90598" stroke="#221E1F" stroke-width="0.5" stroke-linecap="square" fill="none" /><path id="34" transform="matrix(1 0 0 -1 0 538)" d="M59.189 474.775L94.62199 474.775L94.62199 492.633L59.189 492.633z" stroke="none" fill="#FCC689" fill-rule="nonzero" /><path id="35" transform="matrix(1 0 0 -1 0 538)" d="M90.542 478.833L88.371 478.833L88.371 478.833L88.371 477.42L88.371 477.42L91.021 477.481L91.021 477.481L91.084 477.42L91.084 477.42L90.979 475.215L90.979 475.215L90.886 475.126L90.886 475.126L88.904 475.141C 87.673 475.141 86.994 475.111 85.863 475.038L85.863 475.038L85.808 475.128L85.808 475.128L85.85 479.246L85.85 479.246L85.777 486.05L85.777 486.05L85.841 486.147L85.841 486.147L90.843 486.147L90.843 486.147L90.895 486.082L90.895 486.082L90.823 483.88L90.823 483.88L90.76 483.801L90.76 483.801L88.35 483.801L88.35 483.801L88.35 481.146L88.35 481.146L90.635 481.221L90.635 481.221L90.698 481.097L90.698 481.097L90.61501 478.932M82.907 475.038L82.855 475.139L82.855 475.139L82.894 478.749L82.894 478.749L82.883 480.092L82.883 480.092L81.751 480.109C 81.225 480.109 80.807 480.092 80.175 480.059L80.175 480.059L80.175 475.173L80.175 475.173L80.13 475.089L80.13 475.089L77.686 475.038L77.686 475.038L77.633 475.122L77.633 475.122L77.675 481.673L77.675 481.673L77.623 484.963L77.623 484.963L77.665 485.75C 77.974 485.595 78.286 485.595 78.608 485.595C 79.116 485.595 79.577 485.905 80.13 486.216L80.13 486.216L80.175 485.284L80.175 485.284L80.175 482.387L80.175 482.387L82.883 482.387L82.883 482.387L82.829 484.974L82.829 484.974L82.894 485.75L82.894 485.75L85.383 486.216L85.383 486.216L85.436 485.595L85.436 485.595L85.394 480.421L85.394 480.421L85.436 475.14L85.436 475.14L85.383 475.038L85.383 475.038L82.907 475.038zM77.343 475.595L77.292 475.506C 76.001 475.267 75.593 475.059 74.937 475.059C 73.867 475.059 73.105 475.521 72.552 476.116C 71.479 477.278 71.225 479.109 71.225 480.487C 71.225 484.259 72.851 486.195 74.902 486.195C 75.681 486.195 76.133 485.882 77.312 485.644L77.312 485.644L77.354 485.54L77.354 485.54L77.26 483.06L77.26 483.06L76.39 482.999C 76.213 483.259 75.886 483.752 75.257 483.752C 74.557 483.752 73.724 482.999 73.724 480.625C 73.724 478.145 74.62 477.502 75.337 477.502C 75.966 477.502 76.329 477.961 77.334 478.191L77.334 478.191L77.417 478.129L77.417 478.129L77.343 475.595zM70.146 475.109L70.104 475.038L70.104 475.038L67.62 475.038L67.62 475.038L67.574 475.109L67.574 475.109L67.596 478.866L67.596 478.866L67.62 481.289L67.62 481.289L67.552 484.974L67.552 484.974L67.608 485.75C 68.726 485.595 68.967 485.595 70.084 486.216L70.084 486.216L70.126 485.44L70.126 485.44L70.074 481.119L70.074 481.119L70.146 475.109zM66.623 478.833L64.442 478.833L64.442 478.833L64.51 475.121L64.51 475.121L64.43 475.038L64.43 475.038L62.014 475.038L62.014 475.038L61.937 475.12L61.937 475.12L61.969 478.086L61.969 478.086L61.978 480.536L61.978 480.536L61.906 484.974L61.906 484.974L61.969 485.684C 64.692 485.506 65.265 485.684 66.935 486.216L66.935 486.216L67.009 485.329L67.009 485.329L66.925 483.91L66.925 483.91L66.851 483.801L66.851 483.801L64.472 483.801L64.472 483.801L64.483 481.131L64.483 481.131L66.738 481.22L66.738 481.22L66.79 481.147L66.79 481.147L66.696 478.945L66.696 478.945L66.623 478.833z" stroke="none" fill="#F7931D" fill-rule="evenodd" /><path id="38" transform="matrix(1 0 0 -1 0 538)" d="M100.292 474.774L325.542 474.774" stroke="#221E1F" stroke-width="0.5" stroke-linecap="square" fill="none" /><g clip-path="url(#2)"><path id="311" transform="matrix(1 0 0 -1 0 538)" d="M70.528 211.089L524.071 211.089" stroke="#F7931D" stroke-width="0.4" stroke-linecap="square" fill="none" /></g><path id="392" transform="matrix(1 0 0 -1 0 538)" d="M73.528 179.128L73.528 166.628" stroke="#F7931D" stroke-width="6" fill="none" /><path id="393" transform="matrix(1 0 0 -1 0 538)" d="M70.528 166.378L187.778 166.378M70.528 179.378L187.778 179.378M187.528 179.128L187.528 166.628" stroke="#F7931D" stroke-width="0.5" fill="none" /><path id="394" transform="matrix(1 0 0 -1 0 538)" d="M71.667 234.417L324.506 234.417L324.506 462.756L71.667 462.756z" stroke="none" fill="#FFFFFF" fill-rule="nonzero" /><g clip-path="url(#3)"><g transform="matrix(0.339424 0 0 0.3393874 71.634 77.58398)"><g transform="matrix(1 0 0 1 0 0)"><image x="0" y="0" xlink:href="img_13.png" width="743" height="666" /></g></g></g><path id="396" transform="matrix(1 0 0 -1 0 538)" d="M272.934 289.799L292.6844 263.5277" stroke="#221E1F" stroke-width="0.4900935" fill="none" /><path id="397" transform="matrix(1 0 0 -1 0 538)" d="M294.92 260.555L292.369 261.645L289.818 262.733L292.045 264.379L294.272 266.026L294.596 263.29L294.92 260.555" stroke="none" fill="#221E1F" fill-rule="nonzero" /><path id="398" transform="matrix(1 0 0 -1 0 538)" d="M247.39 290.5175L228.899 263.3839M294.922 260.553L292.3701 261.6433L292.3701 261.6433L289.8192 262.7317L289.8192 262.7317L292.0467 264.3776L292.0467 264.3776L294.2732 266.0245L294.2732 266.0245L294.5976 263.2883L294.5976 263.2883L294.922 260.553z" stroke="#221E1F" stroke-width="0.4900935" fill="none" /><path id="399" transform="matrix(1 0 0 -1 0 538)" d="M226.662 260.211L229.214 261.375L231.766 262.537L227.31 266.052L226.987 263.132L226.662 260.211" stroke="none" fill="#221E1F" fill-rule="nonzero" /><path id="400" transform="matrix(1 0 0 -1 0 538)" d="M136.5651 343.8213L159.7722 308.2379M226.663 260.209L229.2149 261.373L229.2149 261.373L231.7668 262.535L231.7668 262.535L227.3108 266.049L227.3108 266.049L226.9884 263.1295L226.9884 263.1295L226.663 260.209z" stroke="#221E1F" stroke-width="0.4900935" fill="none" /><path id="401" transform="matrix(1 0 0 -1 0 538)" d="M161.804 305.126L156.859 307.636L159.192 309.131L161.524 310.627L161.664 307.877L161.804 305.126" stroke="none" fill="#221E1F" fill-rule="nonzero" /><path id="402" transform="matrix(1 0 0 -1 0 538)" d="M123.2915 343.816L99.99295 308.8281M161.805 305.124L156.8599 307.6332L156.8599 307.6332L159.1928 309.1288L159.1928 309.1288L161.5248 310.6254L161.5248 310.6254L161.6654 307.8742L161.6654 307.8742L161.805 305.124z" stroke="#221E1F" stroke-width="0.4900935" fill="none" /><path id="403" transform="matrix(1 0 0 -1 0 538)" d="M97.755 305.656L100.307 306.819L102.859 307.982L100.63 309.739L98.403 311.497L98.07999 308.577L97.755 305.656" stroke="none" fill="#221E1F" fill-rule="nonzero" /><path id="404" transform="matrix(1 0 0 -1 0 538)" d="M171.9785 412.5563L136.521 389.7123M97.7554 305.654L100.3073 306.817L100.3073 306.817L102.8592 307.98L102.8592 307.98L100.6307 309.7375L100.6307 309.7375L98.40317 311.4949L98.40317 311.4949L98.0808 308.5755L98.0808 308.5755L97.7554 305.654z" stroke="#221E1F" stroke-width="0.4900935" fill="none" /><path id="405" transform="matrix(1 0 0 -1 0 538)" d="M133.19 387.691L138.806 387.801L137.471 390.295L136.138 392.788L134.665 390.239L133.19 387.691" stroke="none" fill="#221E1F" fill-rule="nonzero" /><path id="406" transform="matrix(1 0 0 -1 0 538)" d="M219.4695 412.4229L253.1474 390.8544M133.191 387.688L138.807 387.7985L138.807 387.7985L137.4723 390.2928L137.4723 390.2928L136.1386 392.7861L136.1386 392.7861L134.6663 390.2361L134.6663 390.2361L133.191 387.688z" stroke="#221E1F" stroke-width="0.4900935" fill="none" /><path id="407" transform="matrix(1 0 0 -1 0 538)" d="M256.309 388.946L253.641 388.999L250.973 389.05L253.51 393.759L254.906 391.352L256.309 388.946" stroke="none" fill="#221E1F" fill-rule="nonzero" /><path id="408" transform="matrix(1 0 0 -1 0 538)" d="M97.53577 289.9965L97.53577 263.6256M256.309 388.943L253.6416 388.9958L253.6416 388.9958L250.9742 389.0465L250.9742 389.0465L253.511 393.7553L253.511 393.7553L254.907 391.3487L254.907 391.3487L256.309 388.943z" stroke="#221E1F" stroke-width="0.4900935" fill="none" /><path id="409" transform="matrix(1 0 0 -1 0 538)" d="M97.536 260.89L96.147 263.276L94.758 265.661L100.314 265.661L98.925 263.276L97.536 260.89" stroke="none" fill="#221E1F" fill-rule="nonzero" /><path id="410" transform="matrix(1 0 0 -1 0 538)" d="M263.6198 343.0157L263.6198 313.2802M97.5364 260.889L96.14747 263.2738L96.14747 263.2738L94.75854 265.6595L94.75854 265.6595L100.3143 265.6595L100.3143 265.6595L98.92533 263.2738L98.92533 263.2738L97.5364 260.889z" stroke="#221E1F" stroke-width="0.4900935" fill="none" /><path id="411" transform="matrix(1 0 0 -1 0 538)" d="M263.618 309.571L262.23 311.957L260.84 314.342L266.397 314.342L265.007 311.957L263.618 309.571" stroke="none" fill="#221E1F" fill-rule="nonzero" /><path id="412" transform="matrix(1 0 0 -1 0 538)" d="M197.4132 449.6132L197.4132 432.5016M263.62 309.569L262.231 311.9548L262.231 311.9548L260.8421 314.3395L260.8421 314.3395L266.3989 314.3395L266.3989 314.3395L265.0089 311.9548L265.0089 311.9548L263.62 309.569z" stroke="#221E1F" stroke-width="0.4900935" fill="none" /><path id="413" transform="matrix(1 0 0 -1 0 538)" d="M197.412 428.795L194.634 433.565L200.19 433.565L198.8 431.18L197.412 428.795" stroke="none" fill="#221E1F" fill-rule="nonzero" /><path id="414" transform="matrix(1 0 0 -1 0 538)" d="M163.46 281.5806L163.46 264.468M197.413 428.791L194.6351 433.5615L194.6351 433.5615L200.1909 433.5615L200.1909 433.5615L198.8019 431.1768L198.8019 431.1768L197.413 428.791z" stroke="#221E1F" stroke-width="0.4900935" fill="none" /><path id="415" transform="matrix(1 0 0 -1 0 538)" d="M163.459 260.761L162.071 263.146L160.682 265.531L166.237 265.531L164.848 263.146L163.459 260.761" stroke="none" fill="#221E1F" fill-rule="nonzero" /><path id="416" transform="matrix(1 0 0 -1 0 538)" d="M132.0549 372.6002L132.0549 360.8167M163.46 260.759L162.0711 263.1438L162.0711 263.1438L160.6821 265.5285L160.6821 265.5285L166.2379 265.5285L166.2379 265.5285L164.8489 263.1438L164.8489 263.1438L163.46 260.759z" stroke="#221E1F" stroke-width="0.4900935" fill="none" /><path id="417" transform="matrix(1 0 0 -1 0 538)" d="M132.054 357.11L130.665 359.496L129.276 361.881L134.832 361.881L133.443 359.496L132.054 357.11" stroke="none" fill="#221E1F" fill-rule="nonzero" /><path id="418" transform="matrix(1 0 0 -1 0 538)" d="M263.62 373.1611L263.62 361.3797M132.055 357.108L129.2771 361.8785L129.2771 361.8785L134.8329 361.8785L134.8329 361.8785L133.4439 359.4928L133.4439 359.4928L132.055 357.108z" stroke="#221E1F" stroke-width="0.4900935" fill="none" /><path id="419" transform="matrix(1 0 0 -1 0 538)" d="M263.618 357.672L262.23 360.057L260.84 362.442L266.397 362.442L265.007 360.057L263.618 357.672" stroke="none" fill="#221E1F" fill-rule="nonzero" /><path id="420" transform="matrix(1 0 0 -1 0 538)" d="M263.62 357.669L262.231 360.0538L262.231 360.0538L260.8421 362.4385L260.8421 362.4385L266.3989 362.4385L266.3989 362.4385L265.0089 360.0538L265.0089 360.0538L263.62 357.669z" stroke="#221E1F" stroke-width="0.4900935" fill="none" /><path id="421" transform="matrix(1 0 0 -1 0 538)" d="M234.198 451.243L239.573 451.243L239.573 457.414L234.198 457.414z" stroke="none" fill="#FFFFFF" fill-rule="nonzero" /><g clip-path="url(#4)"></g></g></g></svg>