<svg xmlns="http://www.w3.org/2000/svg" xmlns:xlink="http://www.w3.org/1999/xlink" id="body_6" preserveAspectRatio="xMinYMin meet" viewBox="0 0 509 717"><defs><clipPath id="1"><path id="" clip-rule="evenodd" d="M0 538L0 -0.8049927L0 -0.8049927L382.804 -0.8049927L382.804 -0.8049927L382.804 538L382.804 538L0 538z" /></clipPath><clipPath id="2"><path id="" clip-rule="evenodd" d="M70.528 422.08L325.646 422.08L325.646 422.08L325.646 424.591L325.646 424.591L70.528 424.591" /></clipPath><clipPath id="3"><path id="" clip-rule="evenodd" d="M70.528 75.24399L325.646 75.24399L325.646 75.24399L325.646 409.08L325.646 409.08L70.528 409.08" /></clipPath><clipPath id="4"><path id="" clip-rule="evenodd" d="M324.312 76.15201L72.70302 76.15201L72.70302 76.15201L72.70302 411.552L72.70302 411.552L324.312 411.552z" /></clipPath><clipPath id="5"><path id="" clip-rule="evenodd" d="M324.312 76.15201L71.35602 76.15201L71.35602 76.15201L71.35602 411.552L71.35602 411.552L324.312 411.552z" /></clipPath><clipPath id="6"><path id="" clip-rule="evenodd" d="M70.528 75.24399L325.646 75.24399L325.646 75.24399L325.646 409.08L325.646 409.08L70.528 409.08" /></clipPath><clipPath id="7"><path id="" clip-rule="evenodd" d="M324.312 76.15201L71.35602 76.15201L71.35602 76.15201L71.35602 411.552L71.35602 411.552L324.312 411.552z" /></clipPath><clipPath id="8"><path id="" clip-rule="evenodd" d="M70.528 75.24399L325.646 75.24399L325.646 75.24399L325.646 409.08L325.646 409.08L70.528 409.08" /></clipPath><clipPath id="9"><path id="" clip-rule="evenodd" d="M14.4 538L107.076 538L107.076 538L107.076 522.028L107.076 522.028L14.4 522.028z" /></clipPath></defs><g transform="matrix(1.333333 0 0 1.333333 0 0)"><g clip-path="url(#1)"><path id="33" transform="matrix(1 0 0 -1 0 538)" d="M100.292 499.606L100.292 474.775M53.52 499.606L100.292 499.606M53.52 499.606L53.52 65.90598" stroke="#221E1F" stroke-width="0.5" stroke-linecap="square" fill="none" /><path id="34" transform="matrix(1 0 0 -1 0 538)" d="M59.189 474.775L94.62199 474.775L94.62199 492.633L59.189 492.633z" stroke="none" fill="#FCC689" fill-rule="nonzero" /><path id="35" transform="matrix(1 0 0 -1 0 538)" d="M90.542 478.833L88.371 478.833L88.371 478.833L88.371 477.42L88.371 477.42L91.021 477.481L91.021 477.481L91.084 477.42L91.084 477.42L90.979 475.215L90.979 475.215L90.886 475.126L90.886 475.126L88.904 475.141C 87.673 475.141 86.994 475.111 85.863 475.038L85.863 475.038L85.808 475.128L85.808 475.128L85.85 479.246L85.85 479.246L85.777 486.05L85.777 486.05L85.841 486.147L85.841 486.147L90.843 486.147L90.843 486.147L90.895 486.082L90.895 486.082L90.823 483.88L90.823 483.88L90.76 483.801L90.76 483.801L88.35 483.801L88.35 483.801L88.35 481.146L88.35 481.146L90.635 481.221L90.635 481.221L90.698 481.097L90.698 481.097L90.61501 478.932M82.907 475.038L82.855 475.139L82.855 475.139L82.894 478.749L82.894 478.749L82.883 480.092L82.883 480.092L81.751 480.109C 81.225 480.109 80.807 480.092 80.175 480.059L80.175 480.059L80.175 475.173L80.175 475.173L80.13 475.089L80.13 475.089L77.686 475.038L77.686 475.038L77.633 475.122L77.633 475.122L77.675 481.673L77.675 481.673L77.623 484.963L77.623 484.963L77.665 485.75C 77.974 485.595 78.286 485.595 78.608 485.595C 79.116 485.595 79.577 485.905 80.13 486.216L80.13 486.216L80.175 485.284L80.175 485.284L80.175 482.387L80.175 482.387L82.883 482.387L82.883 482.387L82.829 484.974L82.829 484.974L82.894 485.75L82.894 485.75L85.383 486.216L85.383 486.216L85.436 485.595L85.436 485.595L85.394 480.421L85.394 480.421L85.436 475.14L85.436 475.14L85.383 475.038L85.383 475.038L82.907 475.038zM77.343 475.595L77.292 475.506C 76.001 475.267 75.593 475.059 74.937 475.059C 73.867 475.059 73.105 475.521 72.552 476.116C 71.479 477.278 71.225 479.109 71.225 480.487C 71.225 484.259 72.851 486.195 74.902 486.195C 75.681 486.195 76.133 485.882 77.312 485.644L77.312 485.644L77.354 485.54L77.354 485.54L77.26 483.06L77.26 483.06L76.39 482.999C 76.213 483.259 75.886 483.752 75.257 483.752C 74.557 483.752 73.724 482.999 73.724 480.625C 73.724 478.145 74.62 477.502 75.337 477.502C 75.966 477.502 76.329 477.961 77.334 478.191L77.334 478.191L77.417 478.129L77.417 478.129L77.343 475.595zM70.146 475.109L70.104 475.038L70.104 475.038L67.62 475.038L67.62 475.038L67.574 475.109L67.574 475.109L67.596 478.866L67.596 478.866L67.62 481.289L67.62 481.289L67.552 484.974L67.552 484.974L67.608 485.75C 68.726 485.595 68.967 485.595 70.084 486.216L70.084 486.216L70.126 485.44L70.126 485.44L70.074 481.119L70.074 481.119L70.146 475.109zM66.623 478.833L64.442 478.833L64.442 478.833L64.51 475.121L64.51 475.121L64.43 475.038L64.43 475.038L62.014 475.038L62.014 475.038L61.937 475.12L61.937 475.12L61.969 478.086L61.969 478.086L61.978 480.536L61.978 480.536L61.906 484.974L61.906 484.974L61.969 485.684C 64.692 485.506 65.265 485.684 66.935 486.216L66.935 486.216L67.009 485.329L67.009 485.329L66.925 483.91L66.925 483.91L66.851 483.801L66.851 483.801L64.472 483.801L64.472 483.801L64.483 481.131L64.483 481.131L66.738 481.22L66.738 481.22L66.79 481.147L66.79 481.147L66.696 478.945L66.696 478.945L66.623 478.833z" stroke="none" fill="#F7931D" fill-rule="evenodd" /><path id="38" transform="matrix(1 0 0 -1 0 538)" d="M100.292 474.774L325.542 474.774" stroke="#221E1F" stroke-width="0.5" stroke-linecap="square" fill="none" /><g clip-path="url(#2)"><path id="60" transform="matrix(1 0 0 -1 0 538)" d="M70.528 114.92L524.071 114.92" stroke="#F7931D" stroke-width="0.4" stroke-linecap="square" fill="none" /></g><g clip-path="url(#3)"><path id="112" transform="matrix(1 0 0 -1 0 538)" d="M71.355 128.92L324.818 128.92L324.818 462.756L71.355 462.756z" stroke="none" fill="#FFFFFF" fill-rule="nonzero" /></g><g clip-path="url(#4)"><g clip-path="url(#5)"><g clip-path="url(#6)"><g transform="matrix(0.3396923 0 0 0.3395466 72.654 76.14401)"><g transform="matrix(1 0 0 1 0 0)"><image x="0" y="0" xlink:href="img_09.png" width="741" height="988" /></g></g></g></g></g><g clip-path="url(#7)"><g clip-path="url(#8)"><path id="114" transform="matrix(1 0 0 -1 0 538)" d="M125.847 344.759L125.847 325.011M322.556 135.568L216.535 135.568L216.535 135.568L216.535 192.62L216.535 192.62L322.556 192.62L322.556 192.62L322.556 135.568zM179.596 135.458L71.602 135.458L71.602 135.458L71.602 192.875L71.602 192.875L179.596 192.875L179.596 192.875L179.596 135.458zM180.328 219.573L72.334 219.573L72.334 219.573L72.334 255.047L72.334 255.047L180.328 255.047L180.328 255.047L180.328 219.573zM180.328 272.713L72.334 272.713L72.334 272.713L72.334 322.084L72.334 322.084L180.328 322.084L180.328 322.084L180.328 272.713zM323.324 219.684L217.631 219.684L217.631 219.684L217.631 322.084L217.631 322.084L323.324 322.084L323.324 322.084L323.324 219.684zM323.324 346.223L217.631 346.223L217.631 346.223L217.631 441.675L217.631 441.675L323.324 441.675L323.324 441.675L323.324 346.223zM179.06 346.589L72.709 346.589L72.709 346.589L72.709 442.699L72.709 442.699L179.06 442.699L179.06 442.699L179.06 346.589z" stroke="#221E1F" stroke-width="0.493" fill="none" /><path id="115" transform="matrix(1 0 0 -1 0 538)" d="M125.847 323.836L124.449 326.256L123.051 328.677L128.642 328.677L127.244 326.256L125.847 323.836" stroke="none" fill="#221E1F" fill-rule="nonzero" /><path id="116" transform="matrix(1 0 0 -1 0 538)" d="M126.944 270.108L126.944 258.404M125.847 323.836L124.449 326.256L124.449 326.256L123.051 328.677L123.051 328.677L128.642 328.677L128.642 328.677L127.244 326.256L127.244 326.256L125.847 323.836z" stroke="#221E1F" stroke-width="0.493" fill="none" /><path id="117" transform="matrix(1 0 0 -1 0 538)" d="M126.944 257.229L125.546 259.65L124.148 262.072L129.739 262.072L128.342 259.65L126.944 257.229" stroke="none" fill="#221E1F" fill-rule="nonzero" /><path id="118" transform="matrix(1 0 0 -1 0 538)" d="M270.306 344.759L270.306 325.011M126.944 257.229L125.546 259.65L125.546 259.65L124.148 262.072L124.148 262.072L129.739 262.072L129.739 262.072L128.342 259.65L128.342 259.65L126.944 257.229z" stroke="#221E1F" stroke-width="0.493" fill="none" /><path id="119" transform="matrix(1 0 0 -1 0 538)" d="M270.306 323.836L268.908 326.256L267.511 328.677L273.101 328.677L271.705 326.256L270.306 323.836" stroke="none" fill="#221E1F" fill-rule="nonzero" /><path id="120" transform="matrix(1 0 0 -1 0 538)" d="M270.306 217.488L270.306 197.741M270.306 323.836L268.908 326.256L268.908 326.256L267.511 328.677L267.511 328.677L273.101 328.677L273.101 328.677L271.705 326.256L271.705 326.256L270.306 323.836z" stroke="#221E1F" stroke-width="0.493" fill="none" /><path id="121" transform="matrix(1 0 0 -1 0 538)" d="M270.306 196.566L268.908 198.986L267.511 201.407L273.101 201.407L271.705 198.986L270.306 196.566" stroke="none" fill="#221E1F" fill-rule="nonzero" /><path id="122" transform="matrix(1 0 0 -1 0 538)" d="M263.657 217.088L184.508 185.682M270.306 196.566L268.908 198.986L268.908 198.986L267.511 201.407L267.511 201.407L273.101 201.407L273.101 201.407L271.705 198.986L271.705 198.986L270.306 196.566z" stroke="#221E1F" stroke-width="0.493" fill="none" /><path id="123" transform="matrix(1 0 0 -1 0 538)" d="M183.416 185.249L185.149 187.441L186.884 189.632L187.915 187.035L188.947 184.437L186.18 184.842L183.416 185.249" stroke="none" fill="#221E1F" fill-rule="nonzero" /><path id="124" transform="matrix(1 0 0 -1 0 538)" d="M183.416 185.249L185.149 187.441L185.149 187.441L186.884 189.632L186.884 189.632L187.915 187.035L187.915 187.035L188.947 184.437L188.947 184.437L186.18 184.842L186.18 184.842L183.416 185.249z" stroke="#221E1F" stroke-width="0.493" fill="none" /><path id="125" transform="matrix(1 0 0 -1 0 538)" d="M115.584 309.827L129.159 309.827L129.159 320.448L115.584 320.448z" stroke="none" fill="#FFFFFF" fill-rule="nonzero" /><path id="129" transform="matrix(1 0 0 -1 0 538)" d="M136.255 449.887L141.476 449.887L141.476 454.921L136.255 454.921z" stroke="none" fill="#FFFFFF" fill-rule="nonzero" /><path id="132" transform="matrix(1 0 0 -1 0 538)" d="M280.937 451.005L284.852 451.005L284.852 453.988L280.937 453.988z" stroke="none" fill="#FFFFFF" fill-rule="nonzero" /></g></g><g clip-path="url(#9)"></g></g></g></svg>