<svg xmlns="http://www.w3.org/2000/svg" xmlns:xlink="http://www.w3.org/1999/xlink" id="body_6" preserveAspectRatio="xMinYMin meet" viewBox="0 0 509 717"><defs><clipPath id="1"><path id="" clip-rule="evenodd" d="M0 538L0 -0.8049927L0 -0.8049927L382.804 -0.8049927L382.804 -0.8049927L382.804 538L382.804 538L0 538z" /></clipPath><clipPath id="2"><path id="" clip-rule="evenodd" d="M70.528 457.866L325.646 457.866L325.646 457.866L325.646 464.094L325.646 464.094L70.528 464.094" /></clipPath><clipPath id="3"><path id="" clip-rule="evenodd" d="M70.528 121.944L325.646 121.944L325.646 121.944L325.646 280.684L325.646 280.684L70.528 280.684" /></clipPath><clipPath id="4"><path id="" clip-rule="evenodd" d="M325.247 122.542L70.52802 122.542L70.52802 122.542L70.52802 280.68L70.52802 280.68L325.247 280.68z" /></clipPath><clipPath id="5"><path id="" clip-rule="evenodd" d="M14.4 538L107.076 538L107.076 538L107.076 522.028L107.076 522.028L14.4 522.028z" /></clipPath></defs><g transform="matrix(1.333333 0 0 1.333333 0 0)"><g clip-path="url(#1)"><path id="20" transform="matrix(1 0 0 -1 0 538)" d="M100.292 499.606L100.292 474.775M53.52 499.606L100.292 499.606M53.52 499.606L53.52 65.90598" stroke="#221E1F" stroke-width="0.5" stroke-linecap="square" fill="none" /><path id="21" transform="matrix(1 0 0 -1 0 538)" d="M59.189 474.775L94.62199 474.775L94.62199 492.633L59.189 492.633z" stroke="none" fill="#FCC689" fill-rule="nonzero" /><path id="22" transform="matrix(1 0 0 -1 0 538)" d="M90.542 478.833L88.371 478.833L88.371 478.833L88.371 477.42L88.371 477.42L91.021 477.481L91.021 477.481L91.084 477.42L91.084 477.42L90.979 475.215L90.979 475.215L90.886 475.126L90.886 475.126L88.904 475.141C 87.673 475.141 86.994 475.111 85.863 475.038L85.863 475.038L85.808 475.128L85.808 475.128L85.85 479.246L85.85 479.246L85.777 486.05L85.777 486.05L85.841 486.147L85.841 486.147L90.843 486.147L90.843 486.147L90.895 486.082L90.895 486.082L90.823 483.88L90.823 483.88L90.76 483.801L90.76 483.801L88.35 483.801L88.35 483.801L88.35 481.146L88.35 481.146L90.635 481.221L90.635 481.221L90.698 481.097L90.698 481.097L90.61501 478.932M82.907 475.038L82.855 475.139L82.855 475.139L82.894 478.749L82.894 478.749L82.883 480.092L82.883 480.092L81.751 480.109C 81.225 480.109 80.807 480.092 80.175 480.059L80.175 480.059L80.175 475.173L80.175 475.173L80.13 475.089L80.13 475.089L77.686 475.038L77.686 475.038L77.633 475.122L77.633 475.122L77.675 481.673L77.675 481.673L77.623 484.963L77.623 484.963L77.665 485.75C 77.974 485.595 78.286 485.595 78.608 485.595C 79.116 485.595 79.577 485.905 80.13 486.216L80.13 486.216L80.175 485.284L80.175 485.284L80.175 482.387L80.175 482.387L82.883 482.387L82.883 482.387L82.829 484.974L82.829 484.974L82.894 485.75L82.894 485.75L85.383 486.216L85.383 486.216L85.436 485.595L85.436 485.595L85.394 480.421L85.394 480.421L85.436 475.14L85.436 475.14L85.383 475.038L85.383 475.038L82.907 475.038zM77.343 475.595L77.292 475.506C 76.001 475.267 75.593 475.059 74.937 475.059C 73.867 475.059 73.105 475.521 72.552 476.116C 71.479 477.278 71.225 479.109 71.225 480.487C 71.225 484.259 72.851 486.195 74.902 486.195C 75.681 486.195 76.133 485.882 77.312 485.644L77.312 485.644L77.354 485.54L77.354 485.54L77.26 483.06L77.26 483.06L76.39 482.999C 76.213 483.259 75.886 483.752 75.257 483.752C 74.557 483.752 73.724 482.999 73.724 480.625C 73.724 478.145 74.62 477.502 75.337 477.502C 75.966 477.502 76.329 477.961 77.334 478.191L77.334 478.191L77.417 478.129L77.417 478.129L77.343 475.595zM70.146 475.109L70.104 475.038L70.104 475.038L67.62 475.038L67.62 475.038L67.574 475.109L67.574 475.109L67.596 478.866L67.596 478.866L67.62 481.289L67.62 481.289L67.552 484.974L67.552 484.974L67.608 485.75C 68.726 485.595 68.967 485.595 70.084 486.216L70.084 486.216L70.126 485.44L70.126 485.44L70.074 481.119L70.074 481.119L70.146 475.109zM66.623 478.833L64.442 478.833L64.442 478.833L64.51 475.121L64.51 475.121L64.43 475.038L64.43 475.038L62.014 475.038L62.014 475.038L61.937 475.12L61.937 475.12L61.969 478.086L61.969 478.086L61.978 480.536L61.978 480.536L61.906 484.974L61.906 484.974L61.969 485.684C 64.692 485.506 65.265 485.684 66.935 486.216L66.935 486.216L67.009 485.329L67.009 485.329L66.925 483.91L66.925 483.91L66.851 483.801L66.851 483.801L64.472 483.801L64.472 483.801L64.483 481.131L64.483 481.131L66.738 481.22L66.738 481.22L66.79 481.147L66.79 481.147L66.696 478.945L66.696 478.945L66.623 478.833z" stroke="none" fill="#F7931D" fill-rule="evenodd" /><path id="24" transform="matrix(1 0 0 -1 0 538)" d="M100.292 474.774L325.542 474.774" stroke="#221E1F" stroke-width="0.5" stroke-linecap="square" fill="none" /><g clip-path="url(#2)"><path id="668" transform="matrix(1 0 0 -1 0 538)" d="M70.528 76.384L113.048 76.384" stroke="#F7931D" stroke-width="0.5" stroke-linecap="square" fill="none" /></g><path id="725" transform="matrix(1 0 0 -1 0 538)" d="M73.528 462.506L73.528 450.006" stroke="#F7931D" stroke-width="6" fill="none" /><path id="726" transform="matrix(1 0 0 -1 0 538)" d="M70.528 449.756L128.778 449.756M70.528 462.756L128.778 462.756M128.528 462.506L128.528 450.006" stroke="#F7931D" stroke-width="0.5" fill="none" /><g clip-path="url(#3)"><path id="727" transform="matrix(1 0 0 -1 0 538)" d="M70.528 416.056L325.646 416.056L325.646 257.316L70.528 257.316" stroke="none" fill="#FFFFFF" fill-rule="nonzero" /></g><path id="824" transform="matrix(1 0 0 -1 0 538)" d="M158.9518 257.5688L89.76614 257.5688L89.76614 257.5688L89.76614 271.7198L89.76614 271.7198L158.9518 271.7198L158.9518 271.7198L158.9518 257.5688zM324.7914 257.6248L270.8041 257.6248L270.8041 257.6248L270.8041 271.7748L270.8041 271.7748L324.7914 271.7748L324.7914 271.7748L324.7914 257.6248zM324.7914 333.968L257.7748 333.968L257.7748 333.968L257.7748 352.7542L257.7748 352.7542L324.7914 352.7542L324.7914 352.7542L324.7914 333.968zM156.543 328.6581L95.5789 328.6581L95.5789 328.6581L95.5789 338.8845L95.5789 338.8845L156.543 338.8845L156.543 338.8845L156.543 328.6581zM242.2038 333.7978L177.2314 333.7978L177.2314 333.7978L177.2314 352.2278L177.2314 352.2278L242.2038 352.2278L242.2038 352.2278L242.2038 333.7978zM325.0002 370.7508L223.096 370.7508L223.096 370.7508L223.096 384.9008L223.096 384.9008L325.0002 384.9008L325.0002 384.9008L325.0002 370.7508zM177.5571 370.3685L75.65285 370.3685L75.65285 370.3685L75.65285 384.5185L75.65285 384.5185L177.5571 384.5185L177.5571 384.5185L177.5571 370.3685zM276.1552 395.7788L276.1552 391.1315M119.1996 395.7538L119.1996 391.1175M197.8768 402.8863L197.8768 395.7538M253.4407 403.2427L141.1918 403.2427L141.1918 403.2427L141.1918 415.2067L141.1918 415.2067L253.4407 415.2067L253.4407 415.2067L253.4407 403.2427z" stroke="#221E1F" stroke-width="0.4985509" fill="none" /><path id="825" transform="matrix(1 0 0 -1 0 538)" d="M265.82 271.768L198.8763 271.768L198.8763 271.768L198.8763 291.2699L198.8763 291.2699L265.82 291.2699z" stroke="#221E1F" stroke-width="0.9961027" stroke-dasharray="2.001003,2.001003" fill="none" /><g clip-path="url(#4)"><path id="826" transform="matrix(1 0 0 -1 0 538)" d="M230.2779 271.6559L230.2779 265.0568M213.7508 302.0411L213.7508 295.6202M308.4474 300.6849L308.4474 274.1492M253.5659 302.995L246.6921 294.1959M274.9896 333.9348L266.3434 322.8695M164.5391 302.3294L147.2107 280.1518M186.2426 333.6125L177.5963 322.5472M214.1064 333.4503L214.1064 321.7284M308.4474 334.211L308.4474 323.1548M210.0131 363.4312L296.4772 363.4312M124.678 355.4838L124.678 347.3702M124.3223 370.0793L124.3223 365.4431M210.2659 363.5883L210.2659 358.952M296.2734 363.6594L296.2734 358.6667M276.0516 370.793L276.0516 363.6594M70.77755 264.3661L70.77755 377.7475M70.54976 378.1749L75.17859 378.1749M70.54976 264.6524L84.43425 264.6524M119.129 395.53L276.1995 395.53" stroke="#221E1F" stroke-width="0.4985509" fill="none" /></g><path id="827" transform="matrix(1 0 0 -1 0 538)" d="M124.749 342.604L123.518 345.072L122.286 347.539L127.212 347.539L125.98 345.072L124.749 342.604" stroke="none" fill="#221E1F" fill-rule="nonzero" /><path id="828" transform="matrix(1 0 0 -1 0 538)" d="M124.75 342.606L123.5191 345.0742L123.5191 345.0742L122.2872 347.5415L122.2872 347.5415L127.2128 347.5415L127.2128 347.5415L125.9819 345.0742L125.9819 345.0742L124.75 342.606z" stroke="#221E1F" stroke-width="0.4985509" fill="none" /><path id="829" transform="matrix(1 0 0 -1 0 538)" d="M89.192 264.646L84.266 262.178L84.266 267.113L89.192 264.646" stroke="none" fill="#221E1F" fill-rule="nonzero" /><path id="830" transform="matrix(1 0 0 -1 0 538)" d="M230.0377 265.3126L164.6646 265.3126M89.1926 264.648L84.26704 262.1797L84.26704 262.1797L84.26704 267.1153L84.26704 267.1153L89.1926 264.648z" stroke="#221E1F" stroke-width="0.4985509" fill="none" /><path id="831" transform="matrix(1 0 0 -1 0 538)" d="M159.907 265.312L162.37 266.545L164.833 267.779L164.833 262.844L159.907 265.312" stroke="none" fill="#221E1F" fill-rule="nonzero" /><path id="832" transform="matrix(1 0 0 -1 0 538)" d="M159.908 265.314L164.8346 267.7813L164.8346 267.7813L164.8346 262.8467L164.8346 262.8467L159.908 265.314z" stroke="#221E1F" stroke-width="0.4985509" fill="none" /><path id="833" transform="matrix(1 0 0 -1 0 538)" d="M213.823 292.235L212.592 294.702L211.359 297.169L216.286 297.169L215.053 294.702L213.823 292.235" stroke="none" fill="#221E1F" fill-rule="nonzero" /><path id="834" transform="matrix(1 0 0 -1 0 538)" d="M213.824 292.237L212.5931 294.7033L212.5931 294.7033L211.3602 297.1705L211.3602 297.1705L216.2868 297.1705L216.2868 297.1705L215.0549 294.7033L215.0549 294.7033L213.824 292.237z" stroke="#221E1F" stroke-width="0.4985509" fill="none" /><path id="835" transform="matrix(1 0 0 -1 0 538)" d="M245.458 292.322L245.887 295.046L246.314 297.772L250.324 294.905L245.458 292.322" stroke="none" fill="#221E1F" fill-rule="nonzero" /><path id="836" transform="matrix(1 0 0 -1 0 538)" d="M266.0235 283.3548L273.234 274.5567M245.46 292.324L245.8886 295.0485L245.8886 295.0485L246.3162 297.774L246.3162 297.774L250.3266 294.9074L250.3266 294.9074L245.46 292.324z" stroke="#221E1F" stroke-width="0.4985509" fill="none" /><path id="837" transform="matrix(1 0 0 -1 0 538)" d="M274.524 272.687L274.074 275.411L273.627 278.137L269.419 275.272L271.973 273.98L274.524 272.687" stroke="none" fill="#221E1F" fill-rule="nonzero" /><path id="838" transform="matrix(1 0 0 -1 0 538)" d="M274.526 272.689L274.0764 275.4135L274.0764 275.4135L273.6288 278.139L273.6288 278.139L269.4216 275.2734L269.4216 275.2734L271.9743 273.9812L271.9743 273.9812L274.526 272.689z" stroke="#221E1F" stroke-width="0.4985509" fill="none" /><path id="839" transform="matrix(1 0 0 -1 0 538)" d="M146.467 279.343L146.895 282.067L147.323 284.793L151.333 281.927L146.467 279.343" stroke="none" fill="#221E1F" fill-rule="nonzero" /><path id="840" transform="matrix(1 0 0 -1 0 538)" d="M146.468 279.346L146.8966 282.0705L146.8966 282.0705L147.3232 284.796L147.3232 284.796L151.3346 281.9294L151.3346 281.9294L146.468 279.346z" stroke="#221E1F" stroke-width="0.4985509" fill="none" /><path id="841" transform="matrix(1 0 0 -1 0 538)" d="M119.127 385.935L117.896 388.403L116.663 390.87L121.59 390.87L120.358 388.403L119.127 385.935" stroke="none" fill="#221E1F" fill-rule="nonzero" /><path id="842" transform="matrix(1 0 0 -1 0 538)" d="M119.128 385.938L117.8971 388.4063L117.8971 388.4063L116.6642 390.8735L116.6642 390.8735L121.5908 390.8735L121.5908 390.8735L120.3589 388.4063L120.3589 388.4063L119.128 385.938z" stroke="#221E1F" stroke-width="0.4985509" fill="none" /><path id="843" transform="matrix(1 0 0 -1 0 538)" d="M276.123 386.292L273.66 391.227L278.586 391.227L277.354 388.76L276.123 386.292" stroke="none" fill="#221E1F" fill-rule="nonzero" /><path id="844" transform="matrix(1 0 0 -1 0 538)" d="M276.125 386.295L273.6612 391.2296L273.6612 391.2296L278.5878 391.2296L278.5878 391.2296L277.3559 388.7623L277.3559 388.7623L276.125 386.295z" stroke="#221E1F" stroke-width="0.4985509" fill="none" /><path id="845" transform="matrix(1 0 0 -1 0 538)" d="M296.386 353.679L293.923 358.614L298.849 358.614L297.617 356.147L296.386 353.679" stroke="none" fill="#221E1F" fill-rule="nonzero" /><path id="846" transform="matrix(1 0 0 -1 0 538)" d="M296.388 353.682L293.9252 358.6176L293.9252 358.6176L298.8508 358.6176L298.8508 358.6176L297.6189 356.1503L297.6189 356.1503L296.388 353.682z" stroke="#221E1F" stroke-width="0.4985509" fill="none" /><path id="847" transform="matrix(1 0 0 -1 0 538)" d="M308.345 272.479L307.113 274.947L305.881 277.414L310.807 277.414L309.576 274.947L308.345 272.479" stroke="none" fill="#221E1F" fill-rule="nonzero" /><path id="848" transform="matrix(1 0 0 -1 0 538)" d="M308.347 272.481L307.1151 274.9492L307.1151 274.9492L305.8832 277.4155L305.8832 277.4155L310.8088 277.4155L310.8088 277.4155L309.5779 274.9492L309.5779 274.9492L308.347 272.481z" stroke="#221E1F" stroke-width="0.4985509" fill="none" /><path id="849" transform="matrix(1 0 0 -1 0 538)" d="M210.019 353.679L207.555 358.614L212.481 358.614L211.249 356.147L210.019 353.679" stroke="none" fill="#221E1F" fill-rule="nonzero" /><path id="850" transform="matrix(1 0 0 -1 0 538)" d="M210.02 353.682L207.5572 358.6176L207.5572 358.6176L212.4828 358.6176L212.4828 358.6176L211.2509 356.1503L211.2509 356.1503L210.02 353.682z" stroke="#221E1F" stroke-width="0.4985509" fill="none" /><g clip-path="url(#5)"></g></g></g></svg>