<svg xmlns="http://www.w3.org/2000/svg" xmlns:xlink="http://www.w3.org/1999/xlink" id="body_1" preserveAspectRatio="xMinYMin meet" viewBox="0 0 509 717"><defs><clipPath id="1"><path id="" clip-rule="evenodd" d="M0 538L0 -0.8049927L0 -0.8049927L382.804 -0.8049927L382.804 -0.8049927L382.804 538L382.804 538L0 538z" /></clipPath></defs><g transform="matrix(1.333333 0 0 1.333333 0 0)"><g clip-path="url(#1)"><path id="1" transform="matrix(1 0 0 -1 0 538)" d="M328.921 65.246L367.756 65.246L367.756 499.991L328.921 499.991z" stroke="none" fill="#FCC688" fill-rule="nonzero" /><path id="2" transform="matrix(1 0 0 -1 0 538)" d="M328.921 499.991L367.756 499.991L367.756 499.991L367.756 65.246L367.756 65.246L328.921 65.246z" stroke="#FCC688" stroke-width="0.5" fill="none" /><path id="3" transform="matrix(1 0 0 -1 0 538)" d="M55.937 475.255L281.37 475.255L281.37 475.255L281.37 499.991L281.37 499.991L328.663 499.991L328.663 499.991L328.663 65.21201L328.663 65.21201L55.938 65.21201" stroke="none" fill="#FCC688" fill-rule="evenodd" /><path id="4" transform="matrix(1 0 0 -1 0 538)" d="M55.937 475.255L281.37 475.255L281.37 475.255L281.37 499.991L281.37 499.991L328.663 499.991L328.663 499.991L328.663 65.21201L328.663 65.21201L55.938 65.21201z" stroke="#FCC688" stroke-width="0.5" fill="none" /><path id="5" transform="matrix(1 0 0 -1 0 538)" d="M56.35501 474.774L281.605 474.774M281.231 499.606L281.231 474.775M281.708 499.606L372.737 499.606" stroke="#221E1F" stroke-width="0.5" stroke-linecap="square" fill="none" /></g></g></svg>