<svg xmlns="http://www.w3.org/2000/svg" xmlns:xlink="http://www.w3.org/1999/xlink" id="body_2" preserveAspectRatio="xMinYMin meet" viewBox="0 0 509 717"><defs><clipPath id="1"><path id="" clip-rule="evenodd" d="M0 538L0 -0.8049927L0 -0.8049927L382.804 -0.8049927L382.804 -0.8049927L382.804 538L382.804 538L0 538z" /></clipPath><clipPath id="2"><path id="" clip-rule="evenodd" d="M70.528 468.632L325.646 468.632L325.646 468.632L325.646 471.143L325.646 471.143L70.528 471.143" /></clipPath><clipPath id="3"><path id="" clip-rule="evenodd" d="M70.528 180.668L325.646 180.668L325.646 180.668L325.646 455.632L325.646 455.632L70.528 455.632" /></clipPath><clipPath id="4"><path id="" clip-rule="evenodd" d="M326.361 186.639L70.96899 186.639L70.96899 186.639L70.96899 453.964L70.96899 453.964L326.361 453.964z" /></clipPath><clipPath id="5"><path id="" clip-rule="evenodd" d="M70.528 180.668L325.646 180.668L325.646 180.668L325.646 455.632L325.646 455.632L70.528 455.632" /></clipPath><clipPath id="6"><path id="" clip-rule="evenodd" d="M14.4 538L107.076 538L107.076 538L107.076 522.028L107.076 522.028L14.4 522.028z" /></clipPath></defs><g transform="matrix(1.333333 0 0 1.333333 0 0)"><g clip-path="url(#1)"><path id="7" transform="matrix(1 0 0 -1 0 538)" d="M100.292 499.606L100.292 474.775M53.52 499.606L100.292 499.606M53.52 499.606L53.52 65.90598" stroke="#221E1F" stroke-width="0.5" stroke-linecap="square" fill="none" /><path id="8" transform="matrix(1 0 0 -1 0 538)" d="M59.189 474.775L94.62199 474.775L94.62199 492.633L59.189 492.633z" stroke="none" fill="#FCC689" fill-rule="nonzero" /><path id="9" transform="matrix(1 0 0 -1 0 538)" d="M90.542 478.833L88.371 478.833L88.371 478.833L88.371 477.42L88.371 477.42L91.021 477.481L91.021 477.481L91.084 477.42L91.084 477.42L90.979 475.215L90.979 475.215L90.886 475.126L90.886 475.126L88.904 475.141C 87.673 475.141 86.994 475.111 85.863 475.038L85.863 475.038L85.808 475.128L85.808 475.128L85.85 479.246L85.85 479.246L85.777 486.05L85.777 486.05L85.841 486.147L85.841 486.147L90.843 486.147L90.843 486.147L90.895 486.082L90.895 486.082L90.823 483.88L90.823 483.88L90.76 483.801L90.76 483.801L88.35 483.801L88.35 483.801L88.35 481.146L88.35 481.146L90.635 481.221L90.635 481.221L90.698 481.097L90.698 481.097L90.61501 478.932M82.907 475.038L82.855 475.139L82.855 475.139L82.894 478.749L82.894 478.749L82.883 480.092L82.883 480.092L81.751 480.109C 81.225 480.109 80.807 480.092 80.175 480.059L80.175 480.059L80.175 475.173L80.175 475.173L80.13 475.089L80.13 475.089L77.686 475.038L77.686 475.038L77.633 475.122L77.633 475.122L77.675 481.673L77.675 481.673L77.623 484.963L77.623 484.963L77.665 485.75C 77.974 485.595 78.286 485.595 78.608 485.595C 79.116 485.595 79.577 485.905 80.13 486.216L80.13 486.216L80.175 485.284L80.175 485.284L80.175 482.387L80.175 482.387L82.883 482.387L82.883 482.387L82.829 484.974L82.829 484.974L82.894 485.75L82.894 485.75L85.383 486.216L85.383 486.216L85.436 485.595L85.436 485.595L85.394 480.421L85.394 480.421L85.436 475.14L85.436 475.14L85.383 475.038L85.383 475.038L82.907 475.038zM77.343 475.595L77.292 475.506C 76.001 475.267 75.593 475.059 74.937 475.059C 73.867 475.059 73.105 475.521 72.552 476.116C 71.479 477.278 71.225 479.109 71.225 480.487C 71.225 484.259 72.851 486.195 74.902 486.195C 75.681 486.195 76.133 485.882 77.312 485.644L77.312 485.644L77.354 485.54L77.354 485.54L77.26 483.06L77.26 483.06L76.39 482.999C 76.213 483.259 75.886 483.752 75.257 483.752C 74.557 483.752 73.724 482.999 73.724 480.625C 73.724 478.145 74.62 477.502 75.337 477.502C 75.966 477.502 76.329 477.961 77.334 478.191L77.334 478.191L77.417 478.129L77.417 478.129L77.343 475.595zM70.146 475.109L70.104 475.038L70.104 475.038L67.62 475.038L67.62 475.038L67.574 475.109L67.574 475.109L67.596 478.866L67.596 478.866L67.62 481.289L67.62 481.289L67.552 484.974L67.552 484.974L67.608 485.75C 68.726 485.595 68.967 485.595 70.084 486.216L70.084 486.216L70.126 485.44L70.126 485.44L70.074 481.119L70.074 481.119L70.146 475.109zM66.623 478.833L64.442 478.833L64.442 478.833L64.51 475.121L64.51 475.121L64.43 475.038L64.43 475.038L62.014 475.038L62.014 475.038L61.937 475.12L61.937 475.12L61.969 478.086L61.969 478.086L61.978 480.536L61.978 480.536L61.906 484.974L61.906 484.974L61.969 485.684C 64.692 485.506 65.265 485.684 66.935 486.216L66.935 486.216L67.009 485.329L67.009 485.329L66.925 483.91L66.925 483.91L66.851 483.801L66.851 483.801L64.472 483.801L64.472 483.801L64.483 481.131L64.483 481.131L66.738 481.22L66.738 481.22L66.79 481.147L66.79 481.147L66.696 478.945L66.696 478.945L66.623 478.833z" stroke="none" fill="#F7931D" fill-rule="evenodd" /><path id="11" transform="matrix(1 0 0 -1 0 538)" d="M100.292 474.774L325.542 474.774" stroke="#221E1F" stroke-width="0.5" stroke-linecap="square" fill="none" /><path id="21" transform="matrix(1 0 0 -1 0 538)" d="M70.528 462.756L325.646 462.756L325.646 363.333L70.528 363.333" stroke="none" fill="#FEE6CB" fill-rule="nonzero" /><g clip-path="url(#2)"><path id="582" transform="matrix(1 0 0 -1 0 538)" d="M70.528 68.368L524.071 68.368" stroke="#F7931D" stroke-width="0.4" stroke-linecap="square" fill="none" /></g><g clip-path="url(#3)"><path id="612" transform="matrix(1 0 0 -1 0 538)" d="M70.969 84.036L325.646 84.036L325.646 352.036L70.969 352.036z" stroke="none" fill="#FFFFFF" fill-rule="nonzero" /></g><g clip-path="url(#4)"><g clip-path="url(#5)"><path id="792" transform="matrix(1 0 0 -1 0 538)" d="M247.317 315.959L243.999 315.066L240.685 314.171L242.451 320.809L244.884 318.385L247.317 315.959" stroke="none" fill="#221E1F" fill-rule="nonzero" /><path id="793" transform="matrix(1 0 0 -1 0 538)" d="M247.317 315.959L243.999 315.066L243.999 315.066L240.685 314.171L240.685 314.171L242.451 320.809L242.451 320.809L244.884 318.385L244.884 318.385L247.317 315.959z" stroke="#221E1F" stroke-width="0.5" fill="none" /><path id="794" transform="matrix(1 0 0 -1 0 538)" d="M242.795 316.982L210.906 318.474" stroke="#221E1F" stroke-width="1" fill="none" /><path id="795" transform="matrix(1 0 0 -1 0 538)" d="M155.698 313.613L158.016 316.149L160.33 318.685L161.369 315.411L162.407 312.137L155.698 313.613" stroke="none" fill="#221E1F" fill-rule="nonzero" /><path id="796" transform="matrix(1 0 0 -1 0 538)" d="M155.698 313.613L158.016 316.149L158.016 316.149L160.33 318.685L160.33 318.685L161.369 315.411L161.369 315.411L162.407 312.137L162.407 312.137L155.698 313.613z" stroke="#221E1F" stroke-width="0.5" fill="none" /><path id="797" transform="matrix(1 0 0 -1 0 538)" d="M193.242 230.22L193.242 254.84L193.242 254.84L71.469 254.84L71.469 254.84L71.469 230.113L71.469 230.113L193.242 230.113L193.242 230.113L193.242 230.22zM193.242 268.443L193.242 293.062L193.242 293.062L71.469 293.062L71.469 293.062L71.469 268.335L71.469 268.335L193.242 268.335L193.242 268.335L193.242 268.443zM160.061 315.18L191.518 318.157" stroke="#221E1F" stroke-width="1" fill="none" /><path id="798" transform="matrix(1 0 0 -1 0 538)" d="M134.624 129.368L132.907 132.341L131.19 135.316L138.058 135.316L136.342 132.341L134.624 129.368" stroke="none" fill="#221E1F" fill-rule="nonzero" /><path id="799" transform="matrix(1 0 0 -1 0 538)" d="M134.624 129.368L132.907 132.341L132.907 132.341L131.19 135.316L131.19 135.316L138.058 135.316L138.058 135.316L136.342 132.341L136.342 132.341L134.624 129.368z" stroke="#221E1F" stroke-width="0.5" fill="none" /><path id="800" transform="matrix(1 0 0 -1 0 538)" d="M325.427 180.397L325.427 223.269L325.427 223.269L202.987 223.269L202.987 223.269L202.987 180.21L202.987 180.21L325.427 180.21L325.427 180.21L325.427 180.397zM325.177 229.975L325.177 294.254L325.177 294.254L202.737 294.254L202.737 294.254L202.737 229.694L202.737 229.694L325.177 229.694L325.177 229.694L325.177 229.975zM134.625 129.368L134.624 230.236" stroke="#221E1F" stroke-width="1" fill="none" /><path id="801" transform="matrix(1 0 0 -1 0 538)" d="M265.956 129.868L262.523 135.816L269.391 135.816L267.674 132.841L265.956 129.868" stroke="none" fill="#221E1F" fill-rule="nonzero" /><path id="802" transform="matrix(1 0 0 -1 0 538)" d="M265.956 129.868L262.523 135.816L262.523 135.816L269.391 135.816L269.391 135.816L267.674 132.841L267.674 132.841L265.956 129.868z" stroke="#221E1F" stroke-width="0.5" fill="none" /><path id="803" transform="matrix(1 0 0 -1 0 538)" d="M265.957 129.868L265.956 179.736" stroke="#221E1F" stroke-width="1" fill="none" /><path id="1146" transform="matrix(1 0 0 -1 0 538)" d="M325.861 147.131L325.861 170.256L71.46899 170.256L71.46899 147.029L325.861 147.029L325.861 147.131" stroke="none" fill="#FFFFFF" fill-rule="nonzero" /><path id="1147" transform="matrix(1 0 0 -1 0 538)" d="M325.861 147.131L325.861 170.256L325.861 170.256L71.46899 170.256L71.46899 170.256L71.46899 147.029L71.46899 147.029L325.861 147.029L325.861 147.029L325.861 147.131z" stroke="#221E1F" stroke-width="1" fill="none" /></g></g><g clip-path="url(#6)"></g></g></g></svg>