<svg xmlns="http://www.w3.org/2000/svg" xmlns:xlink="http://www.w3.org/1999/xlink" id="body_1" preserveAspectRatio="xMinYMin meet" viewBox="0 0 509 717"><defs><clipPath id="1"><path id="" clip-rule="evenodd" d="M0 538L0 -0.8049927L0 -0.8049927L382.804 -0.8049927L382.804 -0.8049927L382.804 538L382.804 538L0 538z" /></clipPath></defs><g transform="matrix(1.333333 0 0 1.333333 0 0)"><g clip-path="url(#1)"><path id="1" transform="matrix(1 0 0 -1 0 538)" d="M100.292 499.606L100.292 474.775" stroke="#221E1F" stroke-width="0.5" stroke-linecap="square" fill="none" /><path id="2" transform="matrix(1 0 0 -1 0 538)" d="M59.248 465.591L326.8 465.591L326.8 486L59.248 486z" stroke="none" fill="#F7931D" fill-rule="nonzero" /><path id="3" transform="matrix(1 0 0 -1 0 538)" d="M59.189 474.775L94.62199 474.775L94.62199 494.883L59.189 494.883z" stroke="none" fill="#F7931D" fill-rule="nonzero" /><path id="4" transform="matrix(1 0 0 -1 0 538)" d="M53.52 499.606L100.292 499.606M53.52 499.606L53.52 65.90598" stroke="#221E1F" stroke-width="0.5" stroke-linecap="square" fill="none" /><path id="21" transform="matrix(1 0 0 -1 0 538)" d="M90.542 471.716L88.371 471.716L88.371 471.716L88.371 469.724L88.371 469.724L91.021 469.81L91.021 469.81L91.084 469.724L91.084 469.724L90.979 466.614L90.979 466.614L90.886 466.488L90.886 466.488L88.904 466.51C 87.673 466.51 86.994 466.468 85.863 466.365L85.863 466.365L85.808 466.492L85.808 466.492L85.85 472.299L85.85 472.299L85.777 481.894L85.777 481.894L85.841 482.031L85.841 482.031L90.843 482.031L90.843 482.031L90.895 481.939L90.895 481.939L90.823 478.834L90.823 478.834L90.76 478.723L90.76 478.723L88.35 478.723L88.35 478.723L88.35 474.978L88.35 474.978L90.635 475.084L90.635 475.084L90.698 474.909L90.698 474.909L90.61501 471.856M82.907 466.365L82.855 466.507L82.855 466.507L82.894 471.598L82.894 471.598L82.883 473.492L82.883 473.492L81.751 473.516C 81.225 473.516 80.807 473.492 80.175 473.445L80.175 473.445L80.175 466.555L80.175 466.555L80.13 466.437L80.13 466.437L77.686 466.365L77.686 466.365L77.633 466.483L77.633 466.483L77.675 475.722L77.675 475.722L77.623 480.362L77.623 480.362L77.665 481.471C 77.974 481.253 78.286 481.253 78.608 481.253C 79.116 481.253 79.577 481.69 80.13 482.129L80.13 482.129L80.175 480.814L80.175 480.814L80.175 476.729L80.175 476.729L82.883 476.729L82.883 476.729L82.829 480.377L82.829 480.377L82.894 481.471L82.894 481.471L85.383 482.129L85.383 482.129L85.436 481.253L85.436 481.253L85.394 473.956L85.394 473.956L85.436 466.508L85.436 466.508L85.383 466.365L85.383 466.365L82.907 466.365zM77.343 467.15L77.292 467.025C 76.001 466.687 75.593 466.394 74.937 466.394C 73.867 466.394 73.105 467.046 72.552 467.885C 71.479 469.524 71.225 472.106 71.225 474.049C 71.225 479.369 72.851 482.099 74.902 482.099C 75.681 482.099 76.133 481.658 77.312 481.322L77.312 481.322L77.354 481.175L77.354 481.175L77.26 477.677L77.26 477.677L76.39 477.591C 76.213 477.958 75.886 478.654 75.257 478.654C 74.557 478.654 73.724 477.591 73.724 474.243C 73.724 470.746 74.62 469.84 75.337 469.84C 75.966 469.84 76.329 470.487 77.334 470.811L77.334 470.811L77.417 470.724L77.417 470.724L77.343 467.15zM70.146 466.465L70.104 466.365L70.104 466.365L67.62 466.365L67.62 466.365L67.574 466.465L67.574 466.465L67.596 471.763L67.596 471.763L67.62 475.18L67.62 475.18L67.552 480.377L67.552 480.377L67.608 481.471C 68.726 481.253 68.967 481.253 70.084 482.129L70.084 482.129L70.126 481.034L70.126 481.034L70.074 474.94L70.074 474.94L70.146 466.465zM66.623 471.716L64.442 471.716L64.442 471.716L64.51 466.482L64.51 466.482L64.43 466.365L64.43 466.365L62.014 466.365L62.014 466.365L61.937 466.48L61.937 466.48L61.969 470.663L61.969 470.663L61.978 474.118L61.978 474.118L61.906 480.377L61.906 480.377L61.969 481.378C 64.692 481.127 65.265 481.378 66.935 482.129L66.935 482.129L67.009 480.877L67.009 480.877L66.925 478.876L66.925 478.876L66.851 478.723L66.851 478.723L64.472 478.723L64.472 478.723L64.483 474.958L64.483 474.958L66.738 475.083L66.738 475.083L66.79 474.98L66.79 474.98L66.696 471.875L66.696 471.875L66.623 471.716z" stroke="none" fill="#FCBB74" fill-rule="evenodd" /><path id="446" transform="matrix(1 0 0 -1 0 538)" d="M70.528 457.086L124.805 457.086L124.805 445.747L70.528 445.747" stroke="none" fill="#F7931D" fill-rule="nonzero" /><path id="456" transform="matrix(1 0 0 -1 0 538)" d="M70.528 445.748L326.093 445.748L326.093 334.41L70.528 334.41" stroke="none" fill="#FCBB74" fill-rule="nonzero" /><path id="894" transform="matrix(1 0 0 -1 0 538)" d="M70.528 151.706L198.087 151.706L198.087 182.306L70.528 182.306z" stroke="none" fill="#FEE6CB" fill-rule="nonzero" /><path id="982" transform="matrix(1 0 0 -1 0 538)" d="M198.087 151.706L325.646 151.706L325.646 182.306L198.087 182.306z" stroke="none" fill="#FEE6CB" fill-rule="nonzero" /><path id="1364" transform="matrix(1 0 0 -1 0 538)" d="M73.528 322.159L73.528 309.659" stroke="#F7931D" stroke-width="6" fill="none" /><path id="1365" transform="matrix(1 0 0 -1 0 538)" d="M70.278 65.90601L325.896 65.90601M70.278 151.706L325.896 151.706M70.278 182.306L325.896 182.306M70.278 195.506L325.896 195.506M325.645 195.256L325.645 66.15601M198.087 182.556L198.087 65.65601M70.528 195.256L70.528 66.15601M70.528 309.409L122.778 309.409M70.528 322.409L122.778 322.409M122.528 322.159L122.528 309.659" stroke="#F7931D" stroke-width="0.5" fill="none" /><path id="1366" transform="matrix(1 0 0 -1 0 538)" d="M70.228 213.243L84.228 213.243L84.228 234.243L70.228 234.243z" stroke="none" fill="#FFFFFF" fill-rule="nonzero" /><g transform="matrix(0.3371429 0 0 0.3403279 70.228 303.997)"><g transform="matrix(1 0 0 1 0 0)"><image x="0" y="0" xlink:href="img_01.png" width="42" height="61" /></g></g></g></g></svg>