<svg xmlns="http://www.w3.org/2000/svg" xmlns:xlink="http://www.w3.org/1999/xlink" id="body_1" preserveAspectRatio="xMinYMin meet" viewBox="0 0 509 717"><defs><clipPath id="1"><path id="" clip-rule="evenodd" d="M0 538L0 -0.8049927L0 -0.8049927L382.804 -0.8049927L382.804 -0.8049927L382.804 538L382.804 538L0 538z" /></clipPath></defs><g transform="matrix(1.333333 0 0 1.333333 0 0)"><g clip-path="url(#1)"><path id="1" transform="matrix(1 0 0 -1 0 538)" d="M281.708 499.606L281.708 474.775" stroke="#221E1F" stroke-width="0.5" stroke-linecap="square" fill="none" /><path id="2" transform="matrix(1 0 0 -1 0 538)" d="M56.355 465.591L322.641 465.591L322.641 486L56.355 486z" stroke="none" fill="#F7931D" fill-rule="nonzero" /><path id="6" transform="matrix(1 0 0 -1 0 538)" d="M281.708 499.606L328.48 499.606" stroke="#221E1F" stroke-width="0.5" stroke-linecap="square" fill="none" /><path id="7" transform="matrix(1 0 0 -1 0 538)" d="M287.378 474.775L322.811 474.775L322.811 494.883L287.378 494.883z" stroke="none" fill="#F7931D" fill-rule="nonzero" /><path id="8" transform="matrix(1 0 0 -1 0 538)" d="M318.73 471.716L316.559 471.716L316.559 471.716L316.559 469.724L316.559 469.724L319.209 469.81L319.209 469.81L319.272 469.724L319.272 469.724L319.167 466.614L319.167 466.614L319.074 466.488L319.074 466.488L317.092 466.51C 315.861 466.51 315.182 466.468 314.051 466.365L314.051 466.365L313.996 466.492L313.996 466.492L314.038 472.299L314.038 472.299L313.965 481.894L313.965 481.894L314.029 482.031L314.029 482.031L319.032 482.031L319.032 482.031L319.083 481.939L319.083 481.939L319.011 478.834L319.011 478.834L318.948 478.723L318.948 478.723L316.538 478.723L316.538 478.723L316.538 474.978L316.538 474.978L318.824 475.084L318.824 475.084L318.886 474.909L318.886 474.909L318.803 471.856M311.095 466.365L311.043 466.507L311.043 466.507L311.082 471.598L311.082 471.598L311.071 473.492L311.071 473.492L309.939 473.516C 309.413 473.516 308.995 473.492 308.363 473.445L308.363 473.445L308.363 466.555L308.363 466.555L308.318 466.437L308.318 466.437L305.874 466.365L305.874 466.365L305.822 466.483L305.822 466.483L305.863 475.722L305.863 475.722L305.811 480.362L305.811 480.362L305.853 481.471C 306.162 481.253 306.474 481.253 306.796 481.253C 307.304 481.253 307.765 481.69 308.318 482.129L308.318 482.129L308.363 480.814L308.363 480.814L308.363 476.729L308.363 476.729L311.071 476.729L311.071 476.729L311.017 480.377L311.017 480.377L311.082 481.471L311.082 481.471L313.572 482.129L313.572 482.129L313.624 481.253L313.624 481.253L313.582 473.956L313.582 473.956L313.624 466.508L313.624 466.508L313.572 466.365L313.572 466.365L311.095 466.365zM305.531 467.15L305.48 467.025C 304.189 466.687 303.781 466.394 303.125 466.394C 302.055 466.394 301.293 467.046 300.741 467.885C 299.667 469.524 299.413 472.106 299.413 474.049C 299.413 479.369 301.039 482.099 303.09 482.099C 303.869 482.099 304.322 481.658 305.5 481.322L305.5 481.322L305.542 481.175L305.542 481.175L305.449 477.677L305.449 477.677L304.578 477.591C 304.401 477.958 304.074 478.654 303.445 478.654C 302.745 478.654 301.912 477.591 301.912 474.243C 301.912 470.746 302.808 469.84 303.525 469.84C 304.154 469.84 304.517 470.487 305.522 470.811L305.522 470.811L305.605 470.724L305.605 470.724L305.531 467.15zM298.334 466.465L298.292 466.365L298.292 466.365L295.808 466.365L295.808 466.365L295.762 466.465L295.762 466.465L295.784 471.763L295.784 471.763L295.808 475.18L295.808 475.18L295.74 480.377L295.74 480.377L295.796 481.471C 296.914 481.253 297.155 481.253 298.272 482.129L298.272 482.129L298.314 481.034L298.314 481.034L298.262 474.94L298.262 474.94L298.334 466.465zM294.811 471.716L292.63 471.716L292.63 471.716L292.698 466.482L292.698 466.482L292.618 466.365L292.618 466.365L290.202 466.365L290.202 466.365L290.125 466.48L290.125 466.48L290.156 470.663L290.156 470.663L290.166 474.118L290.166 474.118L290.094 480.377L290.094 480.377L290.156 481.378C 292.88 481.127 293.453 481.378 295.123 482.129L295.123 482.129L295.197 480.877L295.197 480.877L295.113 478.876L295.113 478.876L295.039 478.723L295.039 478.723L292.66 478.723L292.66 478.723L292.671 474.958L292.671 474.958L294.926 475.083L294.926 475.083L294.978 474.98L294.978 474.98L294.884 471.875L294.884 471.875L294.811 471.716z" stroke="none" fill="#FCBB74" fill-rule="evenodd" /><path id="9" transform="matrix(1 0 0 -1 0 538)" d="M328.48 390.473L367.315 390.473L367.315 525.118L328.48 525.118z" stroke="none" fill="#F7931D" fill-rule="nonzero" /><path id="10" transform="matrix(1 0 0 -1 0 538)" d="M328.48 525.118L367.315 525.118L367.315 525.118L367.315 390.473L367.315 390.473L328.48 390.473z" stroke="#F7931D" stroke-width="0.5" fill="none" /><path id="27" transform="matrix(1 0 0 -1 0 538)" d="M328.48 499.606L328.48 65.90598" stroke="#221E1F" stroke-width="0.5" stroke-linecap="square" fill="none" /><path id="367" transform="matrix(1 0 0 -1 0 538)" d="M56.355 445.747L110.632 445.747L110.632 457.086L56.355 457.086z" stroke="none" fill="#F7931D" fill-rule="nonzero" /><path id="377" transform="matrix(1 0 0 -1 0 538)" d="M56.355 422.913L311.92 422.913L311.92 445.748L56.355 445.748z" stroke="none" fill="#FCBB74" fill-rule="nonzero" /><path id="1970" transform="matrix(1 0 0 -1 0 538)" d="M59.355 410.663L59.355 398.163" stroke="#F7931D" stroke-width="6" fill="none" /><path id="1971" transform="matrix(1 0 0 -1 0 538)" d="M56.105 66.164L311.723 66.164M56.105 94.51401L311.723 94.51401M56.105 122.864L311.723 122.864M56.105 160.414L311.723 160.414M56.105 170.364L311.723 170.364M56.105 217.114L311.723 217.114M56.105 254.663L311.723 254.663M56.105 273.813L311.723 273.813M56.105 329.763L311.723 329.763M56.105 340.713L311.723 340.713M311.472 340.463L311.472 66.414M90.677 330.013L90.677 65.914M56.355 340.463L56.355 66.414M56.355 397.913L108.605 397.913M56.355 410.913L108.605 410.913M108.355 410.663L108.355 398.163" stroke="#F7931D" stroke-width="0.5" fill="none" /></g></g></svg>