<svg xmlns="http://www.w3.org/2000/svg" xmlns:xlink="http://www.w3.org/1999/xlink" id="body_3" preserveAspectRatio="xMinYMin meet" viewBox="0 0 509 717"><defs><clipPath id="1"><path id="" clip-rule="evenodd" d="M0 538L0 -0.8049927L0 -0.8049927L382.804 -0.8049927L382.804 -0.8049927L382.804 538L382.804 538L0 538z" /></clipPath><clipPath id="2"><path id="" clip-rule="evenodd" d="M14.4 538L107.076 538L107.076 538L107.076 522.028L107.076 522.028L14.4 522.028z" /></clipPath></defs><g transform="matrix(1.333333 0 0 1.333333 0 0)"><g clip-path="url(#1)"><path id="9" transform="matrix(1 0 0 -1 0 538)" d="M100.292 499.606L100.292 474.775M53.52 499.606L100.292 499.606M53.52 499.606L53.52 65.90598" stroke="#221E1F" stroke-width="0.5" stroke-linecap="square" fill="none" /><path id="10" transform="matrix(1 0 0 -1 0 538)" d="M59.189 474.775L94.62199 474.775L94.62199 492.633L59.189 492.633z" stroke="none" fill="#FCC689" fill-rule="nonzero" /><path id="11" transform="matrix(1 0 0 -1 0 538)" d="M90.542 478.833L88.371 478.833L88.371 478.833L88.371 477.42L88.371 477.42L91.021 477.481L91.021 477.481L91.084 477.42L91.084 477.42L90.979 475.215L90.979 475.215L90.886 475.126L90.886 475.126L88.904 475.141C 87.673 475.141 86.994 475.111 85.863 475.038L85.863 475.038L85.808 475.128L85.808 475.128L85.85 479.246L85.85 479.246L85.777 486.05L85.777 486.05L85.841 486.147L85.841 486.147L90.843 486.147L90.843 486.147L90.895 486.082L90.895 486.082L90.823 483.88L90.823 483.88L90.76 483.801L90.76 483.801L88.35 483.801L88.35 483.801L88.35 481.146L88.35 481.146L90.635 481.221L90.635 481.221L90.698 481.097L90.698 481.097L90.61501 478.932M82.907 475.038L82.855 475.139L82.855 475.139L82.894 478.749L82.894 478.749L82.883 480.092L82.883 480.092L81.751 480.109C 81.225 480.109 80.807 480.092 80.175 480.059L80.175 480.059L80.175 475.173L80.175 475.173L80.13 475.089L80.13 475.089L77.686 475.038L77.686 475.038L77.633 475.122L77.633 475.122L77.675 481.673L77.675 481.673L77.623 484.963L77.623 484.963L77.665 485.75C 77.974 485.595 78.286 485.595 78.608 485.595C 79.116 485.595 79.577 485.905 80.13 486.216L80.13 486.216L80.175 485.284L80.175 485.284L80.175 482.387L80.175 482.387L82.883 482.387L82.883 482.387L82.829 484.974L82.829 484.974L82.894 485.75L82.894 485.75L85.383 486.216L85.383 486.216L85.436 485.595L85.436 485.595L85.394 480.421L85.394 480.421L85.436 475.14L85.436 475.14L85.383 475.038L85.383 475.038L82.907 475.038zM77.343 475.595L77.292 475.506C 76.001 475.267 75.593 475.059 74.937 475.059C 73.867 475.059 73.105 475.521 72.552 476.116C 71.479 477.278 71.225 479.109 71.225 480.487C 71.225 484.259 72.851 486.195 74.902 486.195C 75.681 486.195 76.133 485.882 77.312 485.644L77.312 485.644L77.354 485.54L77.354 485.54L77.26 483.06L77.26 483.06L76.39 482.999C 76.213 483.259 75.886 483.752 75.257 483.752C 74.557 483.752 73.724 482.999 73.724 480.625C 73.724 478.145 74.62 477.502 75.337 477.502C 75.966 477.502 76.329 477.961 77.334 478.191L77.334 478.191L77.417 478.129L77.417 478.129L77.343 475.595zM70.146 475.109L70.104 475.038L70.104 475.038L67.62 475.038L67.62 475.038L67.574 475.109L67.574 475.109L67.596 478.866L67.596 478.866L67.62 481.289L67.62 481.289L67.552 484.974L67.552 484.974L67.608 485.75C 68.726 485.595 68.967 485.595 70.084 486.216L70.084 486.216L70.126 485.44L70.126 485.44L70.074 481.119L70.074 481.119L70.146 475.109zM66.623 478.833L64.442 478.833L64.442 478.833L64.51 475.121L64.51 475.121L64.43 475.038L64.43 475.038L62.014 475.038L62.014 475.038L61.937 475.12L61.937 475.12L61.969 478.086L61.969 478.086L61.978 480.536L61.978 480.536L61.906 484.974L61.906 484.974L61.969 485.684C 64.692 485.506 65.265 485.684 66.935 486.216L66.935 486.216L67.009 485.329L67.009 485.329L66.925 483.91L66.925 483.91L66.851 483.801L66.851 483.801L64.472 483.801L64.472 483.801L64.483 481.131L64.483 481.131L66.738 481.22L66.738 481.22L66.79 481.147L66.79 481.147L66.696 478.945L66.696 478.945L66.623 478.833z" stroke="none" fill="#F7931D" fill-rule="evenodd" /><path id="14" transform="matrix(1 0 0 -1 0 538)" d="M100.292 474.774L325.542 474.774" stroke="#221E1F" stroke-width="0.5" stroke-linecap="square" fill="none" /><path id="65" transform="matrix(1 0 0 -1 0 538)" d="M70.528 437.356L116.541 437.356L116.541 449.556L70.528 449.556z" stroke="none" fill="#FEE6CB" fill-rule="nonzero" /><path id="78" transform="matrix(1 0 0 -1 0 538)" d="M116.541 449.556L326.087 449.556L326.087 437.356L116.541 437.356" stroke="none" fill="#FEE6CB" fill-rule="nonzero" /><path id="740" transform="matrix(1 0 0 -1 0 538)" d="M70.528 219.556L105.365 219.556L105.365 231.756L70.528 231.756z" stroke="none" fill="#FEE6CB" fill-rule="nonzero" /><path id="749" transform="matrix(1 0 0 -1 0 538)" d="M105.364 219.556L168.917 219.556L168.917 231.756L105.364 231.756z" stroke="none" fill="#FEE6CB" fill-rule="nonzero" /><path id="762" transform="matrix(1 0 0 -1 0 538)" d="M168.918 219.556L326.087 219.556L326.087 231.756L168.918 231.756z" stroke="none" fill="#FEE6CB" fill-rule="nonzero" /><path id="1389" transform="matrix(1 0 0 -1 0 538)" d="M70.278 66.95602L326.337 66.95602M105.114 79.15601L326.336 79.15601M105.114 91.35602L326.336 91.35602M70.278 103.556L326.337 103.556M105.114 115.756L326.336 115.756M105.114 127.956L326.336 127.956M70.278 140.156L326.337 140.156M168.668 152.356L326.337 152.356M168.668 182.956L326.337 182.956M105.114 195.156L326.336 195.156M70.278 207.356L326.337 207.356M70.278 219.556L326.337 219.556M70.278 231.756L326.337 231.756M70.278 255.156L326.337 255.156M326.087 254.906L326.087 67.20602M168.918 232.006L168.918 66.70602M105.364 232.006L105.364 66.70602M70.528 254.906L70.528 67.20602M70.278 275.156L326.337 275.156M116.291 324.156L326.337 324.156M70.278 336.356L326.337 336.356M116.291 357.756L326.337 357.756M116.291 397.556L326.337 397.556M70.278 437.356L326.337 437.356M70.278 449.556L326.337 449.556M70.278 462.756L326.337 462.756M326.087 462.506L326.087 275.406M187.843 324.406L187.843 274.906M187.843 437.606L187.843 336.106M116.541 449.806L116.541 274.906M70.528 462.506L70.528 275.406" stroke="#F7931D" stroke-width="0.5" fill="none" /><g clip-path="url(#2)"></g></g></g></svg>