<svg xmlns="http://www.w3.org/2000/svg" xmlns:xlink="http://www.w3.org/1999/xlink" id="body_5" preserveAspectRatio="xMinYMin meet" viewBox="0 0 509 717"><defs><clipPath id="1"><path id="" clip-rule="evenodd" d="M0 538L0 -0.8049927L0 -0.8049927L382.804 -0.8049927L382.804 -0.8049927L382.804 538L382.804 538L0 538z" /></clipPath><clipPath id="2"><path id="" clip-rule="evenodd" d="M56.355 399.291L311.473 399.291L311.473 399.291L311.473 401.802L311.473 401.802L56.355 401.802z" /></clipPath><clipPath id="3"><path id="" clip-rule="evenodd" d="M310.973 75.487L56.355 75.487L56.355 75.487L56.355 336.244L56.355 336.244L310.973 336.244z" /></clipPath></defs><g transform="matrix(1.333333 0 0 1.333333 0 0)"><g clip-path="url(#1)"><path id="1" transform="matrix(1 0 0 -1 0 538)" d="M328.48 390.473L367.315 390.473L367.315 525.118L328.48 525.118z" stroke="none" fill="#F7931D" fill-rule="nonzero" /><path id="2" transform="matrix(1 0 0 -1 0 538)" d="M328.48 525.118L367.315 525.118L367.315 525.118L367.315 390.473L367.315 390.473L328.48 390.473z" stroke="#F7931D" stroke-width="0.5" fill="none" /><path id="3" transform="matrix(1 0 0 -1 0 538)" d="M335.6349 424.4702L335.6349 422.9579C 335.9747 422.8559 336.2806 422.6718 336.2806 422.1847C 336.2806 421.9128 336.173 421.7004 336.0257 421.5985C 335.8558 421.4626 335.6406 421.3691 334.5304 421.3691C 333.4316 421.3691 333.2164 421.4626 333.0351 421.5985C 332.8992 421.7004 332.7802 421.9128 332.7802 422.1847C 332.7802 422.6718 333.0861 422.8559 333.4259 422.9579L333.4259 422.9579L333.4259 424.4702C 332.1006 424.2436 331.4549 423.3203 331.4549 422.1762C 331.4549 421.4626 331.6927 420.9358 332.1346 420.494C 332.7802 419.8483 333.6242 419.8823 334.5304 419.8823C 335.448 419.8823 336.2919 419.8483 336.9263 420.494C 337.3681 420.9358 337.606 421.4626 337.606 422.1762C 337.606 423.3203 336.9716 424.2436 335.6349 424.4702z" stroke="none" fill="#FFFFFF" fill-rule="evenodd" /><path id="4" transform="matrix(1 0 0 -1 0 538)" d="M335.2696 428.9475C 334.386 428.9475 333.9385 428.8201 333.5194 428.4463C 333.2362 428.1744 332.9332 427.7128 332.9332 426.9765C 332.9332 426.2288 333.2362 425.7785 333.5194 425.5067C 333.9385 425.1215 334.386 425.0054 335.2696 425.0054C 336.1758 425.0054 336.6119 425.1215 337.0197 425.5067C 337.3143 425.7785 337.606 426.2288 337.606 426.9765C 337.606 427.7128 337.3143 428.1744 337.0197 428.4463C 336.6119 428.8201 336.1758 428.9475 335.2696 428.9475zM335.2696 427.5542C 335.7227 427.5542 336.0512 427.5202 336.2211 427.3503C 336.3117 427.2597 336.3486 427.1464 336.3486 426.9765C 336.3486 426.8065 336.3117 426.6819 336.2211 426.6026C 336.0512 426.4214 335.7227 426.3987 335.2696 426.3987C 334.8278 426.3987 334.4993 426.4214 334.318 426.6026C 334.2387 426.6819 334.1906 426.8065 334.1906 426.9765C 334.1906 427.1464 334.2387 427.2597 334.318 427.3503C 334.4993 427.5202 334.8278 427.5542 335.2696 427.5542z" stroke="none" fill="#FFFFFF" fill-rule="evenodd" /><path id="5" transform="matrix(1 0 0 -1 0 538)" d="M337.555 433.7478L334.6324 433.7478C 334.1566 433.7478 333.7205 433.6741 333.324 433.289C 333.0861 433.0398 332.9332 432.6914 332.9332 432.261C 332.9332 431.8871 333.0861 431.4709 333.358 431.199L333.358 431.199L332.9841 431.199L332.9841 431.199L332.9841 429.8396L332.9841 429.8396L337.555 429.8396L337.555 429.8396L337.555 431.233L337.555 431.233L334.8193 431.233C 334.2982 431.233 334.1906 431.6011 334.1906 431.7937C 334.1906 431.9749 334.2982 432.3544 334.8193 432.3544L334.8193 432.3544L337.555 432.3544z" stroke="none" fill="#FFFFFF" fill-rule="evenodd" /><path id="6" transform="matrix(1 0 0 -1 0 538)" d="M337.555 438.5395L331.5058 438.5395L331.5058 438.5395L331.5058 437.1462L331.5058 437.1462L333.3155 437.1462C 333.0663 436.8856 332.9332 436.5685 332.9332 436.1266C 332.9332 435.6849 333.0889 435.2827 333.3495 435.0222C 333.8026 434.5691 334.6012 434.5974 335.2696 434.5974C 335.9492 434.5974 336.7479 434.5691 337.1897 435.0222C 337.4615 435.2827 337.606 435.6934 337.606 436.1352C 337.606 436.6109 337.4644 436.9055 337.1812 437.1887L337.1812 437.1887L337.555 437.1887zM335.2696 437.1462C 335.9379 437.1462 336.3486 437.0782 336.3486 436.5685C 336.3486 436.0474 335.9379 435.9907 335.2696 435.9907C 334.6125 435.9907 334.1906 436.0474 334.1906 436.5685C 334.1906 437.0782 334.6125 437.1462 335.2696 437.1462z" stroke="none" fill="#FFFFFF" fill-rule="evenodd" /><path id="7" transform="matrix(1 0 0 -1 0 538)" d="M337.555 443.4587L332.9841 443.4587L332.9841 443.4587L332.9841 442.0654L332.9841 442.0654L335.7198 442.0654C 336.2523 442.0654 336.3486 441.6859 336.3486 441.5046C 336.3486 441.312 336.2523 440.9439 335.7198 440.9439L335.7198 440.9439L332.9841 440.9439L332.9841 440.9439L332.9841 439.5505L332.9841 439.5505L335.9068 439.5505C 336.3939 439.5505 336.83 439.6129 337.2151 440.0093C 337.4644 440.2472 337.606 440.5956 337.606 441.0374C 337.606 441.3998 337.4644 441.8162 337.1812 442.0993L337.1812 442.0993L337.555 442.0993z" stroke="none" fill="#FFFFFF" fill-rule="evenodd" /><path id="8" transform="matrix(1 0 0 -1 0 538)" d="M332.5169 445.9055L331.4549 445.9055L331.4549 445.9055L331.4549 444.5122L331.4549 444.5122L332.5169 444.5122zM337.555 445.9055L333.1626 445.9055L333.1626 445.9055L333.1626 444.5122L333.1626 444.5122L337.555 444.5122z" stroke="none" fill="#FFFFFF" fill-rule="evenodd" /><path id="9" transform="matrix(1 0 0 -1 0 538)" d="M337.555 449.1765L336.3825 449.1765L336.3825 449.1765L336.3825 448.7347C 336.3825 448.5421 336.2834 448.4543 336.1022 448.4543L336.1022 448.4543L334.2331 448.4543L334.2331 448.4543L334.2331 449.1765L334.2331 449.1765L333.1626 449.1765L333.1626 449.1765L333.1626 448.4543L333.1626 448.4543L331.8542 448.4543L331.8542 448.4543L331.8542 447.061L331.8542 447.061L333.1626 447.061L333.1626 447.061L333.1626 446.6447L333.1626 446.6447L334.2331 446.6447L334.2331 446.6447L334.2331 447.061L334.2331 447.061L336.2041 447.061C 336.8385 447.061 337.555 447.4603 337.555 448.4799z" stroke="none" fill="#FFFFFF" fill-rule="evenodd" /><path id="10" transform="matrix(1 0 0 -1 0 538)" d="M335.7198 453.9428L335.0996 453.9428C 333.9102 453.9428 332.9332 453.2121 332.9332 451.8867C 332.9332 450.686 333.7743 449.8392 335.2696 449.8392C 337.2406 449.8392 337.606 450.9947 337.606 452.0142C 337.606 452.8638 337.3596 453.3141 336.8838 453.7899L336.8838 453.7899L336.0512 452.9572C 336.3004 452.708 336.4335 452.49 336.4335 452.0142C 336.4335 451.4931 336.0937 451.2071 335.7198 451.2071zM334.7938 452.5664L334.7938 451.2071C 334.6918 451.2071 334.5616 451.2155 334.437 451.2835C 334.2444 451.3628 334.0801 451.5469 334.0801 451.8867C 334.0801 452.2152 334.2444 452.3993 334.437 452.49C 334.5616 452.5466 334.6918 452.5664 334.7938 452.5664z" stroke="none" fill="#FFFFFF" fill-rule="evenodd" /><path id="11" transform="matrix(1 0 0 -1 0 538)" d="" stroke="none" fill="#FFFFFF" fill-rule="evenodd" /><path id="12" transform="matrix(1 0 0 -1 0 538)" d="M337.555 460.2553L334.5899 460.2553C 333.4797 460.2553 332.9332 459.5445 332.9332 458.2418C 332.9332 457.4601 333.0804 457.041 333.5449 456.5765L333.5449 456.5765L334.4115 457.4431C 334.1962 457.6584 334.1056 457.8113 334.1056 458.1738C 334.1056 458.6496 334.267 458.8619 334.6748 458.8619L334.6748 458.8619L334.7938 458.8619L334.7938 458.8619L334.7938 457.9359C 334.7938 456.8484 335.4395 456.3811 336.1192 456.3811C 336.5496 456.3811 336.9291 456.5085 337.1897 456.7804C 337.4502 457.0297 337.5975 457.412 337.5975 457.8764C 337.5975 458.3522 337.4644 458.6127 337.1812 458.8959L337.1812 458.8959L337.555 458.8959zM335.8388 458.8619C 336.0654 458.8619 336.207 458.828 336.2976 458.726C 336.4449 458.5674 336.4675 458.4456 336.4675 458.1738C 336.4675 457.8679 336.2891 457.715 336.0852 457.715C 335.8813 457.715 335.7198 457.8849 335.7198 458.1568L335.7198 458.1568L335.7198 458.8619zM332.3724 458.9044L330.8431 458.4881L330.8431 458.4881L330.8431 457.0608L330.8431 457.0608L332.3724 458.0633z" stroke="none" fill="#FFFFFF" fill-rule="evenodd" /><path id="13" transform="matrix(1 0 0 -1 0 538)" d="" stroke="none" fill="#FFFFFF" fill-rule="evenodd" /><path id="14" transform="matrix(1 0 0 -1 0 538)" d="M337.555 465.3359L336.3825 465.3359L336.3825 465.3359L336.3825 464.8941C 336.3825 464.7015 336.2834 464.6137 336.1022 464.6137L336.1022 464.6137L334.2331 464.6137L334.2331 464.6137L334.2331 465.3359L334.2331 465.3359L333.1626 465.3359L333.1626 465.3359L333.1626 464.6137L333.1626 464.6137L331.8542 464.6137L331.8542 464.6137L331.8542 463.2204L331.8542 463.2204L333.1626 463.2204L333.1626 463.2204L333.1626 462.8041L333.1626 462.8041L334.2331 462.8041L334.2331 462.8041L334.2331 463.2204L334.2331 463.2204L336.2041 463.2204C 336.8385 463.2204 337.555 463.6197 337.555 464.6393z" stroke="none" fill="#FFFFFF" fill-rule="evenodd" /><path id="15" transform="matrix(1 0 0 -1 0 538)" d="M335.7198 470.1022L335.0996 470.1022C 333.9102 470.1022 332.9332 469.3715 332.9332 468.0461C 332.9332 466.8454 333.7743 465.9986 335.2696 465.9986C 337.2406 465.9986 337.606 467.1541 337.606 468.1736C 337.606 469.0232 337.3596 469.4734 336.8838 469.9492L336.8838 469.9492L336.0512 469.1166C 336.3004 468.8674 336.4335 468.6494 336.4335 468.1736C 336.4335 467.6525 336.0937 467.3665 335.7198 467.3665zM334.7938 468.7258L334.7938 467.3665C 334.6918 467.3665 334.5616 467.3749 334.437 467.4429C 334.2444 467.5222 334.0801 467.7063 334.0801 468.0461C 334.0801 468.3746 334.2444 468.5587 334.437 468.6494C 334.5616 468.706 334.6918 468.7258 334.7938 468.7258z" stroke="none" fill="#FFFFFF" fill-rule="evenodd" /><path id="16" transform="matrix(1 0 0 -1 0 538)" d="M337.555 474.8599L334.6324 474.8599C 334.1566 474.8599 333.7205 474.7863 333.324 474.4012C 333.0861 474.1519 332.9332 473.8036 332.9332 473.3731C 332.9332 472.9993 333.0861 472.583 333.358 472.3111L333.358 472.3111L332.9841 472.3111L332.9841 472.3111L332.9841 470.9518L332.9841 470.9518L337.555 470.9518L337.555 470.9518L337.555 472.3451L337.555 472.3451L334.8193 472.3451C 334.2982 472.3451 334.1906 472.7133 334.1906 472.9059C 334.1906 473.0871 334.2982 473.4666 334.8193 473.4666L334.8193 473.4666L337.555 473.4666z" stroke="none" fill="#FFFFFF" fill-rule="evenodd" /><path id="17" transform="matrix(1 0 0 -1 0 538)" d="M332.5169 477.2643L331.4549 477.2643L331.4549 477.2643L331.4549 475.8709L331.4549 475.8709L332.5169 475.8709zM337.555 477.2643L333.1626 477.2643L333.1626 477.2643L333.1626 475.8709L333.1626 475.8709L337.555 475.8709z" stroke="none" fill="#FFFFFF" fill-rule="evenodd" /><path id="18" transform="matrix(1 0 0 -1 0 538)" d="M333.358 481.8266C 333.0521 481.5095 332.9332 481.1979 332.9332 480.7561C 332.9332 480.2804 333.1541 479.881 333.358 479.6772L333.358 479.6772L332.9841 479.6772L332.9841 479.6772L332.9841 478.3178L332.9841 478.3178L337.555 478.3178L337.555 478.3178L337.555 479.7112L337.555 479.7112L334.8193 479.7112C 334.3095 479.7112 334.1906 480.0793 334.1906 480.2719C 334.1906 480.5098 334.2925 480.6372 334.4285 480.7731z" stroke="none" fill="#FFFFFF" fill-rule="evenodd" /><path id="43" transform="matrix(1 0 0 -1 0 538)" d="M56.35498 474.774L281.605 474.774M281.708 499.606L281.708 474.775M281.708 499.606L328.48 499.606M328.48 499.606L328.48 65.90598" stroke="#221E1F" stroke-width="0.5" stroke-linecap="square" fill="none" /><path id="44" transform="matrix(1 0 0 -1 0 538)" d="M287.378 474.775L322.811 474.775L322.811 492.633L287.378 492.633z" stroke="none" fill="#FCC689" fill-rule="nonzero" /><path id="45" transform="matrix(1 0 0 -1 0 538)" d="M318.73 478.833L316.559 478.833L316.559 478.833L316.559 477.42L316.559 477.42L319.209 477.481L319.209 477.481L319.272 477.42L319.272 477.42L319.167 475.215L319.167 475.215L319.074 475.126L319.074 475.126L317.092 475.141C 315.861 475.141 315.182 475.111 314.051 475.038L314.051 475.038L313.996 475.128L313.996 475.128L314.038 479.246L314.038 479.246L313.965 486.05L313.965 486.05L314.029 486.147L314.029 486.147L319.032 486.147L319.032 486.147L319.083 486.082L319.083 486.082L319.011 483.88L319.011 483.88L318.948 483.801L318.948 483.801L316.538 483.801L316.538 483.801L316.538 481.146L316.538 481.146L318.824 481.221L318.824 481.221L318.886 481.097L318.886 481.097L318.803 478.932M311.095 475.038L311.043 475.139L311.043 475.139L311.082 478.749L311.082 478.749L311.071 480.092L311.071 480.092L309.939 480.109C 309.413 480.109 308.995 480.092 308.363 480.059L308.363 480.059L308.363 475.173L308.363 475.173L308.318 475.089L308.318 475.089L305.874 475.038L305.874 475.038L305.822 475.122L305.822 475.122L305.863 481.673L305.863 481.673L305.811 484.963L305.811 484.963L305.853 485.75C 306.162 485.595 306.474 485.595 306.796 485.595C 307.304 485.595 307.765 485.905 308.318 486.216L308.318 486.216L308.363 485.284L308.363 485.284L308.363 482.387L308.363 482.387L311.071 482.387L311.071 482.387L311.017 484.974L311.017 484.974L311.082 485.75L311.082 485.75L313.572 486.216L313.572 486.216L313.624 485.595L313.624 485.595L313.582 480.421L313.582 480.421L313.624 475.14L313.624 475.14L313.572 475.038L313.572 475.038L311.095 475.038zM305.531 475.595L305.48 475.506C 304.189 475.267 303.781 475.059 303.125 475.059C 302.055 475.059 301.293 475.521 300.741 476.116C 299.667 477.278 299.413 479.109 299.413 480.487C 299.413 484.259 301.039 486.195 303.09 486.195C 303.869 486.195 304.322 485.882 305.5 485.644L305.5 485.644L305.542 485.54L305.542 485.54L305.449 483.06L305.449 483.06L304.578 482.999C 304.401 483.259 304.074 483.752 303.445 483.752C 302.745 483.752 301.912 482.999 301.912 480.625C 301.912 478.145 302.808 477.502 303.525 477.502C 304.154 477.502 304.517 477.961 305.522 478.191L305.522 478.191L305.605 478.129L305.605 478.129L305.531 475.595zM298.334 475.109L298.292 475.038L298.292 475.038L295.808 475.038L295.808 475.038L295.762 475.109L295.762 475.109L295.784 478.866L295.784 478.866L295.808 481.289L295.808 481.289L295.74 484.974L295.74 484.974L295.796 485.75C 296.914 485.595 297.155 485.595 298.272 486.216L298.272 486.216L298.314 485.44L298.314 485.44L298.262 481.119L298.262 481.119L298.334 475.109zM294.811 478.833L292.63 478.833L292.63 478.833L292.698 475.121L292.698 475.121L292.618 475.038L292.618 475.038L290.202 475.038L290.202 475.038L290.125 475.12L290.125 475.12L290.156 478.086L290.156 478.086L290.166 480.536L290.166 480.536L290.094 484.974L290.094 484.974L290.156 485.684C 292.88 485.506 293.453 485.684 295.123 486.216L295.123 486.216L295.197 485.329L295.197 485.329L295.113 483.91L295.113 483.91L295.039 483.801L295.039 483.801L292.66 483.801L292.66 483.801L292.671 481.131L292.671 481.131L294.926 481.22L294.926 481.22L294.978 481.147L294.978 481.147L294.884 478.945L294.884 478.945L294.811 478.833z" stroke="none" fill="#F7931D" fill-rule="evenodd" /><g clip-path="url(#2)"><path id="738" transform="matrix(1 0 0 -1 0 538)" d="M56.355 137.709L509.898 137.709" stroke="#F7931D" stroke-width="0.4" stroke-linecap="square" fill="none" /></g><path id="756" transform="matrix(1 0 0 -1 0 538)" d="M56.355 201.756L311.355 201.756L311.355 462.756L56.355 462.756z" stroke="none" fill="#FFFFFF" fill-rule="nonzero" /><path id="757" transform="matrix(1 0 0 -1 0 538)" d="M142.877 420.946L74.353 420.946" stroke="#F7931D" stroke-width="0.5" fill="none" /><path id="758" transform="matrix(1 0 0 -1 0 538)" d="M71.10001 420.947L74.95501 423.172L74.95501 418.721L71.10001 420.947" stroke="none" fill="#F7931D" fill-rule="nonzero" /><path id="759" transform="matrix(1 0 0 -1 0 538)" d="M71.10001 420.947L74.95501 423.172L74.95501 423.172L74.95501 418.721L74.95501 418.721L71.10001 420.947z" stroke="#F7931D" stroke-width="0.5" fill="none" /><path id="760" transform="matrix(1 0 0 -1 0 538)" d="M147.013 291.766L147.013 241.268" stroke="none" fill="#F7931D" fill-rule="nonzero" /><path id="761" transform="matrix(1 0 0 -1 0 538)" d="M147.013 291.766L147.013 241.268" stroke="#F7931D" stroke-width="0.5" fill="none" /><path id="762" transform="matrix(1 0 0 -1 0 538)" d="M147.013 238.015L144.789 241.869L149.239 241.869L148.126 239.942L147.013 238.015" stroke="none" fill="#F7931D" fill-rule="nonzero" /><path id="763" transform="matrix(1 0 0 -1 0 538)" d="M147.013 238.015L144.789 241.869L144.789 241.869L149.239 241.869L149.239 241.869L148.126 239.942L148.126 239.942L147.013 238.015z" stroke="#F7931D" stroke-width="0.5" fill="none" /><path id="764" transform="matrix(1 0 0 -1 0 538)" d="M304.973 237.542L304.973 279.791" stroke="none" fill="#F7931D" fill-rule="nonzero" /><path id="765" transform="matrix(1 0 0 -1 0 538)" d="M304.973 237.542L304.973 279.791" stroke="#F7931D" stroke-width="0.5" fill="none" /><path id="766" transform="matrix(1 0 0 -1 0 538)" d="M304.973 283.044L306.085 281.117L307.198 279.19L302.748 279.19L303.86 281.117L304.973 283.044" stroke="none" fill="#F7931D" fill-rule="nonzero" /><path id="767" transform="matrix(1 0 0 -1 0 538)" d="M304.973 283.044L306.085 281.117L306.085 281.117L307.198 279.19L307.198 279.19L302.748 279.19L302.748 279.19L303.86 281.117L303.86 281.117L304.973 283.044z" stroke="#F7931D" stroke-width="0.5" fill="none" /><path id="768" transform="matrix(1 0 0 -1 0 538)" d="M208.839 374.257L292.03 374.257" stroke="none" fill="#F7931D" fill-rule="nonzero" /><path id="769" transform="matrix(1 0 0 -1 0 538)" d="M208.839 374.257L292.03 374.257" stroke="#F7931D" stroke-width="0.5" fill="none" /><path id="770" transform="matrix(1 0 0 -1 0 538)" d="M294.282 374.256L290.428 372.031L290.428 376.482L294.282 374.256" stroke="none" fill="#F7931D" fill-rule="nonzero" /><path id="771" transform="matrix(1 0 0 -1 0 538)" d="M294.282 374.256L290.428 372.031L290.428 372.031L290.428 376.482L290.428 376.482L294.282 374.256z" stroke="#F7931D" stroke-width="0.5" fill="none" /><path id="772" transform="matrix(1 0 0 -1 0 538)" d="M159.582 370.257L159.582 354.284" stroke="none" fill="#F7931D" fill-rule="nonzero" /><path id="773" transform="matrix(1 0 0 -1 0 538)" d="M159.582 370.257L159.582 354.284" stroke="#F7931D" stroke-width="0.5" fill="none" /><path id="774" transform="matrix(1 0 0 -1 0 538)" d="M159.581 350.034L157.355 353.888L161.806 353.888L160.694 351.961L159.581 350.034" stroke="none" fill="#F7931D" fill-rule="nonzero" /><path id="775" transform="matrix(1 0 0 -1 0 538)" d="M159.581 350.034L157.355 353.888L157.355 353.888L161.806 353.888L161.806 353.888L160.694 351.961L160.694 351.961L159.581 350.034z" stroke="#F7931D" stroke-width="0.5" fill="none" /><path id="776" transform="matrix(1 0 0 -1 0 538)" d="M159.582 332.233L159.582 313.51" stroke="none" fill="#F7931D" fill-rule="nonzero" /><path id="777" transform="matrix(1 0 0 -1 0 538)" d="M159.582 332.233L159.582 313.51" stroke="#F7931D" stroke-width="0.5" fill="none" /><path id="778" transform="matrix(1 0 0 -1 0 538)" d="M159.581 309.26L158.468 311.188L157.355 313.115L161.806 313.115L160.694 311.188L159.581 309.26" stroke="none" fill="#F7931D" fill-rule="nonzero" /><path id="779" transform="matrix(1 0 0 -1 0 538)" d="M159.581 309.26L158.468 311.188L158.468 311.188L157.355 313.115L157.355 313.115L161.806 313.115L161.806 313.115L160.694 311.188L160.694 311.188L159.581 309.26z" stroke="#F7931D" stroke-width="0.5" fill="none" /><path id="780" transform="matrix(1 0 0 -1 0 538)" d="M208.161 261.35L208.161 242.627" stroke="none" fill="#F7931D" fill-rule="nonzero" /><path id="781" transform="matrix(1 0 0 -1 0 538)" d="M208.161 261.35L208.161 242.627" stroke="#F7931D" stroke-width="0.5" fill="none" /><path id="782" transform="matrix(1 0 0 -1 0 538)" d="M208.16 238.377L207.047 240.305L205.935 242.232L210.385 242.232L209.273 240.305L208.16 238.377" stroke="none" fill="#F7931D" fill-rule="nonzero" /><path id="783" transform="matrix(1 0 0 -1 0 538)" d="M208.16 238.377L207.047 240.305L207.047 240.305L205.935 242.232L205.935 242.232L210.385 242.232L210.385 242.232L209.273 240.305L209.273 240.305L208.16 238.377z" stroke="#F7931D" stroke-width="0.5" fill="none" /><path id="784" transform="matrix(1 0 0 -1 0 538)" d="M175.845 446.084L175.845 430.722" stroke="none" fill="#F7931D" fill-rule="nonzero" /><path id="785" transform="matrix(1 0 0 -1 0 538)" d="M175.845 446.084L175.845 430.722" stroke="#F7931D" stroke-width="0.5" fill="none" /><path id="786" transform="matrix(1 0 0 -1 0 538)" d="M175.845 427.138L174.732 429.065L173.62 430.992L178.07 430.992L176.958 429.065L175.845 427.138" stroke="none" fill="#F7931D" fill-rule="nonzero" /><path id="787" transform="matrix(1 0 0 -1 0 538)" d="M175.845 427.138L174.732 429.065L174.732 429.065L173.62 430.992L173.62 430.992L178.07 430.992L178.07 430.992L176.958 429.065L176.958 429.065L175.845 427.138z" stroke="#F7931D" stroke-width="0.5" fill="none" /><path id="788" transform="matrix(1 0 0 -1 0 538)" d="M175.845 409.642L175.845 394.892" stroke="none" fill="#F7931D" fill-rule="nonzero" /><path id="789" transform="matrix(1 0 0 -1 0 538)" d="M175.845 409.642L175.845 394.892" stroke="#F7931D" stroke-width="0.5" fill="none" /><path id="790" transform="matrix(1 0 0 -1 0 538)" d="M175.845 390.641L174.732 392.569L173.62 394.496L178.07 394.496L176.958 392.569L175.845 390.641" stroke="none" fill="#F7931D" fill-rule="nonzero" /><path id="791" transform="matrix(1 0 0 -1 0 538)" d="M175.845 390.641L174.732 392.569L174.732 392.569L173.62 394.496L173.62 394.496L178.07 394.496L178.07 394.496L176.958 392.569L176.958 392.569L175.845 390.641z" stroke="#F7931D" stroke-width="0.5" fill="none" /><path id="792" transform="matrix(1 0 0 -1 0 538)" d="M84.825 227.768L73.13 227.768" stroke="none" fill="#F7931D" fill-rule="nonzero" /><path id="793" transform="matrix(1 0 0 -1 0 538)" d="M84.825 227.768L73.13 227.768" stroke="#F7931D" stroke-width="0.5" fill="none" /><path id="794" transform="matrix(1 0 0 -1 0 538)" d="M68.88 227.768L70.80801 228.88L72.73401 229.993L72.73401 225.542L68.88 227.768" stroke="none" fill="#F7931D" fill-rule="nonzero" /><path id="795" transform="matrix(1 0 0 -1 0 538)" d="M68.88 227.768L70.80801 228.88L70.80801 228.88L72.73401 229.993L72.73401 229.993L72.73401 225.542L72.73401 225.542L68.88 227.768z" stroke="#F7931D" stroke-width="0.5" fill="none" /><path id="796" transform="matrix(1 0 0 -1 0 538)" d="M158.748 291.04L158.748 280.567" stroke="none" fill="#F7931D" fill-rule="nonzero" /><path id="797" transform="matrix(1 0 0 -1 0 538)" d="M158.748 291.04L158.748 280.567" stroke="#F7931D" stroke-width="0.5" fill="none" /><path id="798" transform="matrix(1 0 0 -1 0 538)" d="M158.748 277.067L157.636 278.994L156.522 280.921L160.974 280.921L158.748 277.067" stroke="none" fill="#F7931D" fill-rule="nonzero" /><path id="799" transform="matrix(1 0 0 -1 0 538)" d="M158.748 277.067L157.636 278.994L157.636 278.994L156.522 280.921L156.522 280.921L160.974 280.921L160.974 280.921L158.748 277.067z" stroke="#F7931D" stroke-width="0.5" fill="none" /><path id="800" transform="matrix(1 0 0 -1 0 538)" d="M158.749 237.653L158.749 259.431" stroke="none" fill="#F7931D" fill-rule="nonzero" /><path id="801" transform="matrix(1 0 0 -1 0 538)" d="M158.749 237.653L158.749 259.431" stroke="#F7931D" stroke-width="0.5" fill="none" /><path id="802" transform="matrix(1 0 0 -1 0 538)" d="M158.749 262.931L159.861 261.003L160.974 259.076L156.523 259.076L157.635 261.003L158.749 262.931" stroke="none" fill="#F7931D" fill-rule="nonzero" /><path id="803" transform="matrix(1 0 0 -1 0 538)" d="M158.749 262.931L159.861 261.003L159.861 261.003L160.974 259.076L160.974 259.076L156.523 259.076L156.523 259.076L157.635 261.003L157.635 261.003L158.749 262.931z" stroke="#F7931D" stroke-width="0.5" fill="none" /><path id="804" transform="matrix(1 0 0 -1 0 538)" d="M175.433 269.141L182.879 269.141" stroke="#221E1F" stroke-width="0.5" fill="none" /><path id="805" transform="matrix(1 0 0 -1 0 538)" d="M186.043 269.141L181.203 267.232L181.203 271.05L183.624 270.096L186.043 269.141" stroke="none" fill="#221E1F" fill-rule="nonzero" /><g clip-path="url(#3)"><path id="806" transform="matrix(1 0 0 -1 0 538)" d="M184.316 254.044C 184.316 250.415 180.555 247.476 175.915 247.476C 171.274 247.476 167.512 250.415 167.512 254.044C 167.512 257.672 171.274 260.613 175.915 260.613C 180.555 260.613 184.316 257.672 184.316 254.044zM138.487 269.459C 138.487 265.83 134.725 262.891 130.085 262.891C 125.444 262.891 121.683 265.83 121.683 269.459C 121.683 273.087 125.444 276.028 130.085 276.028C 134.725 276.028 138.487 273.087 138.487 269.459zM184.247 320.955C 184.247 317.326 180.485 314.387 175.845 314.387C 171.205 314.387 167.443 317.326 167.443 320.955C 167.443 324.583 171.205 327.524 175.845 327.524C 180.485 327.524 184.247 324.583 184.247 320.955zM310.723 202.006L192.788 202.006L192.788 202.006L192.788 237.143L192.788 237.143L310.723 237.143zM183.654 218.097L84.662 218.097L84.662 218.097L84.662 237.345L84.662 237.345L183.654 237.345zM208.689 332.572L143 332.572L143 332.572L143 348.764L143 348.764L208.689 348.764zM208.689 291.616L143 291.616L143 291.616L143 307.809L143 307.809L208.689 307.809zM310.363 286.635L299.058 286.635L299.058 286.635L299.058 411.902L299.058 411.902L310.363 411.902zM67.91 217.836L56.605 217.836L56.605 217.836L56.605 435.679L56.605 435.679L67.91 435.679zM87.786 241.941L72.50999 241.941L72.50999 241.941L72.50999 251.411L72.50999 251.411L87.786 251.411zM183.483 279.131L168.207 279.131L168.207 279.131L168.207 288.602L168.207 288.602L183.483 288.602zM183.483 355.291L168.207 355.291L168.207 355.291L168.207 364.763L168.207 364.763L183.483 364.763zM113.422 409.259L98.146 409.259L98.146 409.259L98.146 418.731L98.146 418.731L113.422 418.731zM175.402 263.265L152.182 263.265L152.182 263.265L152.182 275.791L152.182 275.791L175.402 275.791zM228.457 261.663L186.905 261.663L186.905 261.663L186.905 277.857L186.905 277.857L228.457 277.857zM284.925 244.615L214.654 244.615L214.654 244.615L214.654 256.226L214.654 256.226L284.925 256.226zM284.924 377.854L214.653 377.854L214.653 377.854L214.653 389.465L214.653 389.465L284.924 389.465zM208.689 370.751L143.001 370.751L143.001 370.751L143.001 390L143.001 390L208.689 390zM208.689 446.07L143.001 446.07L143.001 446.07L143.001 462.263L143.001 462.263L208.689 462.263zM208.689 409.962L143.001 409.962L143.001 409.962L143.001 426.155L143.001 426.155L208.689 426.155zM186.043 269.141L181.203 267.232L181.203 267.232L181.203 271.05L181.203 271.05L183.624 270.096L183.624 270.096L186.043 269.141z" stroke="#221E1F" stroke-width="0.5" fill="none" /></g><path id="927" transform="matrix(1 0 0 -1 0 538)" d="M59.46799 293.252L64.354 291.614L64.354 291.614L64.354 292.23L64.354 292.23L63.08 292.622L63.08 292.622L63.08 294.484L63.08 294.484L64.354 294.876L64.354 294.876L64.354 295.52L64.354 295.52L59.46799 293.924zM62.548 292.79L60.112 293.56L60.112 293.56L60.112 293.574L60.112 293.574L62.548 294.323z" stroke="none" fill="#221E1F" fill-rule="evenodd" /><path id="928" transform="matrix(1 0 0 -1 0 538)" d="M64.354 296.115L64.354 297.291C 64.354 298.355 63.69833 298.817 63.01699 298.817C 62.33566 298.817 61.89 298.439 61.806 297.907L61.806 297.907L61.792 297.907C 61.652 298.3923 61.23899 298.712 60.707 298.712C 59.98833 298.712 59.46799 298.2967 59.46799 297.354L59.46799 297.354L59.46799 296.115zM59.972 296.731L59.972 297.2C 59.972 297.844 60.322 298.096 60.742 298.096C 61.27399 298.096 61.582 297.7763 61.582 297.095L61.582 297.095L61.582 296.731zM62.08599 296.731L62.08599 297.326C 62.08599 297.914 62.471 298.201 62.97499 298.201C 63.44166 298.201 63.84999 297.9093 63.84999 297.256L63.84999 297.256L63.84999 296.731z" stroke="none" fill="#221E1F" fill-rule="evenodd" /><path id="929" transform="matrix(1 0 0 -1 0 538)" d="M59.58 301.764C 59.49599 301.54 59.41899 301.1993 59.41899 300.882C 59.41899 300.1353 59.84133 299.524 60.644 299.524C 61.27866 299.524 61.575 299.7153 62.10699 300.602C 62.50833 301.2553 62.72766 301.358 63.101 301.358C 63.50233 301.358 63.87099 301.0407 63.87099 300.49C 63.87099 300.2007 63.724 299.839 63.556 299.559L63.556 299.559L64.19299 299.559C 64.32366 299.811 64.403 300.189 64.403 300.581C 64.403 301.5143 63.80099 302.002 63.01699 302.002C 62.457 302.002 62.03466 301.75 61.596 300.994C 61.19466 300.294 60.99633 300.168 60.679 300.168C 60.26833 300.168 59.951 300.4644 59.951 300.931C 59.951 301.2297 60.035 301.5307 60.175 301.764z" stroke="none" fill="#221E1F" fill-rule="evenodd" /><path id="930" transform="matrix(1 0 0 -1 0 538)" d="M64.354 302.856L64.354 305.222L64.354 305.222L63.82199 305.222L63.82199 305.222L63.82199 303.472L63.82199 303.472L62.08599 303.472L62.08599 303.472L62.08599 305.054L62.08599 305.054L61.554 305.054L61.554 305.054L61.554 303.472L61.554 303.472L60 303.472L60 303.472L60 305.131L60 305.131L59.46799 305.131L59.46799 305.131L59.46799 302.856z" stroke="none" fill="#221E1F" fill-rule="evenodd" /><path id="931" transform="matrix(1 0 0 -1 0 538)" d="M64.354 306.097L64.354 306.685L64.354 306.685L60.34999 306.685L60.34999 306.685L60.34999 306.699L60.34999 306.699L64.354 308.54L64.354 308.54L64.354 309.303L64.354 309.303L59.46799 309.303L59.46799 309.303L59.46799 308.715L59.46799 308.715L63.5 308.715L63.5 308.715L63.5 308.701L63.5 308.701L59.46799 306.86L59.46799 306.86L59.46799 306.097z" stroke="none" fill="#221E1F" fill-rule="evenodd" /><path id="932" transform="matrix(1 0 0 -1 0 538)" d="M63.64 313.265C 63.78933 313.013 63.87099 312.698 63.87099 312.39C 63.87099 311.326 63.03799 310.822 61.778 310.822C 60.59266 310.822 59.951 311.5453 59.951 312.348C 59.951 312.684 60.028 312.9944 60.196 313.265L60.196 313.265L59.59399 313.265C 59.48199 313.041 59.41899 312.6863 59.41899 312.341C 59.41899 311.0623 60.38266 310.178 61.904 310.178C 63.22933 310.178 64.403 310.8267 64.403 312.376C 64.403 312.656 64.34933 312.9663 64.256 313.265z" stroke="none" fill="#221E1F" fill-rule="evenodd" /><path id="933" transform="matrix(1 0 0 -1 0 538)" d="M64.354 314.14L64.354 316.506L64.354 316.506L63.82199 316.506L63.82199 316.506L63.82199 314.756L63.82199 314.756L62.08599 314.756L62.08599 314.756L62.08599 316.338L62.08599 316.338L61.554 316.338L61.554 316.338L61.554 314.756L61.554 314.756L60 314.756L60 314.756L60 316.415L60 316.415L59.46799 316.415L59.46799 316.415L59.46799 314.14z" stroke="none" fill="#221E1F" fill-rule="evenodd" /><path id="934" transform="matrix(1 0 0 -1 0 538)" d="" stroke="none" fill="#221E1F" fill-rule="evenodd" /><path id="935" transform="matrix(1 0 0 -1 0 538)" d="M64.354 318.991L64.354 319.754C 64.354 321.5833 63.25266 322.26 61.834 322.26C 60.742 322.26 60.126 321.7863 59.818 321.357C 59.622 321.077 59.46799 320.699 59.46799 320.055L59.46799 320.055L59.46799 318.991zM60 319.607L60 319.978C 60 321.182 60.81666 321.616 61.834 321.616C 63.094 321.616 63.82199 321.0513 63.82199 319.978L63.82199 319.978L63.82199 319.607z" stroke="none" fill="#221E1F" fill-rule="evenodd" /><path id="936" transform="matrix(1 0 0 -1 0 538)" d="M64.354 323.079L64.354 325.445L64.354 325.445L63.82199 325.445L63.82199 325.445L63.82199 323.695L63.82199 323.695L62.08599 323.695L62.08599 323.695L62.08599 325.277L62.08599 325.277L61.554 325.277L61.554 325.277L61.554 323.695L61.554 323.695L60 323.695L60 323.695L60 325.354L60 325.354L59.46799 325.354L59.46799 325.354L59.46799 323.079z" stroke="none" fill="#221E1F" fill-rule="evenodd" /><path id="937" transform="matrix(1 0 0 -1 0 538)" d="" stroke="none" fill="#221E1F" fill-rule="evenodd" /><path id="938" transform="matrix(1 0 0 -1 0 538)" d="M64.354 328.322L64.354 328.938L64.354 328.938L60 328.938L60 328.938L60 330.058L60 330.058L59.46799 330.058L59.46799 330.058L59.46799 327.202L59.46799 327.202L60 327.202L60 327.202L60 328.322z" stroke="none" fill="#221E1F" fill-rule="evenodd" /><path id="939" transform="matrix(1 0 0 -1 0 538)" d="M64.354 330.723L64.354 331.339L64.354 331.339L62.14199 331.339L62.14199 331.339L62.14199 331.619C 62.14199 332.0764 62.30066 332.256 62.702 332.396L62.702 332.396L64.354 332.956L64.354 332.956L64.354 333.621L64.354 333.621L62.394 332.935C 62.11399 332.8324 61.974 332.6924 61.918 332.403L61.918 332.403L61.904 332.403C 61.75466 333.1217 61.25766 333.369 60.735 333.369C 60.38033 333.369 60.04666 333.257 59.804 333.005C 59.59866 332.781 59.46799 332.4893 59.46799 331.976L59.46799 331.976L59.46799 330.723zM59.972 331.339L59.972 331.829C 59.972 332.361 60.23566 332.725 60.777 332.725C 61.20633 332.725 61.638 332.4684 61.638 331.815L61.638 331.815L61.638 331.339z" stroke="none" fill="#221E1F" fill-rule="evenodd" /><path id="940" transform="matrix(1 0 0 -1 0 538)" d="M59.46799 335.511L64.354 333.873L64.354 333.873L64.354 334.489L64.354 334.489L63.08 334.881L63.08 334.881L63.08 336.743L63.08 336.743L64.354 337.135L64.354 337.135L64.354 337.779L64.354 337.779L59.46799 336.183zM62.548 335.049L60.112 335.819L60.112 335.819L60.112 335.833L60.112 335.833L62.548 336.582z" stroke="none" fill="#221E1F" fill-rule="evenodd" /><path id="941" transform="matrix(1 0 0 -1 0 538)" d="M64.354 338.374L64.354 338.99L64.354 338.99L59.46799 338.99L59.46799 338.99L59.46799 338.374z" stroke="none" fill="#221E1F" fill-rule="evenodd" /><path id="942" transform="matrix(1 0 0 -1 0 538)" d="M64.354 340.775L64.354 341.391L64.354 341.391L60 341.391L60 341.391L60 342.511L60 342.511L59.46799 342.511L59.46799 342.511L59.46799 339.655L59.46799 339.655L60 339.655L60 339.655L60 340.775z" stroke="none" fill="#221E1F" fill-rule="evenodd" /><path id="943" transform="matrix(1 0 0 -1 0 538)" d="M64.354 343.176L64.354 345.542L64.354 345.542L63.82199 345.542L63.82199 345.542L63.82199 343.792L63.82199 343.792L62.08599 343.792L62.08599 343.792L62.08599 345.374L62.08599 345.374L61.554 345.374L61.554 345.374L61.554 343.792L61.554 343.792L60 343.792L60 343.792L60 345.451L60 345.451L59.46799 345.451L59.46799 345.451L59.46799 343.176z" stroke="none" fill="#221E1F" fill-rule="evenodd" /><path id="944" transform="matrix(1 0 0 -1 0 538)" d="M64.354 346.417L64.354 347.005L64.354 347.005L60.14 347.005L60.14 347.005L60.14 347.019L60.14 347.019L64.354 348.349L64.354 348.349L64.354 348.797L64.354 348.797L60.14 350.183L60.14 350.183L60.14 350.197L60.14 350.197L64.354 350.197L64.354 350.197L64.354 350.785L64.354 350.785L59.46799 350.785L59.46799 350.785L59.46799 349.861L59.46799 349.861L63.353 348.608L63.353 348.608L63.353 348.594L63.353 348.594L59.46799 347.369L59.46799 347.369L59.46799 346.417z" stroke="none" fill="#221E1F" fill-rule="evenodd" /><path id="945" transform="matrix(1 0 0 -1 0 538)" d="M64.354 351.863L64.354 354.229L64.354 354.229L63.82199 354.229L63.82199 354.229L63.82199 352.479L63.82199 352.479L62.08599 352.479L62.08599 352.479L62.08599 354.061L62.08599 354.061L61.554 354.061L61.554 354.061L61.554 352.479L61.554 352.479L60 352.479L60 352.479L60 354.138L60 354.138L59.46799 354.138L59.46799 354.138L59.46799 351.863z" stroke="none" fill="#221E1F" fill-rule="evenodd" /><path id="946" transform="matrix(1 0 0 -1 0 538)" d="M64.354 355.104L64.354 355.692L64.354 355.692L60.34999 355.692L60.34999 355.692L60.34999 355.706L60.34999 355.706L64.354 357.547L64.354 357.547L64.354 358.31L64.354 358.31L59.46799 358.31L59.46799 358.31L59.46799 357.722L59.46799 357.722L63.5 357.722L63.5 357.722L63.5 357.708L63.5 357.708L59.46799 355.867L59.46799 355.867L59.46799 355.104z" stroke="none" fill="#221E1F" fill-rule="evenodd" /><path id="947" transform="matrix(1 0 0 -1 0 538)" d="M64.354 360.095L64.354 360.711L64.354 360.711L60 360.711L60 360.711L60 361.831L60 361.831L59.46799 361.831L59.46799 361.831L59.46799 358.975L59.46799 358.975L60 358.975L60 358.975L60 360.095z" stroke="none" fill="#221E1F" fill-rule="evenodd" /><path id="948" transform="matrix(1 0 0 -1 0 538)" d="M306.904 299.503L306.904 301.869L306.904 301.869L306.372 301.869L306.372 301.869L306.372 300.119L306.372 300.119L304.636 300.119L304.636 300.119L304.636 301.701L304.636 301.701L304.104 301.701L304.104 301.701L304.104 300.119L304.104 300.119L302.55 300.119L302.55 300.119L302.55 301.778L302.55 301.778L302.018 301.778L302.018 301.778L302.018 299.503zM301.78 300.238L301.78 300.686L301.78 300.686L300.765 301.4L300.765 301.4L300.765 300.707z" stroke="none" fill="#221E1F" fill-rule="evenodd" /><path id="949" transform="matrix(1 0 0 -1 0 538)" d="M306.904 303.752L306.904 304.368L306.904 304.368L302.018 305.901L302.018 305.901L302.018 305.285L302.018 305.285L306.001 304.088L306.001 304.088L306.001 304.074L306.001 304.074L302.018 302.94L302.018 302.94L302.018 302.268z" stroke="none" fill="#221E1F" fill-rule="evenodd" /><path id="950" transform="matrix(1 0 0 -1 0 538)" d="M302.018 307.343L306.904 305.705L306.904 305.705L306.904 306.321L306.904 306.321L305.63 306.713L305.63 306.713L305.63 308.575L305.63 308.575L306.904 308.967L306.904 308.967L306.904 309.611L306.904 309.611L302.018 308.015zM305.098 306.881L302.662 307.651L302.662 307.651L302.662 307.665L302.662 307.665L305.098 308.414z" stroke="none" fill="#221E1F" fill-rule="evenodd" /><path id="951" transform="matrix(1 0 0 -1 0 538)" d="M306.904 310.206L306.904 312.425L306.904 312.425L306.372 312.425L306.372 312.425L306.372 310.822L306.372 310.822L302.018 310.822L302.018 310.822L302.018 310.206z" stroke="none" fill="#221E1F" fill-rule="evenodd" /><path id="952" transform="matrix(1 0 0 -1 0 538)" d="M302.018 316.121L302.018 315.505L302.018 315.505L305.196 315.505C 305.9614 315.505 306.449 315.1667 306.449 314.588C 306.449 314 305.9614 313.671 305.196 313.671L305.196 313.671L302.018 313.671L302.018 313.671L302.018 313.055L302.018 313.055L305.105 313.055C 305.5904 313.055 305.861 313.083 306.197 313.251C 306.6077 313.447 306.953 313.8787 306.953 314.588C 306.953 315.288 306.6077 315.7197 306.197 315.925C 305.861 316.093 305.5904 316.121 305.105 316.121z" stroke="none" fill="#221E1F" fill-rule="evenodd" /><path id="953" transform="matrix(1 0 0 -1 0 538)" d="M302.018 318.095L306.904 316.457L306.904 316.457L306.904 317.073L306.904 317.073L305.63 317.465L305.63 317.465L305.63 319.327L305.63 319.327L306.904 319.719L306.904 319.719L306.904 320.363L306.904 320.363L302.018 318.767zM305.098 317.633L302.662 318.403L302.662 318.403L302.662 318.417L302.662 318.417L305.098 319.166z" stroke="none" fill="#221E1F" fill-rule="evenodd" /><path id="954" transform="matrix(1 0 0 -1 0 538)" d="M306.904 321.35L306.904 321.966L306.904 321.966L302.55 321.966L302.55 321.966L302.55 323.086L302.55 323.086L302.018 323.086L302.018 323.086L302.018 320.23L302.018 320.23L302.55 320.23L302.55 320.23L302.55 321.35z" stroke="none" fill="#221E1F" fill-rule="evenodd" /><path id="955" transform="matrix(1 0 0 -1 0 538)" d="M306.904 323.751L306.904 324.367L306.904 324.367L302.018 324.367L302.018 324.367L302.018 323.751z" stroke="none" fill="#221E1F" fill-rule="evenodd" /><path id="956" transform="matrix(1 0 0 -1 0 538)" d="M304.51 325.242C 306.022 325.242 306.953 325.928 306.953 327.02C 306.953 328.168 306.1013 328.854 304.412 328.854C 302.9 328.854 301.969 328.1587 301.969 327.076C 301.969 325.9187 302.83 325.242 304.51 325.242zM304.51 325.886C 303.0074 325.886 302.473 326.432 302.473 327.076C 302.473 327.8974 303.432 328.21 304.412 328.21C 305.924 328.21 306.449 327.664 306.449 327.02C 306.449 326.1894 305.4994 325.886 304.51 325.886z" stroke="none" fill="#221E1F" fill-rule="evenodd" /><path id="957" transform="matrix(1 0 0 -1 0 538)" d="M306.904 329.729L306.904 330.317L306.904 330.317L302.9 330.317L302.9 330.317L302.9 330.331L302.9 330.331L306.904 332.172L306.904 332.172L306.904 332.935L306.904 332.935L302.018 332.935L302.018 332.935L302.018 332.347L302.018 332.347L306.05 332.347L306.05 332.347L306.05 332.333L306.05 332.333L302.018 330.492L302.018 330.492L302.018 329.729z" stroke="none" fill="#221E1F" fill-rule="evenodd" /><path id="958" transform="matrix(1 0 0 -1 0 538)" d="" stroke="none" fill="#221E1F" fill-rule="evenodd" /><path id="959" transform="matrix(1 0 0 -1 0 538)" d="M306.904 335.693L306.904 338.059L306.904 338.059L306.372 338.059L306.372 338.059L306.372 336.309L306.372 336.309L304.636 336.309L304.636 336.309L304.636 337.891L304.636 337.891L304.104 337.891L304.104 337.891L304.104 336.309L304.104 336.309L302.55 336.309L302.55 336.309L302.55 337.968L302.55 337.968L302.018 337.968L302.018 337.968L302.018 335.693z" stroke="none" fill="#221E1F" fill-rule="evenodd" /><path id="960" transform="matrix(1 0 0 -1 0 538)" d="M306.904 339.641L306.904 340.257L306.904 340.257L302.55 340.257L302.55 340.257L302.55 341.377L302.55 341.377L302.018 341.377L302.018 341.377L302.018 338.521L302.018 338.521L302.55 338.521L302.55 338.521L302.55 339.641z" stroke="none" fill="#221E1F" fill-rule="evenodd" /><path id="961" transform="matrix(1 0 0 -1 0 538)" d="" stroke="none" fill="#221E1F" fill-rule="evenodd" /><path id="962" transform="matrix(1 0 0 -1 0 538)" d="M306.904 344.044L306.904 344.66L306.904 344.66L302.55 344.66L302.55 344.66L302.55 345.78L302.55 345.78L302.018 345.78L302.018 345.78L302.018 342.924L302.018 342.924L302.55 342.924L302.55 342.924L302.55 344.044z" stroke="none" fill="#221E1F" fill-rule="evenodd" /><path id="963" transform="matrix(1 0 0 -1 0 538)" d="M306.904 346.445L306.904 347.061L306.904 347.061L304.692 347.061L304.692 347.061L304.692 347.341C 304.692 347.7984 304.8507 347.978 305.252 348.118L305.252 348.118L306.904 348.678L306.904 348.678L306.904 349.343L306.904 349.343L304.944 348.657C 304.664 348.5544 304.524 348.4144 304.468 348.125L304.468 348.125L304.454 348.125C 304.3047 348.8437 303.8077 349.091 303.285 349.091C 302.9304 349.091 302.5967 348.979 302.354 348.727C 302.1487 348.503 302.018 348.2114 302.018 347.698L302.018 347.698L302.018 346.445zM302.522 347.061L302.522 347.551C 302.522 348.083 302.7857 348.447 303.327 348.447C 303.7563 348.447 304.188 348.1904 304.188 347.537L304.188 347.537L304.188 347.061z" stroke="none" fill="#221E1F" fill-rule="evenodd" /><path id="964" transform="matrix(1 0 0 -1 0 538)" d="M302.018 351.233L306.904 349.595L306.904 349.595L306.904 350.211L306.904 350.211L305.63 350.603L305.63 350.603L305.63 352.465L305.63 352.465L306.904 352.857L306.904 352.857L306.904 353.501L306.904 353.501L302.018 351.905zM305.098 350.771L302.662 351.541L302.662 351.541L302.662 351.555L302.662 351.555L305.098 352.304z" stroke="none" fill="#221E1F" fill-rule="evenodd" /><path id="965" transform="matrix(1 0 0 -1 0 538)" d="M306.904 354.096L306.904 354.712L306.904 354.712L302.018 354.712L302.018 354.712L302.018 354.096z" stroke="none" fill="#221E1F" fill-rule="evenodd" /><path id="966" transform="matrix(1 0 0 -1 0 538)" d="M306.904 356.497L306.904 357.113L306.904 357.113L302.55 357.113L302.55 357.113L302.55 358.233L302.55 358.233L302.018 358.233L302.018 358.233L302.018 355.377L302.018 355.377L302.55 355.377L302.55 355.377L302.55 356.497z" stroke="none" fill="#221E1F" fill-rule="evenodd" /><path id="967" transform="matrix(1 0 0 -1 0 538)" d="M306.904 358.898L306.904 361.264L306.904 361.264L306.372 361.264L306.372 361.264L306.372 359.514L306.372 359.514L304.636 359.514L304.636 359.514L304.636 361.096L304.636 361.096L304.104 361.096L304.104 361.096L304.104 359.514L304.104 359.514L302.55 359.514L302.55 359.514L302.55 361.173L302.55 361.173L302.018 361.173L302.018 361.173L302.018 358.898z" stroke="none" fill="#221E1F" fill-rule="evenodd" /><path id="968" transform="matrix(1 0 0 -1 0 538)" d="M306.904 362.139L306.904 362.7271L306.904 362.7271L302.69 362.7271L302.69 362.7271L302.69 362.741L302.69 362.741L306.904 364.071L306.904 364.071L306.904 364.519L306.904 364.519L302.69 365.905L302.69 365.905L302.69 365.919L302.69 365.919L306.904 365.919L306.904 365.919L306.904 366.507L306.904 366.507L302.018 366.507L302.018 366.507L302.018 365.583L302.018 365.583L305.903 364.33L305.903 364.33L305.903 364.316L305.903 364.316L302.018 363.091L302.018 363.091L302.018 362.139z" stroke="none" fill="#221E1F" fill-rule="evenodd" /><path id="969" transform="matrix(1 0 0 -1 0 538)" d="M306.904 367.585L306.904 369.951L306.904 369.951L306.372 369.951L306.372 369.951L306.372 368.201L306.372 368.201L304.636 368.201L304.636 368.201L304.636 369.783L304.636 369.783L304.104 369.783L304.104 369.783L304.104 368.201L304.104 368.201L302.55 368.201L302.55 368.201L302.55 369.86L302.55 369.86L302.018 369.86L302.018 369.86L302.018 367.585z" stroke="none" fill="#221E1F" fill-rule="evenodd" /><path id="970" transform="matrix(1 0 0 -1 0 538)" d="M306.904 370.826L306.904 371.414L306.904 371.414L302.9 371.414L302.9 371.414L302.9 371.428L302.9 371.428L306.904 373.269L306.904 373.269L306.904 374.032L306.904 374.032L302.018 374.032L302.018 374.032L302.018 373.444L302.018 373.444L306.05 373.444L306.05 373.444L306.05 373.43L306.05 373.43L302.018 371.5891L302.018 371.5891L302.018 370.826z" stroke="none" fill="#221E1F" fill-rule="evenodd" /><path id="971" transform="matrix(1 0 0 -1 0 538)" d="M306.904 375.817L306.904 376.433L306.904 376.433L302.55 376.433L302.55 376.433L302.55 377.553L302.55 377.553L302.018 377.553L302.018 377.553L302.018 374.697L302.018 374.697L302.55 374.697L302.55 374.697L302.55 375.817z" stroke="none" fill="#221E1F" fill-rule="evenodd" /><path id="972" transform="matrix(1 0 0 -1 0 538)" d="" stroke="none" fill="#221E1F" fill-rule="evenodd" /><path id="973" transform="matrix(1 0 0 -1 0 538)" d="M302.018 380.668L306.904 379.03L306.904 379.03L306.904 379.646L306.904 379.646L305.63 380.038L305.63 380.038L305.63 381.9L305.63 381.9L306.904 382.292L306.904 382.292L306.904 382.936L306.904 382.936L302.018 381.34zM305.098 380.206L302.662 380.976L302.662 380.976L302.662 380.99L302.662 380.99L305.098 381.739z" stroke="none" fill="#221E1F" fill-rule="evenodd" /><path id="974" transform="matrix(1 0 0 -1 0 538)" d="M302.018 386.338L302.018 385.722L302.018 385.722L305.196 385.722C 305.9614 385.722 306.449 385.3837 306.449 384.805C 306.449 384.217 305.9614 383.888 305.196 383.888L305.196 383.888L302.018 383.888L302.018 383.888L302.018 383.272L302.018 383.272L305.105 383.272C 305.5904 383.272 305.861 383.3 306.197 383.468C 306.6077 383.664 306.953 384.0957 306.953 384.805C 306.953 385.505 306.6077 385.9367 306.197 386.142C 305.861 386.31 305.5904 386.338 305.105 386.338z" stroke="none" fill="#221E1F" fill-rule="evenodd" /><path id="975" transform="matrix(1 0 0 -1 0 538)" d="" stroke="none" fill="#221E1F" fill-rule="evenodd" /><path id="976" transform="matrix(1 0 0 -1 0 538)" d="M302.13 391.112C 302.046 390.888 301.969 390.5474 301.969 390.23C 301.969 389.4834 302.3914 388.872 303.194 388.872C 303.8287 388.872 304.125 389.0634 304.657 389.95C 305.0583 390.6034 305.2777 390.706 305.651 390.706C 306.0524 390.706 306.421 390.3887 306.421 389.838C 306.421 389.5487 306.274 389.187 306.106 388.907L306.106 388.907L306.743 388.907C 306.8737 389.159 306.953 389.537 306.953 389.929C 306.953 390.8624 306.351 391.35 305.567 391.35C 305.007 391.35 304.5847 391.098 304.146 390.342C 303.7447 389.642 303.5464 389.516 303.229 389.516C 302.8184 389.516 302.501 389.8124 302.501 390.279C 302.501 390.5777 302.585 390.8787 302.725 391.112z" stroke="none" fill="#221E1F" fill-rule="evenodd" /><path id="977" transform="matrix(1 0 0 -1 0 538)" d="M302.018 393.359L306.904 391.721L306.904 391.721L306.904 392.337L306.904 392.337L305.63 392.729L305.63 392.729L305.63 394.591L305.63 394.591L306.904 394.983L306.904 394.983L306.904 395.627L306.904 395.627L302.018 394.031zM305.098 392.897L302.662 393.667L302.662 393.667L302.662 393.681L302.662 393.681L305.098 394.43z" stroke="none" fill="#221E1F" fill-rule="evenodd" /><path id="978" transform="matrix(1 0 0 -1 0 538)" d="M302.018 399.0291L302.018 398.4131L302.018 398.4131L305.196 398.4131C 305.9614 398.4131 306.449 398.0747 306.449 397.496C 306.449 396.9081 305.9614 396.579 305.196 396.579L305.196 396.579L302.018 396.579L302.018 396.579L302.018 395.963L302.018 395.963L305.105 395.963C 305.5904 395.963 305.861 395.991 306.197 396.159C 306.6077 396.355 306.953 396.7867 306.953 397.496C 306.953 398.196 306.6077 398.6277 306.197 398.833C 305.861 399.001 305.5904 399.0291 305.105 399.0291z" stroke="none" fill="#221E1F" fill-rule="evenodd" /></g></g></svg>