<svg xmlns="http://www.w3.org/2000/svg" xmlns:xlink="http://www.w3.org/1999/xlink" id="body_3" preserveAspectRatio="xMinYMin meet" viewBox="0 0 509 717"><defs><clipPath id="1"><path id="" clip-rule="evenodd" d="M0 538L0 -0.8049927L0 -0.8049927L382.804 -0.8049927L382.804 -0.8049927L382.804 538L382.804 538L0 538z" /></clipPath><clipPath id="2"><path id="" clip-rule="evenodd" d="M56.355 414.015L311.473 414.015L311.473 414.015L311.473 416.526L311.473 416.526L56.355 416.526z" /></clipPath></defs><g transform="matrix(1.333333 0 0 1.333333 0 0)"><g clip-path="url(#1)"><path id="1" transform="matrix(1 0 0 -1 0 538)" d="M328.48 390.473L367.315 390.473L367.315 525.118L328.48 525.118z" stroke="none" fill="#F7931D" fill-rule="nonzero" /><path id="2" transform="matrix(1 0 0 -1 0 538)" d="M328.48 525.118L367.315 525.118L367.315 525.118L367.315 390.473L367.315 390.473L328.48 390.473z" stroke="#F7931D" stroke-width="0.5" fill="none" /><path id="3" transform="matrix(1 0 0 -1 0 538)" d="M335.6349 424.4702L335.6349 422.9579C 335.9747 422.8559 336.2806 422.6718 336.2806 422.1847C 336.2806 421.9128 336.173 421.7004 336.0257 421.5985C 335.8558 421.4626 335.6406 421.3691 334.5304 421.3691C 333.4316 421.3691 333.2164 421.4626 333.0351 421.5985C 332.8992 421.7004 332.7802 421.9128 332.7802 422.1847C 332.7802 422.6718 333.0861 422.8559 333.4259 422.9579L333.4259 422.9579L333.4259 424.4702C 332.1006 424.2436 331.4549 423.3203 331.4549 422.1762C 331.4549 421.4626 331.6927 420.9358 332.1346 420.494C 332.7802 419.8483 333.6242 419.8823 334.5304 419.8823C 335.448 419.8823 336.2919 419.8483 336.9263 420.494C 337.3681 420.9358 337.606 421.4626 337.606 422.1762C 337.606 423.3203 336.9716 424.2436 335.6349 424.4702z" stroke="none" fill="#FFFFFF" fill-rule="evenodd" /><path id="4" transform="matrix(1 0 0 -1 0 538)" d="M335.2696 428.9475C 334.386 428.9475 333.9385 428.8201 333.5194 428.4463C 333.2362 428.1744 332.9332 427.7128 332.9332 426.9765C 332.9332 426.2288 333.2362 425.7785 333.5194 425.5067C 333.9385 425.1215 334.386 425.0054 335.2696 425.0054C 336.1758 425.0054 336.6119 425.1215 337.0197 425.5067C 337.3143 425.7785 337.606 426.2288 337.606 426.9765C 337.606 427.7128 337.3143 428.1744 337.0197 428.4463C 336.6119 428.8201 336.1758 428.9475 335.2696 428.9475zM335.2696 427.5542C 335.7227 427.5542 336.0512 427.5202 336.2211 427.3503C 336.3117 427.2597 336.3486 427.1464 336.3486 426.9765C 336.3486 426.8065 336.3117 426.6819 336.2211 426.6026C 336.0512 426.4214 335.7227 426.3987 335.2696 426.3987C 334.8278 426.3987 334.4993 426.4214 334.318 426.6026C 334.2387 426.6819 334.1906 426.8065 334.1906 426.9765C 334.1906 427.1464 334.2387 427.2597 334.318 427.3503C 334.4993 427.5202 334.8278 427.5542 335.2696 427.5542z" stroke="none" fill="#FFFFFF" fill-rule="evenodd" /><path id="5" transform="matrix(1 0 0 -1 0 538)" d="M337.555 433.7478L334.6324 433.7478C 334.1566 433.7478 333.7205 433.6741 333.324 433.289C 333.0861 433.0398 332.9332 432.6914 332.9332 432.261C 332.9332 431.8871 333.0861 431.4709 333.358 431.199L333.358 431.199L332.9841 431.199L332.9841 431.199L332.9841 429.8396L332.9841 429.8396L337.555 429.8396L337.555 429.8396L337.555 431.233L337.555 431.233L334.8193 431.233C 334.2982 431.233 334.1906 431.6011 334.1906 431.7937C 334.1906 431.9749 334.2982 432.3544 334.8193 432.3544L334.8193 432.3544L337.555 432.3544z" stroke="none" fill="#FFFFFF" fill-rule="evenodd" /><path id="6" transform="matrix(1 0 0 -1 0 538)" d="M337.555 438.5395L331.5058 438.5395L331.5058 438.5395L331.5058 437.1462L331.5058 437.1462L333.3155 437.1462C 333.0663 436.8856 332.9332 436.5685 332.9332 436.1266C 332.9332 435.6849 333.0889 435.2827 333.3495 435.0222C 333.8026 434.5691 334.6012 434.5974 335.2696 434.5974C 335.9492 434.5974 336.7479 434.5691 337.1897 435.0222C 337.4615 435.2827 337.606 435.6934 337.606 436.1352C 337.606 436.6109 337.4644 436.9055 337.1812 437.1887L337.1812 437.1887L337.555 437.1887zM335.2696 437.1462C 335.9379 437.1462 336.3486 437.0782 336.3486 436.5685C 336.3486 436.0474 335.9379 435.9907 335.2696 435.9907C 334.6125 435.9907 334.1906 436.0474 334.1906 436.5685C 334.1906 437.0782 334.6125 437.1462 335.2696 437.1462z" stroke="none" fill="#FFFFFF" fill-rule="evenodd" /><path id="7" transform="matrix(1 0 0 -1 0 538)" d="M337.555 443.4587L332.9841 443.4587L332.9841 443.4587L332.9841 442.0654L332.9841 442.0654L335.7198 442.0654C 336.2523 442.0654 336.3486 441.6859 336.3486 441.5046C 336.3486 441.312 336.2523 440.9439 335.7198 440.9439L335.7198 440.9439L332.9841 440.9439L332.9841 440.9439L332.9841 439.5505L332.9841 439.5505L335.9068 439.5505C 336.3939 439.5505 336.83 439.6129 337.2151 440.0093C 337.4644 440.2472 337.606 440.5956 337.606 441.0374C 337.606 441.3998 337.4644 441.8162 337.1812 442.0993L337.1812 442.0993L337.555 442.0993z" stroke="none" fill="#FFFFFF" fill-rule="evenodd" /><path id="8" transform="matrix(1 0 0 -1 0 538)" d="M332.5169 445.9055L331.4549 445.9055L331.4549 445.9055L331.4549 444.5122L331.4549 444.5122L332.5169 444.5122zM337.555 445.9055L333.1626 445.9055L333.1626 445.9055L333.1626 444.5122L333.1626 444.5122L337.555 444.5122z" stroke="none" fill="#FFFFFF" fill-rule="evenodd" /><path id="9" transform="matrix(1 0 0 -1 0 538)" d="M337.555 449.1765L336.3825 449.1765L336.3825 449.1765L336.3825 448.7347C 336.3825 448.5421 336.2834 448.4543 336.1022 448.4543L336.1022 448.4543L334.2331 448.4543L334.2331 448.4543L334.2331 449.1765L334.2331 449.1765L333.1626 449.1765L333.1626 449.1765L333.1626 448.4543L333.1626 448.4543L331.8542 448.4543L331.8542 448.4543L331.8542 447.061L331.8542 447.061L333.1626 447.061L333.1626 447.061L333.1626 446.6447L333.1626 446.6447L334.2331 446.6447L334.2331 446.6447L334.2331 447.061L334.2331 447.061L336.2041 447.061C 336.8385 447.061 337.555 447.4603 337.555 448.4799z" stroke="none" fill="#FFFFFF" fill-rule="evenodd" /><path id="10" transform="matrix(1 0 0 -1 0 538)" d="M335.7198 453.9428L335.0996 453.9428C 333.9102 453.9428 332.9332 453.2121 332.9332 451.8867C 332.9332 450.686 333.7743 449.8392 335.2696 449.8392C 337.2406 449.8392 337.606 450.9947 337.606 452.0142C 337.606 452.8638 337.3596 453.3141 336.8838 453.7899L336.8838 453.7899L336.0512 452.9572C 336.3004 452.708 336.4335 452.49 336.4335 452.0142C 336.4335 451.4931 336.0937 451.2071 335.7198 451.2071zM334.7938 452.5664L334.7938 451.2071C 334.6918 451.2071 334.5616 451.2155 334.437 451.2835C 334.2444 451.3628 334.0801 451.5469 334.0801 451.8867C 334.0801 452.2152 334.2444 452.3993 334.437 452.49C 334.5616 452.5466 334.6918 452.5664 334.7938 452.5664z" stroke="none" fill="#FFFFFF" fill-rule="evenodd" /><path id="11" transform="matrix(1 0 0 -1 0 538)" d="" stroke="none" fill="#FFFFFF" fill-rule="evenodd" /><path id="12" transform="matrix(1 0 0 -1 0 538)" d="M337.555 460.2553L334.5899 460.2553C 333.4797 460.2553 332.9332 459.5445 332.9332 458.2418C 332.9332 457.4601 333.0804 457.041 333.5449 456.5765L333.5449 456.5765L334.4115 457.4431C 334.1962 457.6584 334.1056 457.8113 334.1056 458.1738C 334.1056 458.6496 334.267 458.8619 334.6748 458.8619L334.6748 458.8619L334.7938 458.8619L334.7938 458.8619L334.7938 457.9359C 334.7938 456.8484 335.4395 456.3811 336.1192 456.3811C 336.5496 456.3811 336.9291 456.5085 337.1897 456.7804C 337.4502 457.0297 337.5975 457.412 337.5975 457.8764C 337.5975 458.3522 337.4644 458.6127 337.1812 458.8959L337.1812 458.8959L337.555 458.8959zM335.8388 458.8619C 336.0654 458.8619 336.207 458.828 336.2976 458.726C 336.4449 458.5674 336.4675 458.4456 336.4675 458.1738C 336.4675 457.8679 336.2891 457.715 336.0852 457.715C 335.8813 457.715 335.7198 457.8849 335.7198 458.1568L335.7198 458.1568L335.7198 458.8619zM332.3724 458.9044L330.8431 458.4881L330.8431 458.4881L330.8431 457.0608L330.8431 457.0608L332.3724 458.0633z" stroke="none" fill="#FFFFFF" fill-rule="evenodd" /><path id="13" transform="matrix(1 0 0 -1 0 538)" d="" stroke="none" fill="#FFFFFF" fill-rule="evenodd" /><path id="14" transform="matrix(1 0 0 -1 0 538)" d="M337.555 465.3359L336.3825 465.3359L336.3825 465.3359L336.3825 464.8941C 336.3825 464.7015 336.2834 464.6137 336.1022 464.6137L336.1022 464.6137L334.2331 464.6137L334.2331 464.6137L334.2331 465.3359L334.2331 465.3359L333.1626 465.3359L333.1626 465.3359L333.1626 464.6137L333.1626 464.6137L331.8542 464.6137L331.8542 464.6137L331.8542 463.2204L331.8542 463.2204L333.1626 463.2204L333.1626 463.2204L333.1626 462.8041L333.1626 462.8041L334.2331 462.8041L334.2331 462.8041L334.2331 463.2204L334.2331 463.2204L336.2041 463.2204C 336.8385 463.2204 337.555 463.6197 337.555 464.6393z" stroke="none" fill="#FFFFFF" fill-rule="evenodd" /><path id="15" transform="matrix(1 0 0 -1 0 538)" d="M335.7198 470.1022L335.0996 470.1022C 333.9102 470.1022 332.9332 469.3715 332.9332 468.0461C 332.9332 466.8454 333.7743 465.9986 335.2696 465.9986C 337.2406 465.9986 337.606 467.1541 337.606 468.1736C 337.606 469.0232 337.3596 469.4734 336.8838 469.9492L336.8838 469.9492L336.0512 469.1166C 336.3004 468.8674 336.4335 468.6494 336.4335 468.1736C 336.4335 467.6525 336.0937 467.3665 335.7198 467.3665zM334.7938 468.7258L334.7938 467.3665C 334.6918 467.3665 334.5616 467.3749 334.437 467.4429C 334.2444 467.5222 334.0801 467.7063 334.0801 468.0461C 334.0801 468.3746 334.2444 468.5587 334.437 468.6494C 334.5616 468.706 334.6918 468.7258 334.7938 468.7258z" stroke="none" fill="#FFFFFF" fill-rule="evenodd" /><path id="16" transform="matrix(1 0 0 -1 0 538)" d="M337.555 474.8599L334.6324 474.8599C 334.1566 474.8599 333.7205 474.7863 333.324 474.4012C 333.0861 474.1519 332.9332 473.8036 332.9332 473.3731C 332.9332 472.9993 333.0861 472.583 333.358 472.3111L333.358 472.3111L332.9841 472.3111L332.9841 472.3111L332.9841 470.9518L332.9841 470.9518L337.555 470.9518L337.555 470.9518L337.555 472.3451L337.555 472.3451L334.8193 472.3451C 334.2982 472.3451 334.1906 472.7133 334.1906 472.9059C 334.1906 473.0871 334.2982 473.4666 334.8193 473.4666L334.8193 473.4666L337.555 473.4666z" stroke="none" fill="#FFFFFF" fill-rule="evenodd" /><path id="17" transform="matrix(1 0 0 -1 0 538)" d="M332.5169 477.2643L331.4549 477.2643L331.4549 477.2643L331.4549 475.8709L331.4549 475.8709L332.5169 475.8709zM337.555 477.2643L333.1626 477.2643L333.1626 477.2643L333.1626 475.8709L333.1626 475.8709L337.555 475.8709z" stroke="none" fill="#FFFFFF" fill-rule="evenodd" /><path id="18" transform="matrix(1 0 0 -1 0 538)" d="M333.358 481.8266C 333.0521 481.5095 332.9332 481.1979 332.9332 480.7561C 332.9332 480.2804 333.1541 479.881 333.358 479.6772L333.358 479.6772L332.9841 479.6772L332.9841 479.6772L332.9841 478.3178L332.9841 478.3178L337.555 478.3178L337.555 478.3178L337.555 479.7112L337.555 479.7112L334.8193 479.7112C 334.3095 479.7112 334.1906 480.0793 334.1906 480.2719C 334.1906 480.5098 334.2925 480.6372 334.4285 480.7731z" stroke="none" fill="#FFFFFF" fill-rule="evenodd" /><path id="53" transform="matrix(1 0 0 -1 0 538)" d="M56.35498 474.774L281.605 474.774M281.708 499.606L281.708 474.775M281.708 499.606L328.48 499.606M328.48 499.606L328.48 65.90598" stroke="#221E1F" stroke-width="0.5" stroke-linecap="square" fill="none" /><path id="54" transform="matrix(1 0 0 -1 0 538)" d="M287.378 474.775L322.811 474.775L322.811 492.633L287.378 492.633z" stroke="none" fill="#FCC689" fill-rule="nonzero" /><path id="55" transform="matrix(1 0 0 -1 0 538)" d="M318.73 478.833L316.559 478.833L316.559 478.833L316.559 477.42L316.559 477.42L319.209 477.481L319.209 477.481L319.272 477.42L319.272 477.42L319.167 475.215L319.167 475.215L319.074 475.126L319.074 475.126L317.092 475.141C 315.861 475.141 315.182 475.111 314.051 475.038L314.051 475.038L313.996 475.128L313.996 475.128L314.038 479.246L314.038 479.246L313.965 486.05L313.965 486.05L314.029 486.147L314.029 486.147L319.032 486.147L319.032 486.147L319.083 486.082L319.083 486.082L319.011 483.88L319.011 483.88L318.948 483.801L318.948 483.801L316.538 483.801L316.538 483.801L316.538 481.146L316.538 481.146L318.824 481.221L318.824 481.221L318.886 481.097L318.886 481.097L318.803 478.932M311.095 475.038L311.043 475.139L311.043 475.139L311.082 478.749L311.082 478.749L311.071 480.092L311.071 480.092L309.939 480.109C 309.413 480.109 308.995 480.092 308.363 480.059L308.363 480.059L308.363 475.173L308.363 475.173L308.318 475.089L308.318 475.089L305.874 475.038L305.874 475.038L305.822 475.122L305.822 475.122L305.863 481.673L305.863 481.673L305.811 484.963L305.811 484.963L305.853 485.75C 306.162 485.595 306.474 485.595 306.796 485.595C 307.304 485.595 307.765 485.905 308.318 486.216L308.318 486.216L308.363 485.284L308.363 485.284L308.363 482.387L308.363 482.387L311.071 482.387L311.071 482.387L311.017 484.974L311.017 484.974L311.082 485.75L311.082 485.75L313.572 486.216L313.572 486.216L313.624 485.595L313.624 485.595L313.582 480.421L313.582 480.421L313.624 475.14L313.624 475.14L313.572 475.038L313.572 475.038L311.095 475.038zM305.531 475.595L305.48 475.506C 304.189 475.267 303.781 475.059 303.125 475.059C 302.055 475.059 301.293 475.521 300.741 476.116C 299.667 477.278 299.413 479.109 299.413 480.487C 299.413 484.259 301.039 486.195 303.09 486.195C 303.869 486.195 304.322 485.882 305.5 485.644L305.5 485.644L305.542 485.54L305.542 485.54L305.449 483.06L305.449 483.06L304.578 482.999C 304.401 483.259 304.074 483.752 303.445 483.752C 302.745 483.752 301.912 482.999 301.912 480.625C 301.912 478.145 302.808 477.502 303.525 477.502C 304.154 477.502 304.517 477.961 305.522 478.191L305.522 478.191L305.605 478.129L305.605 478.129L305.531 475.595zM298.334 475.109L298.292 475.038L298.292 475.038L295.808 475.038L295.808 475.038L295.762 475.109L295.762 475.109L295.784 478.866L295.784 478.866L295.808 481.289L295.808 481.289L295.74 484.974L295.74 484.974L295.796 485.75C 296.914 485.595 297.155 485.595 298.272 486.216L298.272 486.216L298.314 485.44L298.314 485.44L298.262 481.119L298.262 481.119L298.334 475.109zM294.811 478.833L292.63 478.833L292.63 478.833L292.698 475.121L292.698 475.121L292.618 475.038L292.618 475.038L290.202 475.038L290.202 475.038L290.125 475.12L290.125 475.12L290.156 478.086L290.156 478.086L290.166 480.536L290.166 480.536L290.094 484.974L290.094 484.974L290.156 485.684C 292.88 485.506 293.453 485.684 295.123 486.216L295.123 486.216L295.197 485.329L295.197 485.329L295.113 483.91L295.113 483.91L295.039 483.801L295.039 483.801L292.66 483.801L292.66 483.801L292.671 481.131L292.671 481.131L294.926 481.22L294.926 481.22L294.978 481.147L294.978 481.147L294.884 478.945L294.884 478.945L294.811 478.833z" stroke="none" fill="#F7931D" fill-rule="evenodd" /><path id="244" transform="matrix(1 0 0 -1 0 538)" d="M56.355 290.717L311.473 290.717L311.473 355.217L56.355 355.217z" stroke="none" fill="#FEE6CB" fill-rule="nonzero" /><g clip-path="url(#2)"><path id="606" transform="matrix(1 0 0 -1 0 538)" d="M56.355 122.985L509.898 122.985" stroke="#F7931D" stroke-width="0.4" stroke-linecap="square" fill="none" /></g><path id="659" transform="matrix(1 0 0 -1 0 538)" d="M56.355 137.717L311.473 137.717L311.473 278.717L56.355 278.717z" stroke="none" fill="#FFFFFF" fill-rule="nonzero" /><path id="660" transform="matrix(1 0 0 -1 0 538)" d="M239.952 205.447C 239.952 198.82 229.891 193.447 217.485 193.447L217.485 193.447L150.078 193.447C 137.668 193.447 127.607 198.82 127.607 205.447L127.607 205.447L127.607 209.51C 127.607 216.137 137.668 221.51 150.078 221.51L150.078 221.51L217.485 221.51C 229.891 221.51 239.952 216.137 239.952 209.51L239.952 209.51L239.952 205.447" stroke="none" fill="#EE1C23" fill-rule="nonzero" /><path id="661" transform="matrix(1 0 0 -1 0 538)" d="M239.9526 205.4466C 239.9526 198.8192 229.8909 193.447 217.4854 193.447L217.4854 193.447L150.0778 193.447C 137.6672 193.447 127.6076 198.8192 127.6076 205.4466L127.6076 205.4466L127.6076 209.5096C 127.6076 216.137 137.6672 221.5093 150.0778 221.5093L150.0778 221.5093L217.4854 221.5093C 229.8909 221.5093 239.9526 216.137 239.9526 209.5096L239.9526 209.5096L239.9526 205.4466z" stroke="#221E1F" stroke-width="0.4981396" stroke-linecap="round" fill="none" /><path id="668" transform="matrix(1 0 0 -1 0 538)" d="M111.571 261.273C 111.571 251.786 99.266 244.096 84.087 244.096C 68.908 244.096 56.603 251.786 56.603 261.273C 56.603 270.759 68.908 278.449 84.087 278.449C 99.266 278.449 111.571 270.759 111.571 261.273" stroke="none" fill="#FFFFFF" fill-rule="nonzero" /><path id="669" transform="matrix(1 0 0 -1 0 538)" d="M111.5713 261.2717C 111.5713 251.7854 99.26654 244.0962 84.08676 244.0962C 68.90797 244.0962 56.60323 251.7854 56.60323 261.2717C 56.60323 270.7581 68.90797 278.4483 84.08676 278.4483C 99.26654 278.4483 111.5713 270.7581 111.5713 261.2717z" stroke="#221E1F" stroke-width="0.4981396" fill="none" /><path id="678" transform="matrix(1 0 0 -1 0 538)" d="M211.208 261.272C 211.208 251.786 198.902 244.096 183.723 244.096C 168.544 244.096 156.239 251.786 156.239 261.272C 156.239 270.759 168.544 278.449 183.723 278.449C 198.902 278.449 211.208 270.759 211.208 261.272" stroke="none" fill="#FFFFFF" fill-rule="nonzero" /><path id="679" transform="matrix(1 0 0 -1 0 538)" d="M211.2072 261.2717C 211.2072 251.7854 198.9025 244.0962 183.7227 244.0962C 168.5439 244.0962 156.2392 251.7854 156.2392 261.2717C 156.2392 270.7581 168.5439 278.4483 183.7227 278.4483C 198.9025 278.4483 211.2072 270.7581 211.2072 261.2717z" stroke="#221E1F" stroke-width="0.4981396" fill="none" /><path id="689" transform="matrix(1 0 0 -1 0 538)" d="M310.842 261.272C 310.842 251.786 298.538 244.096 283.358 244.096C 268.181 244.096 255.875 251.786 255.875 261.272C 255.875 270.759 268.181 278.449 283.358 278.449C 298.538 278.449 310.842 270.759 310.842 261.272" stroke="none" fill="#FFFFFF" fill-rule="nonzero" /><path id="690" transform="matrix(1 0 0 -1 0 538)" d="M310.8421 261.2717C 310.8421 251.7854 298.5374 244.0962 283.3586 244.0962C 268.1808 244.0962 255.875 251.7854 255.875 261.2717C 255.875 270.7581 268.1808 278.4483 283.3586 278.4483C 298.5374 278.4483 310.8421 270.7581 310.8421 261.2717z" stroke="#221E1F" stroke-width="0.4981396" fill="none" /><path id="699" transform="matrix(1 0 0 -1 0 538)" d="M112.614 155.142C 112.614 145.656 100.309 137.967 85.13 137.967C 69.951 137.967 57.646 145.656 57.646 155.142C 57.646 164.629 69.951 172.319 85.13 172.319C 100.309 172.319 112.614 164.629 112.614 155.142" stroke="none" fill="#FFFFFF" fill-rule="nonzero" /><path id="700" transform="matrix(1 0 0 -1 0 538)" d="M112.6145 155.142C 112.6145 145.6557 100.3088 137.9665 85.12997 137.9665C 69.95119 137.9665 57.64544 145.6557 57.64544 155.142C 57.64544 164.6284 69.95119 172.3186 85.12997 172.3186C 100.3088 172.3186 112.6145 164.6284 112.6145 155.142z" stroke="#221E1F" stroke-width="0.4981396" fill="none" /><path id="727" transform="matrix(1 0 0 -1 0 538)" d="M211.728 155.143C 211.728 145.657 199.421 137.967 184.244 137.967C 169.065 137.967 156.76 145.657 156.76 155.143C 156.76 164.63 169.065 172.319 184.244 172.319C 199.421 172.319 211.728 164.63 211.728 155.143" stroke="none" fill="#FFFFFF" fill-rule="nonzero" /><path id="728" transform="matrix(1 0 0 -1 0 538)" d="M211.7283 155.143C 211.7283 145.6567 199.4216 137.9665 184.2438 137.9665C 169.065 137.9665 156.7602 145.6567 156.7602 155.143C 156.7602 164.6294 169.065 172.3186 184.2438 172.3186C 199.4216 172.3186 211.7283 164.6294 211.7283 155.143z" stroke="#221E1F" stroke-width="0.4981396" fill="none" /><path id="744" transform="matrix(1 0 0 -1 0 538)" d="M310.842 155.143C 310.842 145.657 298.538 137.967 283.358 137.967C 268.181 137.967 255.875 145.657 255.875 155.143C 255.875 164.629 268.181 172.319 283.358 172.319C 298.538 172.319 310.842 164.629 310.842 155.143" stroke="none" fill="#FFFFFF" fill-rule="nonzero" /><path id="745" transform="matrix(1 0 0 -1 0 538)" d="M310.8421 155.143C 310.8421 145.6567 298.5374 137.9665 283.3586 137.9665C 268.1808 137.9665 255.875 145.6567 255.875 155.143C 255.875 164.6284 268.1808 172.3186 283.3586 172.3186C 298.5374 172.3186 310.8421 164.6284 310.8421 155.143z" stroke="#221E1F" stroke-width="0.4981396" fill="none" /><path id="746" transform="matrix(1 0 0 -1 0 538)" d="M183.2405 229.9909L183.2405 237.642" stroke="#221E1F" stroke-width="0.4981396" stroke-linecap="round" fill="none" /><path id="747" transform="matrix(1 0 0 -1 0 538)" d="M183.24 243.553L186.772 237.416L179.71 237.416L181.475 240.485L183.24 243.553" stroke="none" fill="#221E1F" fill-rule="nonzero" /><path id="748" transform="matrix(1 0 0 -1 0 538)" d="M183.2415 184.9463L183.2415 178.8088M183.2405 243.5522L186.7724 237.4156L186.7724 237.4156L179.7096 237.4156L179.7096 237.4156L181.4756 240.4839L181.4756 240.4839L183.2405 243.5522z" stroke="#221E1F" stroke-width="0.4981396" stroke-linecap="round" fill="none" /><path id="749" transform="matrix(1 0 0 -1 0 538)" d="M183.241 172.899L181.476 175.967L179.71 179.035L186.772 179.035L185.007 175.967L183.241 172.899" stroke="none" fill="#221E1F" fill-rule="nonzero" /><path id="750" transform="matrix(1 0 0 -1 0 538)" d="M129.8447 184.9443L113.6188 172.2865M183.2415 172.8986L181.4766 175.9669L181.4766 175.9669L179.7096 179.0352L179.7096 179.0352L186.7724 179.0352L186.7724 179.0352L185.0075 175.9669L185.0075 175.9669L183.2415 172.8986z" stroke="#221E1F" stroke-width="0.4981396" stroke-linecap="round" fill="none" /><path id="751" transform="matrix(1 0 0 -1 0 538)" d="M109.28 168.929L112.792 169.322L116.304 169.713L112.154 175.803L110.717 172.366L109.28 168.929" stroke="none" fill="#221E1F" fill-rule="nonzero" /><path id="752" transform="matrix(1 0 0 -1 0 538)" d="M235.3585 184.9724L254.193 170.9172M109.2803 168.9288L112.7912 169.3214L112.7912 169.3214L116.3041 169.7121L116.3041 169.7121L112.1543 175.8026L112.1543 175.8026L110.7168 172.3657L110.7168 172.3657L109.2803 168.9288z" stroke="#221E1F" stroke-width="0.4981396" stroke-linecap="round" fill="none" /><path id="753" transform="matrix(1 0 0 -1 0 538)" d="M258.532 167.645L255.021 168.028L251.508 168.409L253.584 171.378L255.658 174.346L257.096 170.995L258.532 167.645" stroke="none" fill="#221E1F" fill-rule="nonzero" /><path id="754" transform="matrix(1 0 0 -1 0 538)" d="M237.2103 230.1552L253.7118 243.0874M258.5325 167.6446L255.0215 168.0272L255.0215 168.0272L251.5086 168.4089L251.5086 168.4089L253.584 171.378L253.584 171.378L255.6584 174.3451L255.6584 174.3451L257.0959 170.9943L257.0959 170.9943L258.5325 167.6446z" stroke="#221E1F" stroke-width="0.4981396" stroke-linecap="round" fill="none" /><path id="755" transform="matrix(1 0 0 -1 0 538)" d="M258.051 246.447L251.027 245.662L253.103 242.617L255.177 239.572L258.051 246.447" stroke="none" fill="#221E1F" fill-rule="nonzero" /><path id="756" transform="matrix(1 0 0 -1 0 538)" d="M128.7786 230.3555L112.897 241.9284M258.0503 246.4462L251.0274 245.6618L251.0274 245.6618L253.1028 242.6166L253.1028 242.6166L255.1763 239.5714L255.1763 239.5714L258.0503 246.4462z" stroke="#221E1F" stroke-width="0.4981396" stroke-linecap="round" fill="none" /><path id="757" transform="matrix(1 0 0 -1 0 538)" d="M108.558 245.092L115.581 244.353L111.431 238.619L109.995 241.855L108.558 245.092" stroke="none" fill="#221E1F" fill-rule="nonzero" /><path id="758" transform="matrix(1 0 0 -1 0 538)" d="M108.5575 245.0909L115.5814 244.3526L115.5814 244.3526L111.4315 238.6177L111.4315 238.6177L109.995 241.8543L109.995 241.8543L108.5575 245.0909z" stroke="#221E1F" stroke-width="0.4981396" stroke-linecap="round" fill="none" /></g></g></svg>