<svg xmlns="http://www.w3.org/2000/svg" xmlns:xlink="http://www.w3.org/1999/xlink" id="body_1" preserveAspectRatio="xMinYMin meet" viewBox="0 0 509 717"><defs><clipPath id="1"><path id="" clip-rule="evenodd" d="M0 538L0 -0.8049927L0 -0.8049927L382.804 -0.8049927L382.804 -0.8049927L382.804 538L382.804 538L0 538z" /></clipPath></defs><g transform="matrix(1.333333 0 0 1.333333 0 0)"><g clip-path="url(#1)"><path id="1" transform="matrix(1 0 0 -1 0 538)" d="M281.708 499.606L281.708 474.775" stroke="#221E1F" stroke-width="0.5" stroke-linecap="square" fill="none" /><path id="2" transform="matrix(1 0 0 -1 0 538)" d="M56.355 465.591L322.641 465.591L322.641 486L56.355 486z" stroke="none" fill="#F7931D" fill-rule="nonzero" /><path id="6" transform="matrix(1 0 0 -1 0 538)" d="M281.708 499.606L328.48 499.606" stroke="#221E1F" stroke-width="0.5" stroke-linecap="square" fill="none" /><path id="7" transform="matrix(1 0 0 -1 0 538)" d="M287.378 474.775L322.811 474.775L322.811 494.883L287.378 494.883z" stroke="none" fill="#F7931D" fill-rule="nonzero" /><path id="8" transform="matrix(1 0 0 -1 0 538)" d="M318.73 471.716L316.559 471.716L316.559 471.716L316.559 469.724L316.559 469.724L319.209 469.81L319.209 469.81L319.272 469.724L319.272 469.724L319.167 466.614L319.167 466.614L319.074 466.488L319.074 466.488L317.092 466.51C 315.861 466.51 315.182 466.468 314.051 466.365L314.051 466.365L313.996 466.492L313.996 466.492L314.038 472.299L314.038 472.299L313.965 481.894L313.965 481.894L314.029 482.031L314.029 482.031L319.032 482.031L319.032 482.031L319.083 481.939L319.083 481.939L319.011 478.834L319.011 478.834L318.948 478.723L318.948 478.723L316.538 478.723L316.538 478.723L316.538 474.978L316.538 474.978L318.824 475.084L318.824 475.084L318.886 474.909L318.886 474.909L318.803 471.856M311.095 466.365L311.043 466.507L311.043 466.507L311.082 471.598L311.082 471.598L311.071 473.492L311.071 473.492L309.939 473.516C 309.413 473.516 308.995 473.492 308.363 473.445L308.363 473.445L308.363 466.555L308.363 466.555L308.318 466.437L308.318 466.437L305.874 466.365L305.874 466.365L305.822 466.483L305.822 466.483L305.863 475.722L305.863 475.722L305.811 480.362L305.811 480.362L305.853 481.471C 306.162 481.253 306.474 481.253 306.796 481.253C 307.304 481.253 307.765 481.69 308.318 482.129L308.318 482.129L308.363 480.814L308.363 480.814L308.363 476.729L308.363 476.729L311.071 476.729L311.071 476.729L311.017 480.377L311.017 480.377L311.082 481.471L311.082 481.471L313.572 482.129L313.572 482.129L313.624 481.253L313.624 481.253L313.582 473.956L313.582 473.956L313.624 466.508L313.624 466.508L313.572 466.365L313.572 466.365L311.095 466.365zM305.531 467.15L305.48 467.025C 304.189 466.687 303.781 466.394 303.125 466.394C 302.055 466.394 301.293 467.046 300.741 467.885C 299.667 469.524 299.413 472.106 299.413 474.049C 299.413 479.369 301.039 482.099 303.09 482.099C 303.869 482.099 304.322 481.658 305.5 481.322L305.5 481.322L305.542 481.175L305.542 481.175L305.449 477.677L305.449 477.677L304.578 477.591C 304.401 477.958 304.074 478.654 303.445 478.654C 302.745 478.654 301.912 477.591 301.912 474.243C 301.912 470.746 302.808 469.84 303.525 469.84C 304.154 469.84 304.517 470.487 305.522 470.811L305.522 470.811L305.605 470.724L305.605 470.724L305.531 467.15zM298.334 466.465L298.292 466.365L298.292 466.365L295.808 466.365L295.808 466.365L295.762 466.465L295.762 466.465L295.784 471.763L295.784 471.763L295.808 475.18L295.808 475.18L295.74 480.377L295.74 480.377L295.796 481.471C 296.914 481.253 297.155 481.253 298.272 482.129L298.272 482.129L298.314 481.034L298.314 481.034L298.262 474.94L298.262 474.94L298.334 466.465zM294.811 471.716L292.63 471.716L292.63 471.716L292.698 466.482L292.698 466.482L292.618 466.365L292.618 466.365L290.202 466.365L290.202 466.365L290.125 466.48L290.125 466.48L290.156 470.663L290.156 470.663L290.166 474.118L290.166 474.118L290.094 480.377L290.094 480.377L290.156 481.378C 292.88 481.127 293.453 481.378 295.123 482.129L295.123 482.129L295.197 480.877L295.197 480.877L295.113 478.876L295.113 478.876L295.039 478.723L295.039 478.723L292.66 478.723L292.66 478.723L292.671 474.958L292.671 474.958L294.926 475.083L294.926 475.083L294.978 474.98L294.978 474.98L294.884 471.875L294.884 471.875L294.811 471.716z" stroke="none" fill="#FCBB74" fill-rule="evenodd" /><path id="9" transform="matrix(1 0 0 -1 0 538)" d="M328.48 390.473L367.315 390.473L367.315 525.118L328.48 525.118z" stroke="none" fill="#F7931D" fill-rule="nonzero" /><path id="10" transform="matrix(1 0 0 -1 0 538)" d="M328.48 525.118L367.315 525.118L367.315 525.118L367.315 390.473L367.315 390.473L328.48 390.473z" stroke="#F7931D" stroke-width="0.5" fill="none" /><path id="11" transform="matrix(1 0 0 -1 0 538)" d="M335.6349 424.4702L335.6349 422.9579C 335.9747 422.8559 336.2806 422.6718 336.2806 422.1847C 336.2806 421.9128 336.173 421.7004 336.0257 421.5985C 335.8558 421.4626 335.6406 421.3691 334.5304 421.3691C 333.4316 421.3691 333.2164 421.4626 333.0351 421.5985C 332.8992 421.7004 332.7802 421.9128 332.7802 422.1847C 332.7802 422.6718 333.0861 422.8559 333.4259 422.9579L333.4259 422.9579L333.4259 424.4702C 332.1006 424.2436 331.4549 423.3203 331.4549 422.1762C 331.4549 421.4626 331.6927 420.9358 332.1346 420.494C 332.7802 419.8483 333.6242 419.8823 334.5304 419.8823C 335.448 419.8823 336.2919 419.8483 336.9263 420.494C 337.3681 420.9358 337.606 421.4626 337.606 422.1762C 337.606 423.3203 336.9716 424.2436 335.6349 424.4702z" stroke="none" fill="#FFFFFF" fill-rule="evenodd" /><path id="12" transform="matrix(1 0 0 -1 0 538)" d="M335.2696 428.9475C 334.386 428.9475 333.9385 428.8201 333.5194 428.4463C 333.2362 428.1744 332.9332 427.7128 332.9332 426.9765C 332.9332 426.2288 333.2362 425.7785 333.5194 425.5067C 333.9385 425.1215 334.386 425.0054 335.2696 425.0054C 336.1758 425.0054 336.6119 425.1215 337.0197 425.5067C 337.3143 425.7785 337.606 426.2288 337.606 426.9765C 337.606 427.7128 337.3143 428.1744 337.0197 428.4463C 336.6119 428.8201 336.1758 428.9475 335.2696 428.9475zM335.2696 427.5542C 335.7227 427.5542 336.0512 427.5202 336.2211 427.3503C 336.3117 427.2597 336.3486 427.1464 336.3486 426.9765C 336.3486 426.8065 336.3117 426.6819 336.2211 426.6026C 336.0512 426.4214 335.7227 426.3987 335.2696 426.3987C 334.8278 426.3987 334.4993 426.4214 334.318 426.6026C 334.2387 426.6819 334.1906 426.8065 334.1906 426.9765C 334.1906 427.1464 334.2387 427.2597 334.318 427.3503C 334.4993 427.5202 334.8278 427.5542 335.2696 427.5542z" stroke="none" fill="#FFFFFF" fill-rule="evenodd" /><path id="13" transform="matrix(1 0 0 -1 0 538)" d="M337.555 433.7478L334.6324 433.7478C 334.1566 433.7478 333.7205 433.6741 333.324 433.289C 333.0861 433.0398 332.9332 432.6914 332.9332 432.261C 332.9332 431.8871 333.0861 431.4709 333.358 431.199L333.358 431.199L332.9841 431.199L332.9841 431.199L332.9841 429.8396L332.9841 429.8396L337.555 429.8396L337.555 429.8396L337.555 431.233L337.555 431.233L334.8193 431.233C 334.2982 431.233 334.1906 431.6011 334.1906 431.7937C 334.1906 431.9749 334.2982 432.3544 334.8193 432.3544L334.8193 432.3544L337.555 432.3544z" stroke="none" fill="#FFFFFF" fill-rule="evenodd" /><path id="14" transform="matrix(1 0 0 -1 0 538)" d="M337.555 438.5395L331.5058 438.5395L331.5058 438.5395L331.5058 437.1462L331.5058 437.1462L333.3155 437.1462C 333.0663 436.8856 332.9332 436.5685 332.9332 436.1266C 332.9332 435.6849 333.0889 435.2827 333.3495 435.0222C 333.8026 434.5691 334.6012 434.5974 335.2696 434.5974C 335.9492 434.5974 336.7479 434.5691 337.1897 435.0222C 337.4615 435.2827 337.606 435.6934 337.606 436.1352C 337.606 436.6109 337.4644 436.9055 337.1812 437.1887L337.1812 437.1887L337.555 437.1887zM335.2696 437.1462C 335.9379 437.1462 336.3486 437.0782 336.3486 436.5685C 336.3486 436.0474 335.9379 435.9907 335.2696 435.9907C 334.6125 435.9907 334.1906 436.0474 334.1906 436.5685C 334.1906 437.0782 334.6125 437.1462 335.2696 437.1462z" stroke="none" fill="#FFFFFF" fill-rule="evenodd" /><path id="15" transform="matrix(1 0 0 -1 0 538)" d="M337.555 443.4587L332.9841 443.4587L332.9841 443.4587L332.9841 442.0654L332.9841 442.0654L335.7198 442.0654C 336.2523 442.0654 336.3486 441.6859 336.3486 441.5046C 336.3486 441.312 336.2523 440.9439 335.7198 440.9439L335.7198 440.9439L332.9841 440.9439L332.9841 440.9439L332.9841 439.5505L332.9841 439.5505L335.9068 439.5505C 336.3939 439.5505 336.83 439.6129 337.2151 440.0093C 337.4644 440.2472 337.606 440.5956 337.606 441.0374C 337.606 441.3998 337.4644 441.8162 337.1812 442.0993L337.1812 442.0993L337.555 442.0993z" stroke="none" fill="#FFFFFF" fill-rule="evenodd" /><path id="16" transform="matrix(1 0 0 -1 0 538)" d="M332.5169 445.9055L331.4549 445.9055L331.4549 445.9055L331.4549 444.5122L331.4549 444.5122L332.5169 444.5122zM337.555 445.9055L333.1626 445.9055L333.1626 445.9055L333.1626 444.5122L333.1626 444.5122L337.555 444.5122z" stroke="none" fill="#FFFFFF" fill-rule="evenodd" /><path id="17" transform="matrix(1 0 0 -1 0 538)" d="M337.555 449.1765L336.3825 449.1765L336.3825 449.1765L336.3825 448.7347C 336.3825 448.5421 336.2834 448.4543 336.1022 448.4543L336.1022 448.4543L334.2331 448.4543L334.2331 448.4543L334.2331 449.1765L334.2331 449.1765L333.1626 449.1765L333.1626 449.1765L333.1626 448.4543L333.1626 448.4543L331.8542 448.4543L331.8542 448.4543L331.8542 447.061L331.8542 447.061L333.1626 447.061L333.1626 447.061L333.1626 446.6447L333.1626 446.6447L334.2331 446.6447L334.2331 446.6447L334.2331 447.061L334.2331 447.061L336.2041 447.061C 336.8385 447.061 337.555 447.4603 337.555 448.4799z" stroke="none" fill="#FFFFFF" fill-rule="evenodd" /><path id="18" transform="matrix(1 0 0 -1 0 538)" d="M335.7198 453.9428L335.0996 453.9428C 333.9102 453.9428 332.9332 453.2121 332.9332 451.8867C 332.9332 450.686 333.7743 449.8392 335.2696 449.8392C 337.2406 449.8392 337.606 450.9947 337.606 452.0142C 337.606 452.8638 337.3596 453.3141 336.8838 453.7899L336.8838 453.7899L336.0512 452.9572C 336.3004 452.708 336.4335 452.49 336.4335 452.0142C 336.4335 451.4931 336.0937 451.2071 335.7198 451.2071zM334.7938 452.5664L334.7938 451.2071C 334.6918 451.2071 334.5616 451.2155 334.437 451.2835C 334.2444 451.3628 334.0801 451.5469 334.0801 451.8867C 334.0801 452.2152 334.2444 452.3993 334.437 452.49C 334.5616 452.5466 334.6918 452.5664 334.7938 452.5664z" stroke="none" fill="#FFFFFF" fill-rule="evenodd" /><path id="19" transform="matrix(1 0 0 -1 0 538)" d="" stroke="none" fill="#FFFFFF" fill-rule="evenodd" /><path id="20" transform="matrix(1 0 0 -1 0 538)" d="M337.555 460.2553L334.5899 460.2553C 333.4797 460.2553 332.9332 459.5445 332.9332 458.2418C 332.9332 457.4601 333.0804 457.041 333.5449 456.5765L333.5449 456.5765L334.4115 457.4431C 334.1962 457.6584 334.1056 457.8113 334.1056 458.1738C 334.1056 458.6496 334.267 458.8619 334.6748 458.8619L334.6748 458.8619L334.7938 458.8619L334.7938 458.8619L334.7938 457.9359C 334.7938 456.8484 335.4395 456.3811 336.1192 456.3811C 336.5496 456.3811 336.9291 456.5085 337.1897 456.7804C 337.4502 457.0297 337.5975 457.412 337.5975 457.8764C 337.5975 458.3522 337.4644 458.6127 337.1812 458.8959L337.1812 458.8959L337.555 458.8959zM335.8388 458.8619C 336.0654 458.8619 336.207 458.828 336.2976 458.726C 336.4449 458.5674 336.4675 458.4456 336.4675 458.1738C 336.4675 457.8679 336.2891 457.715 336.0852 457.715C 335.8813 457.715 335.7198 457.8849 335.7198 458.1568L335.7198 458.1568L335.7198 458.8619zM332.3724 458.9044L330.8431 458.4881L330.8431 458.4881L330.8431 457.0608L330.8431 457.0608L332.3724 458.0633z" stroke="none" fill="#FFFFFF" fill-rule="evenodd" /><path id="21" transform="matrix(1 0 0 -1 0 538)" d="" stroke="none" fill="#FFFFFF" fill-rule="evenodd" /><path id="22" transform="matrix(1 0 0 -1 0 538)" d="M337.555 465.3359L336.3825 465.3359L336.3825 465.3359L336.3825 464.8941C 336.3825 464.7015 336.2834 464.6137 336.1022 464.6137L336.1022 464.6137L334.2331 464.6137L334.2331 464.6137L334.2331 465.3359L334.2331 465.3359L333.1626 465.3359L333.1626 465.3359L333.1626 464.6137L333.1626 464.6137L331.8542 464.6137L331.8542 464.6137L331.8542 463.2204L331.8542 463.2204L333.1626 463.2204L333.1626 463.2204L333.1626 462.8041L333.1626 462.8041L334.2331 462.8041L334.2331 462.8041L334.2331 463.2204L334.2331 463.2204L336.2041 463.2204C 336.8385 463.2204 337.555 463.6197 337.555 464.6393z" stroke="none" fill="#FFFFFF" fill-rule="evenodd" /><path id="23" transform="matrix(1 0 0 -1 0 538)" d="M335.7198 470.1022L335.0996 470.1022C 333.9102 470.1022 332.9332 469.3715 332.9332 468.0461C 332.9332 466.8454 333.7743 465.9986 335.2696 465.9986C 337.2406 465.9986 337.606 467.1541 337.606 468.1736C 337.606 469.0232 337.3596 469.4734 336.8838 469.9492L336.8838 469.9492L336.0512 469.1166C 336.3004 468.8674 336.4335 468.6494 336.4335 468.1736C 336.4335 467.6525 336.0937 467.3665 335.7198 467.3665zM334.7938 468.7258L334.7938 467.3665C 334.6918 467.3665 334.5616 467.3749 334.437 467.4429C 334.2444 467.5222 334.0801 467.7063 334.0801 468.0461C 334.0801 468.3746 334.2444 468.5587 334.437 468.6494C 334.5616 468.706 334.6918 468.7258 334.7938 468.7258z" stroke="none" fill="#FFFFFF" fill-rule="evenodd" /><path id="24" transform="matrix(1 0 0 -1 0 538)" d="M337.555 474.8599L334.6324 474.8599C 334.1566 474.8599 333.7205 474.7863 333.324 474.4012C 333.0861 474.1519 332.9332 473.8036 332.9332 473.3731C 332.9332 472.9993 333.0861 472.583 333.358 472.3111L333.358 472.3111L332.9841 472.3111L332.9841 472.3111L332.9841 470.9518L332.9841 470.9518L337.555 470.9518L337.555 470.9518L337.555 472.3451L337.555 472.3451L334.8193 472.3451C 334.2982 472.3451 334.1906 472.7133 334.1906 472.9059C 334.1906 473.0871 334.2982 473.4666 334.8193 473.4666L334.8193 473.4666L337.555 473.4666z" stroke="none" fill="#FFFFFF" fill-rule="evenodd" /><path id="25" transform="matrix(1 0 0 -1 0 538)" d="M332.5169 477.2643L331.4549 477.2643L331.4549 477.2643L331.4549 475.8709L331.4549 475.8709L332.5169 475.8709zM337.555 477.2643L333.1626 477.2643L333.1626 477.2643L333.1626 475.8709L333.1626 475.8709L337.555 475.8709z" stroke="none" fill="#FFFFFF" fill-rule="evenodd" /><path id="26" transform="matrix(1 0 0 -1 0 538)" d="M333.358 481.8266C 333.0521 481.5095 332.9332 481.1979 332.9332 480.7561C 332.9332 480.2804 333.1541 479.881 333.358 479.6772L333.358 479.6772L332.9841 479.6772L332.9841 479.6772L332.9841 478.3178L332.9841 478.3178L337.555 478.3178L337.555 478.3178L337.555 479.7112L337.555 479.7112L334.8193 479.7112C 334.3095 479.7112 334.1906 480.0793 334.1906 480.2719C 334.1906 480.5098 334.2925 480.6372 334.4285 480.7731z" stroke="none" fill="#FFFFFF" fill-rule="evenodd" /><path id="33" transform="matrix(1 0 0 -1 0 538)" d="M328.48 499.606L328.48 65.90598" stroke="#221E1F" stroke-width="0.5" stroke-linecap="square" fill="none" /><path id="832" transform="matrix(1 0 0 -1 0 538)" d="M56.355 445.747L110.632 445.747L110.632 457.086L56.355 457.086z" stroke="none" fill="#F7931D" fill-rule="nonzero" /><path id="842" transform="matrix(1 0 0 -1 0 538)" d="M56.355 384.41L311.92 384.41L311.92 445.748L56.355 445.748z" stroke="none" fill="#FCBB74" fill-rule="nonzero" /><path id="1017" transform="matrix(1 0 0 -1 0 538)" d="M56.355 192.897L311.473 192.897L311.473 228.897L56.355 228.897z" stroke="none" fill="#FEE6CB" fill-rule="nonzero" /><path id="1210" transform="matrix(1 0 0 -1 0 538)" d="M59.355 372.159L59.355 359.659" stroke="#F7931D" stroke-width="6" fill="none" /><path id="1211" transform="matrix(1 0 0 -1 0 538)" d="M56.355 359.409L158.605 359.409M56.355 372.409L158.605 372.409M158.355 372.159L158.355 359.659" stroke="#F7931D" stroke-width="0.5" fill="none" /></g></g></svg>