<svg xmlns="http://www.w3.org/2000/svg" xmlns:xlink="http://www.w3.org/1999/xlink" id="body_6" preserveAspectRatio="xMinYMin meet" viewBox="0 0 509 717"><defs><clipPath id="1"><path id="" clip-rule="evenodd" d="M0 538L0 -0.8049927L0 -0.8049927L382.804 -0.8049927L382.804 -0.8049927L382.804 538L382.804 538L0 538z" /></clipPath><clipPath id="2"><path id="" clip-rule="evenodd" d="M56.355 304.26L311.473 304.26L311.473 304.26L311.473 306.771L311.473 306.771L56.355 306.771z" /></clipPath><clipPath id="3"><path id="" clip-rule="evenodd" d="M311.413 123.494L56.41299 123.494L56.41299 123.494L56.41299 291.244L56.41299 291.244L311.413 291.244z" /></clipPath></defs><g transform="matrix(1.333333 0 0 1.333333 0 0)"><g clip-path="url(#1)"><path id="1" transform="matrix(1 0 0 -1 0 538)" d="M328.48 390.473L367.315 390.473L367.315 525.118L328.48 525.118z" stroke="none" fill="#F7931D" fill-rule="nonzero" /><path id="2" transform="matrix(1 0 0 -1 0 538)" d="M328.48 525.118L367.315 525.118L367.315 525.118L367.315 390.473L367.315 390.473L328.48 390.473z" stroke="#F7931D" stroke-width="0.5" fill="none" /><path id="9" transform="matrix(1 0 0 -1 0 538)" d="M56.35501 474.774L281.605 474.774M281.708 499.606L281.708 474.775M281.708 499.606L328.48 499.606M328.48 499.606L328.48 65.90598" stroke="#221E1F" stroke-width="0.5" stroke-linecap="square" fill="none" /><path id="10" transform="matrix(1 0 0 -1 0 538)" d="M287.378 474.775L322.811 474.775L322.811 492.633L287.378 492.633z" stroke="none" fill="#FCC689" fill-rule="nonzero" /><path id="11" transform="matrix(1 0 0 -1 0 538)" d="M318.73 478.833L316.559 478.833L316.559 478.833L316.559 477.42L316.559 477.42L319.209 477.481L319.209 477.481L319.272 477.42L319.272 477.42L319.167 475.215L319.167 475.215L319.074 475.126L319.074 475.126L317.092 475.141C 315.861 475.141 315.182 475.111 314.051 475.038L314.051 475.038L313.996 475.128L313.996 475.128L314.038 479.246L314.038 479.246L313.965 486.05L313.965 486.05L314.029 486.147L314.029 486.147L319.032 486.147L319.032 486.147L319.083 486.082L319.083 486.082L319.011 483.88L319.011 483.88L318.948 483.801L318.948 483.801L316.538 483.801L316.538 483.801L316.538 481.146L316.538 481.146L318.824 481.221L318.824 481.221L318.886 481.097L318.886 481.097L318.803 478.932M311.095 475.038L311.043 475.139L311.043 475.139L311.082 478.749L311.082 478.749L311.071 480.092L311.071 480.092L309.939 480.109C 309.413 480.109 308.995 480.092 308.363 480.059L308.363 480.059L308.363 475.173L308.363 475.173L308.318 475.089L308.318 475.089L305.874 475.038L305.874 475.038L305.822 475.122L305.822 475.122L305.863 481.673L305.863 481.673L305.811 484.963L305.811 484.963L305.853 485.75C 306.162 485.595 306.474 485.595 306.796 485.595C 307.304 485.595 307.765 485.905 308.318 486.216L308.318 486.216L308.363 485.284L308.363 485.284L308.363 482.387L308.363 482.387L311.071 482.387L311.071 482.387L311.017 484.974L311.017 484.974L311.082 485.75L311.082 485.75L313.572 486.216L313.572 486.216L313.624 485.595L313.624 485.595L313.582 480.421L313.582 480.421L313.624 475.14L313.624 475.14L313.572 475.038L313.572 475.038L311.095 475.038zM305.531 475.595L305.48 475.506C 304.189 475.267 303.781 475.059 303.125 475.059C 302.055 475.059 301.293 475.521 300.741 476.116C 299.667 477.278 299.413 479.109 299.413 480.487C 299.413 484.259 301.039 486.195 303.09 486.195C 303.869 486.195 304.322 485.882 305.5 485.644L305.5 485.644L305.542 485.54L305.542 485.54L305.449 483.06L305.449 483.06L304.578 482.999C 304.401 483.259 304.074 483.752 303.445 483.752C 302.745 483.752 301.912 482.999 301.912 480.625C 301.912 478.145 302.808 477.502 303.525 477.502C 304.154 477.502 304.517 477.961 305.522 478.191L305.522 478.191L305.605 478.129L305.605 478.129L305.531 475.595zM298.334 475.109L298.292 475.038L298.292 475.038L295.808 475.038L295.808 475.038L295.762 475.109L295.762 475.109L295.784 478.866L295.784 478.866L295.808 481.289L295.808 481.289L295.74 484.974L295.74 484.974L295.796 485.75C 296.914 485.595 297.155 485.595 298.272 486.216L298.272 486.216L298.314 485.44L298.314 485.44L298.262 481.119L298.262 481.119L298.334 475.109zM294.811 478.833L292.63 478.833L292.63 478.833L292.698 475.121L292.698 475.121L292.618 475.038L292.618 475.038L290.202 475.038L290.202 475.038L290.125 475.12L290.125 475.12L290.156 478.086L290.156 478.086L290.166 480.536L290.166 480.536L290.094 484.974L290.094 484.974L290.156 485.684C 292.88 485.506 293.453 485.684 295.123 486.216L295.123 486.216L295.197 485.329L295.197 485.329L295.113 483.91L295.113 483.91L295.039 483.801L295.039 483.801L292.66 483.801L292.66 483.801L292.671 481.131L292.671 481.131L294.926 481.22L294.926 481.22L294.978 481.147L294.978 481.147L294.884 478.945L294.884 478.945L294.811 478.833z" stroke="none" fill="#F7931D" fill-rule="evenodd" /><path id="38" transform="matrix(1 0 0 -1 0 538)" d="M56.355 426.756L311.473 426.756L311.473 462.756L56.355 462.756z" stroke="none" fill="#FEE6CB" fill-rule="nonzero" /><g clip-path="url(#2)"><path id="159" transform="matrix(1 0 0 -1 0 538)" d="M56.355 232.74L509.898 232.74" stroke="#F7931D" stroke-width="0.4" stroke-linecap="square" fill="none" /></g><path id="247" transform="matrix(1 0 0 -1 0 538)" d="M56.355 164.63L129.439 164.63L129.439 186.03L56.355 186.03z" stroke="none" fill="#FEE6CB" fill-rule="nonzero" /><path id="263" transform="matrix(1 0 0 -1 0 538)" d="M129.439 164.63L213.35 164.63L213.35 186.03L129.439 186.03z" stroke="none" fill="#FEE6CB" fill-rule="nonzero" /><path id="287" transform="matrix(1 0 0 -1 0 538)" d="M213.35 164.63L311.472 164.63L311.472 186.03L213.35 186.03z" stroke="none" fill="#FEE6CB" fill-rule="nonzero" /><path id="708" transform="matrix(1 0 0 -1 0 538)" d="M56.105 66.62999L311.723 66.62999M56.105 97.23L311.723 97.23M56.105 164.63L311.723 164.63M56.105 186.03L311.723 186.03M56.105 199.23L311.723 199.23M311.472 198.98L311.472 66.87999M213.35 186.28L213.35 66.37999M129.439 186.28L129.439 66.37999M56.355 198.98L56.355 66.87999" stroke="#F7931D" stroke-width="0.5" fill="none" /><path id="709" transform="matrix(1 0 0 -1 0 538)" d="M56.413 246.756L311.413 246.756L311.413 414.756L56.413 414.756z" stroke="none" fill="#FFFFFF" fill-rule="nonzero" /><g clip-path="url(#3)"><path id="710" transform="matrix(1 0 0 -1 0 538)" d="M166.538 405.131L123.538 388.256M271.913 377.631L244.913 377.631L244.913 377.631L244.913 387.131L244.913 387.131L271.913 387.131L271.913 387.131L271.913 377.631zM286.038 349.881L230.663 349.881L230.663 349.881L230.663 359.131L230.663 359.131L286.038 359.131L286.038 359.131L286.038 349.881zM304.038 317.756L286.163 317.756L286.163 317.756L286.163 327.131L286.163 327.131L304.038 327.131L304.038 327.131L304.038 317.756zM311.163 290.381L246.413 290.381L246.413 290.381L246.413 308.756L246.413 308.756L311.163 308.756L311.163 308.756L311.163 290.381zM310.663 249.256L256.913 249.256L256.913 249.256L256.913 281.131L256.913 281.131L310.663 281.131L310.663 281.131L310.663 249.256zM249.163 249.131L183.288 249.131L183.288 249.131L183.288 281.131L183.288 281.131L249.163 281.131L249.163 281.131L249.163 249.131zM176.038 248.756L132.89 248.756L132.89 248.756L132.89 267.256L132.89 267.256L176.038 267.256L176.038 267.256L176.038 248.756zM110.413 247.006L56.663 247.006L56.663 247.006L56.663 279.256L56.663 279.256L110.413 279.256L110.413 279.256L110.413 247.006zM169.038 295.131L142.038 295.131L142.038 295.131L142.038 308.756L142.038 308.756L169.038 308.756L169.038 308.756L169.038 295.131zM90.788 293.131L56.663 293.131L56.663 293.131L56.663 308.756L56.663 308.756L90.788 308.756L90.788 308.756L90.788 293.131zM221.538 317.881L203.038 317.881L203.038 317.881L203.038 327.381L203.038 327.381L221.538 327.381L221.538 327.381L221.538 317.881zM162.163 317.756L148.413 317.756L148.413 317.756L148.413 327.131L148.413 327.131L162.163 327.131L162.163 327.131L162.163 317.756zM75.038 318.006L61.163 318.006L61.163 318.006L61.163 327.131L61.163 327.131L75.038 327.131L75.038 327.131L75.038 318.006zM132.788 350.006L81.788 350.006L81.788 350.006L81.788 359.256L81.788 359.256L132.788 359.256L132.788 359.256L132.788 350.006zM189.663 405.131L166.538 405.131L166.538 405.131L166.538 414.256L166.538 414.256L189.663 414.256L189.663 414.256L189.663 405.131zM120.663 377.756L93.663 377.756L93.663 377.756L93.663 387.131L93.663 387.131L120.663 387.131L120.663 387.131L120.663 377.756z" stroke="#221E1F" stroke-width="0.5" fill="none" /></g><path id="711" transform="matrix(1 0 0 -1 0 538)" d="M121.431 387.429C 122.278 388.186 123.262 389.297 123.764 390.26L123.764 390.26L123.814 388.364L123.814 388.364L125.066 386.94C 124.043 387.305 122.567 387.45 121.431 387.429" stroke="none" fill="#221E1F" fill-rule="nonzero" /><path id="712" transform="matrix(1 0 0 -1 0 538)" d="M189.663 405.131L242.288 388.131" stroke="#221E1F" stroke-width="0.5" fill="none" /><path id="713" transform="matrix(1 0 0 -1 0 538)" d="M244.441 387.435C 243.307 387.387 241.843 387.152 240.844 386.724L240.844 386.724L242.006 388.222L242.006 388.222L241.939 390.117C 242.5 389.187 243.55 388.138 244.441 387.435" stroke="none" fill="#221E1F" fill-rule="nonzero" /><path id="714" transform="matrix(1 0 0 -1 0 538)" d="M258.663 377.631L258.663 361.756" stroke="#221E1F" stroke-width="0.5" fill="none" /><path id="715" transform="matrix(1 0 0 -1 0 538)" d="M258.663 359.493C 258.267 360.558 257.594 361.879 256.88 362.698L256.88 362.698L258.663 362.053L258.663 362.053L260.446 362.698C 259.732 361.879 259.058 360.558 258.663 359.493" stroke="none" fill="#221E1F" fill-rule="nonzero" /><path id="716" transform="matrix(1 0 0 -1 0 538)" d="M258.913 349.881L224.038 329.131" stroke="#221E1F" stroke-width="0.5" fill="none" /><path id="717" transform="matrix(1 0 0 -1 0 538)" d="M222.093 327.974C 222.807 328.858 223.597 330.112 223.935 331.145L223.935 331.145L224.293 329.283L224.293 329.283L225.759 328.08C 224.69 328.275 223.21 328.179 222.093 327.974" stroke="none" fill="#221E1F" fill-rule="nonzero" /><path id="718" transform="matrix(1 0 0 -1 0 538)" d="M258.913 349.881L283.663 329.131" stroke="#221E1F" stroke-width="0.5" fill="none" /><path id="719" transform="matrix(1 0 0 -1 0 538)" d="M285.397 327.677C 284.327 328.059 282.882 328.391 281.796 328.369L281.796 328.369L283.435 329.321L283.435 329.321L284.087 331.103C 284.256 330.029 284.835 328.664 285.397 327.677" stroke="none" fill="#221E1F" fill-rule="nonzero" /><path id="720" transform="matrix(1 0 0 -1 0 538)" d="M295.413 317.756L295.413 311.506" stroke="#221E1F" stroke-width="0.5" fill="none" /><path id="721" transform="matrix(1 0 0 -1 0 538)" d="M295.413 309.242C 295.017 310.308 294.344 311.629 293.63 312.447L293.63 312.447L295.413 311.803L295.413 311.803L297.196 312.447C 296.482 311.629 295.808 310.308 295.413 309.242" stroke="none" fill="#221E1F" fill-rule="nonzero" /><path id="722" transform="matrix(1 0 0 -1 0 538)" d="M212.663 317.881L212.663 284.131" stroke="#221E1F" stroke-width="0.5" fill="none" /><path id="723" transform="matrix(1 0 0 -1 0 538)" d="M212.663 281.867C 212.267 282.933 211.594 284.254 210.88 285.072L210.88 285.072L212.663 284.428L212.663 284.428L214.446 285.072C 213.732 284.254 213.058 282.933 212.663 281.867" stroke="none" fill="#221E1F" fill-rule="nonzero" /><path id="724" transform="matrix(1 0 0 -1 0 538)" d="M281.788 290.381L281.788 283.881" stroke="#221E1F" stroke-width="0.5" fill="none" /><path id="725" transform="matrix(1 0 0 -1 0 538)" d="M281.788 281.617C 281.392 282.683 280.719 284.004 280.005 284.822L280.005 284.822L281.788 284.178L281.788 284.178L283.571 284.822C 282.857 284.004 282.183 282.683 281.788 281.617" stroke="none" fill="#221E1F" fill-rule="nonzero" /><path id="726" transform="matrix(1 0 0 -1 0 538)" d="M155.538 317.756L155.538 311.506" stroke="#221E1F" stroke-width="0.5" fill="none" /><path id="727" transform="matrix(1 0 0 -1 0 538)" d="M155.538 309.242C 155.143 310.308 154.469 311.629 153.755 312.447L153.755 312.447L155.538 311.803L155.538 311.803L157.321 312.447C 156.607 311.629 155.933 310.308 155.538 309.242" stroke="none" fill="#221E1F" fill-rule="nonzero" /><path id="728" transform="matrix(1 0 0 -1 0 538)" d="M155.574 295.131L155.574 270.506" stroke="#221E1F" stroke-width="0.5" fill="none" /><path id="729" transform="matrix(1 0 0 -1 0 538)" d="M155.574 268.242C 155.179 269.308 154.505 270.629 153.791 271.447L153.791 271.447L155.574 270.803L155.574 270.803L157.357 271.447C 156.643 270.629 155.969 269.308 155.574 268.242" stroke="none" fill="#221E1F" fill-rule="nonzero" /><path id="730" transform="matrix(1 0 0 -1 0 538)" d="M106.934 349.771L77.739 328.951" stroke="#221E1F" stroke-width="0.5" fill="none" /><path id="731" transform="matrix(1 0 0 -1 0 538)" d="M75.896 327.637C 76.534 328.577 77.219 329.894 77.471 330.95L77.471 330.95L77.981 329.124L77.981 329.124L79.541 328.046C 78.46001 328.153 76.993 327.934 75.896 327.637" stroke="none" fill="#221E1F" fill-rule="nonzero" /><path id="732" transform="matrix(1 0 0 -1 0 538)" d="M107.628 349.945L145.608 328.441" stroke="#221E1F" stroke-width="0.5" fill="none" /><path id="733" transform="matrix(1 0 0 -1 0 538)" d="M147.577 327.325C 146.456 327.506 144.974 327.571 143.91 327.353L143.91 327.353L145.349 328.587L145.349 328.587L145.667 330.456C 146.028 329.432 146.845 328.194 147.577 327.325" stroke="none" fill="#221E1F" fill-rule="nonzero" /><path id="734" transform="matrix(1 0 0 -1 0 538)" d="M68.435 317.862L68.435 311.965" stroke="#221E1F" stroke-width="0.5" fill="none" /><path id="735" transform="matrix(1 0 0 -1 0 538)" d="M68.435 309.701C 68.04 310.767 67.366 312.088 66.652 312.906L66.652 312.906L68.435 312.262L68.435 312.262L70.21799 312.906C 69.504 312.088 68.82999 310.767 68.435 309.701" stroke="none" fill="#221E1F" fill-rule="nonzero" /><path id="736" transform="matrix(1 0 0 -1 0 538)" d="M72.944 293.063L72.944 282.484" stroke="#221E1F" stroke-width="0.5" fill="none" /><path id="737" transform="matrix(1 0 0 -1 0 538)" d="M72.944 280.221C 72.549 281.285 71.875 282.607 71.161 283.426L71.161 283.426L72.944 282.78L72.944 282.78L74.727 283.426C 74.014 282.607 73.339 281.285 72.944 280.221" stroke="none" fill="#221E1F" fill-rule="nonzero" /><path id="738" transform="matrix(1 0 0 -1 0 538)" d="M106.934 377.865L106.934 362.431" stroke="#221E1F" stroke-width="0.5" fill="none" /><path id="739" transform="matrix(1 0 0 -1 0 538)" d="M106.934 360.168C 106.539 361.233 105.865 362.554 105.151 363.373L105.151 363.373L106.934 362.728L106.934 362.728L108.718 363.373C 108.004 362.554 107.329 361.233 106.934 360.168" stroke="none" fill="#221E1F" fill-rule="nonzero" /></g></g></svg>